<?xml version="1.0" standalone="no"?>
<!DOCTYPE svg PUBLIC "-//W3C//DTD SVG 20010904//EN"
 "http://www.w3.org/TR/2001/REC-SVG-20010904/DTD/svg10.dtd">
<svg version="1.0" xmlns="http://www.w3.org/2000/svg"
 width="260.000000pt" height="260.000000pt" viewBox="0 0 260.000000 260.000000"
 preserveAspectRatio="xMidYMid meet">
<metadata>
Created by potrace 1.11, written by Peter Selinger 2001-2013
</metadata>
<g transform="translate(0.000000,260.000000) scale(0.100000,-0.100000)"
fill="#000000" stroke="none">
<path d="M1470 2479 c-67 -39 -119 -140 -144 -279 -12 -70 -14 -171 -11 -580
5 -556 -4 -502 85 -543 33 -16 68 -22 131 -24 103 -3 151 10 197 54 19 18 36
33 38 33 2 0 -6 -16 -17 -35 -12 -19 -38 -45 -60 -57 -21 -12 -39 -25 -39 -29
0 -15 92 -88 136 -109 63 -29 158 -36 206 -16 44 19 59 43 54 85 -5 42 10 39
18 -4 7 -36 -15 -95 -35 -95 -5 0 0 -13 12 -29 16 -22 21 -43 20 -85 0 -59 15
-86 50 -86 30 0 22 -16 -9 -18 -52 -4 -68 31 -71 155 -1 28 -20 33 -126 36
-62 2 -93 9 -136 29 -60 27 -135 88 -143 116 -5 14 -17 16 -68 13 -67 -3 -155
12 -200 35 -15 8 -31 13 -34 12 -4 -2 -8 -122 -10 -268 l-3 -265 47 -1 c29 -1
69 -11 105 -29 72 -34 67 -44 -8 -16 -58 22 -111 27 -133 12 -11 -6 -13 -31
-9 -107 6 -134 22 -187 72 -234 33 -31 133 -34 149 -5 31 52 66 79 160 124
120 57 179 99 202 142 16 31 16 83 -1 124 -7 18 -6 18 8 5 9 -8 20 -34 25 -57
19 -85 -34 -148 -193 -230 -108 -55 -145 -80 -145 -97 0 -30 217 34 335 98
146 80 283 212 357 346 44 79 94 222 108 312 12 75 9 315 -4 383 -4 17 -9 44
-12 60 -13 69 -108 332 -158 438 -108 231 -306 540 -306 479 0 -11 7 -36 15
-55 24 -59 19 -107 -21 -183 -51 -97 -65 -141 -65 -206 -1 -102 34 -143 161
-183 107 -34 160 -87 160 -157 l-1 -33 -14 40 c-8 22 -15 41 -15 41 -1 10 -93
58 -150 78 -41 15 -85 34 -97 42 -30 19 -38 18 -40 -7 -5 -65 -68 -100 -164
-92 -109 9 -123 9 -152 0 -16 -5 -30 -19 -33 -33 -3 -13 -10 -21 -15 -18 -15
9 -10 32 15 61 23 27 25 27 149 28 168 0 161 -7 162 178 l1 142 49 100 c53
108 57 133 30 211 -9 27 -19 59 -21 71 -8 44 -20 62 -69 102 -77 64 -149 95
-225 97 -50 2 -74 -2 -100 -17z m128 -156 c-38 -45 -46 -98 -35 -223 4 -41 9
-100 11 -130 l4 -55 -17 71 c-10 39 -24 81 -30 93 -16 29 -69 51 -122 51 -54
0 -46 8 12 14 24 2 58 -2 76 -9 l33 -14 0 52 c0 29 9 70 19 93 20 44 52 86 60
79 2 -3 -3 -13 -11 -22z"/>
<path d="M883 2467 c-79 -31 -158 -95 -245 -198 -51 -60 -249 -388 -299 -496
-17 -38 -35 -76 -41 -85 -8 -16 -3 -18 59 -15 102 6 119 -5 33 -19 -120 -21
-119 -19 -174 -212 l-15 -52 30 -35 c48 -55 160 -84 241 -62 23 6 32 1 64 -33
78 -84 234 -127 352 -96 12 3 32 9 45 12 44 12 103 12 117 0 25 -19 47 -50 55
-75 6 -20 0 -17 -33 18 -45 47 -57 48 -177 17 -73 -20 -134 -20 -201 -2 -69
18 -152 64 -177 98 -19 26 -24 27 -77 21 -79 -8 -155 12 -206 53 l-42 33 -13
-47 c-23 -78 -18 -280 10 -382 81 -306 349 -640 618 -772 76 -38 94 -42 174
-46 80 -4 94 -2 141 21 95 47 115 108 115 347 l0 172 -36 -7 c-94 -17 -168
-67 -238 -158 -86 -112 -140 -149 -212 -142 -70 7 -108 72 -116 197 -5 72 -9
86 -31 106 -14 12 -37 22 -52 22 -121 3 -134 5 -158 33 -32 38 -31 57 2 26 22
-21 36 -24 102 -26 42 -1 86 -3 96 -5 18 -3 19 4 20 97 1 80 5 107 19 129 23
35 33 27 14 -11 -8 -16 -13 -48 -11 -73 1 -25 5 -77 7 -117 3 -39 7 -76 11
-81 3 -6 8 -43 11 -84 9 -115 55 -185 115 -175 38 6 91 50 161 133 82 97 144
141 238 170 l58 17 -1 786 c-2 609 -5 796 -15 831 -17 60 -47 111 -78 134 -26
19 -27 19 -109 -8 -106 -34 -173 -79 -199 -131 -20 -42 -21 -56 -14 -330 2
-111 1 -124 -24 -182 -29 -67 -34 -129 -16 -182 10 -29 15 -31 57 -32 69 -1
101 -17 36 -18 -76 -1 -108 -16 -133 -62 -13 -22 -25 -38 -28 -36 -7 8 27 81
44 94 14 11 14 15 -1 46 -28 60 -26 108 5 187 32 79 36 121 24 255 -11 120 -8
200 10 256 23 68 104 137 198 168 20 7 37 16 37 20 0 14 -102 6 -147 -12z"/>
</g>
</svg>
