<?xml version="1.0" encoding="utf-8"?>
<!-- Generator: Adobe Illustrator 16.0.0, SVG Export Plug-In . SVG Version: 6.00 Build 0)  -->
<!DOCTYPE svg PUBLIC "-//W3C//DTD SVG 1.1//EN" "http://www.w3.org/Graphics/SVG/1.1/DTD/svg11.dtd">
<svg version="1.1" id="Layer_1" xmlns="http://www.w3.org/2000/svg" xmlns:xlink="http://www.w3.org/1999/xlink" x="0px" y="0px"
	 width="333.837px" height="323.91px" viewBox="0 0 333.837 323.91" enable-background="new 0 0 333.837 323.91"
	 xml:space="preserve">
<g>
	<path fill-rule="evenodd" clip-rule="evenodd" fill="#55E9F0" d="M63.868,96.558c-1.942-12.676-3.938-25.346-5.806-38.034
		C56.938,50.872,56.014,43.188,55,35.52c3.467,0.661,6.212,2.927,9.145,4.568c9.133,5.106,18.493,9.683,28.1,13.792
		c0.92,0.393,1.772,0.906,2.369,1.764c0.275,0.481,0.462,0.99,0.582,1.53c-0.157,4.559,1.526,8.946,1.258,13.513
		c1.848,17.781,2.99,35.622,4.717,53.406c-2.146,2.245-3.982,0.608-5.561-0.693C84.918,114.585,73.922,106.127,63.868,96.558z"/>
	<path fill-rule="evenodd" clip-rule="evenodd" fill="#3AE6EE" d="M236.105,172.548c-5.174,5.82-11.187,10.73-17.111,15.732
		c-1.592-1.824-1.383-3.707-0.203-5.617c0.067-0.924,2.035,1.041,1.482-1.002c-0.338-1.242,0.135-2.539,0.117-3.818
		c0.015-0.473,0.079-0.938,0.166-1.398c0.099-3.561,1.853-7.043,0.442-10.668c0.068-4.17-0.009-8.363,1.927-12.222
		c0.477-0.56,1.606,0.426,1.506-0.101c-0.713-3.741,1.118-7.508-0.206-11.211c0.264-3.8,0.392-7.621,1.784-11.24
		c1.028-2.621,3.272-4.128,5.332-5.805c1.509-0.925,2.92-1.984,4.181-3.236c1.367-1.004,2.597-2.19,4.012-3.135
		c1.538-0.662,2.83-1.674,4.008-2.846c0.963-0.819,2.061-1.43,3.148-2.057c1.299-0.665,2.433-1.559,3.505-2.542
		c0.32-0.28,0.665-0.524,1.02-0.756c1.322-0.738,2.304-1.851,3.264-2.989c1.499-1.28,3.228-2.254,4.7-3.57
		c0.498-0.43,1.008-0.845,1.521-1.258c2.09-1.037,3.416-3.523,6.183-3.284c-0.789,10.219-3.433,20.119-5.469,30.104
		c-1.628,7.985-1.939,16.301-5.399,23.878c-1.91,1.413-3.898,2.751-4.895,5.049c-3.188,3.771-6.812,7.078-10.74,10.061
		C238.388,169.312,236.964,170.622,236.105,172.548z"/>
	<path fill-rule="evenodd" clip-rule="evenodd" fill="#09676B" d="M83.535,302.051c5.299-12.26,10.196-23.615,15.119-34.963
		c1.322-3.047,6.491-4.92,9.394-3.527c1.466,0.703,0.956,1.971,0.958,3.018c0.033,17.996-0.051,35.994,0.076,53.988
		c0.032,4.682-3.236,2.512-5.219,2.875c-2.367,0.434-4.001,0.119-3.912-3.199c0.238-8.99,0.081-17.992,0.081-26.99
		c0-1.561,0-3.121,0-4.682c-0.303-0.055-0.605-0.111-0.908-0.168c-3.682,7.998-7.646,15.881-10.899,24.049
		c-1.229,3.086-3.152,2.295-5.113,2.441c-2.197,0.166-4.035,0.037-5.126-2.656c-3.194-7.891-6.734-15.643-11.132-23.332
		c0,9.834-0.228,19.678,0.105,29.502c0.143,4.197-1.059,5.426-5.207,5.209c-3.108-0.162-4.258-0.738-4.223-4.131
		c0.175-17.328,0.053-34.66,0.133-51.99c0.006-1.387-1.044-4.025,1.59-3.826c2.594,0.197,6.021-2.133,7.789,1.787
		c4.598,10.197,9.293,20.352,13.668,30.643C81.491,297.94,82.511,299.545,83.535,302.051z"/>
	<path fill-rule="evenodd" clip-rule="evenodd" fill="#3BE6EE" d="M63.868,96.558c6.242,2.881,10.519,8.319,15.942,12.272
		c6.904,5.032,12.482,11.781,20.241,15.723c0.445,0.405,0.772,0.889,0.989,1.45c1.455,8.283,1.857,16.668,2.381,25.039
		c0.072,2.465-0.303,4.964,0.543,7.375c0.385,1.611,0.379,3.258,0.427,4.898c-0.063,1.908,0.03,3.801,0.664,5.633
		c0.396,1.994,0.329,4.014,0.381,6.029c-0.275,2.33,0.644,4.949-1.653,6.781c-2.02-1.312-3.328-3.289-4.791-5.121
		c-0.739-1.273-1.395-2.631-3.018-3.02c-5.326-5.66-10.652-11.32-15.979-16.98c-0.74-1.272-1.4-2.625-3.015-3.024
		c-4.604-3.664-6.487-8.478-7.318-14.299C67.627,125.075,65.121,110.904,63.868,96.558z"/>
	<path fill-rule="evenodd" clip-rule="evenodd" fill="#2BE5ED" d="M227.021,130.502c-0.666,4.005-1.331,8.01-1.996,12.015
		c1.265,3.809-0.305,7.357-1.012,10.985c-1.541,4.202-1.511,8.646-1.992,13.009c0.003,3.695-0.395,7.355-1.01,10.994l0.001-0.006
		c-0.747,1.582-0.017,3.463-1,4.998c-1.776,1.676-0.684,3.855-1.018,5.783c-0.862,0.777-1.724,1.553-2.585,2.328
		c-2.414,0.953-4.104,2.676-5.277,4.949c-3.227,3.02-6.454,6.039-9.682,9.057c-3.301,1.309-5.144,4.232-7.414,6.684
		c-2.736,1.893-4.494,4.961-7.634,6.369c-4.098-0.68-7.017-3.158-9.538-6.248c4.589-1.65,9.049-3.111,12.028-7.705
		c6.616-10.203,9.629-20.59,3.816-32.158c-0.917-1.824-2.36-3.158-3.924-4.418c-1.798-1.447-3.726-2.816-4.329-5.262
		c-0.063-2.029,1.472-2.936,2.791-3.998c2.201-1.683,4.487-3.257,6.607-5.051c8.434-5.574,16.26-11.985,24.49-17.837
		c2.542-1.483,4.511-3.852,7.387-4.829C226.205,130.106,226.635,130.222,227.021,130.502z"/>
	<path fill-rule="evenodd" clip-rule="evenodd" fill="#2BE5ED" d="M116.238,194.522c-2.753-2.961-5.506-5.922-8.258-8.883
		c-0.055-3.012,0.084-6.021-0.006-9.035c-0.082-2.754-1.037-3.662-3.256-4.188c-0.289-1.162-0.15-2.342-0.135-3.516
		c5.898-2.158,5.43-6.496,4.329-11.467c-0.532-2.401,1.181-5.245-1.231-6.835c0.464,0.882,2.061,2.618,0.209,3.696
		c-1.77,1.029-2.88-0.981-3.879-2.248c-0.723-0.913-1.191-1.991-1.446-3.146c0.048-2.67,0.054-5.334-0.876-7.892
		c0.033-4.465,3.131-3.995,6.209-4.141c3.09-0.146,4.201,1.282,4.377,3.991c0.161,2.465,1.02,3.796,3.899,3.917
		c4.726,0.198,4.432,4.507,5.424,7.904c2.591-0.492,3.006-4.263,5.952-3.771c0.709,0.145,1.283,0.523,1.791,1.017
		c1.435,1.822,3.291,3.05,5.459,3.844c1.651,1.03,3.625,1.77,3.778,4.158c-0.112,1.271-0.749,2.553,0.573,3.688
		c3.111,2.672,3.547,6.428,3.21,10.07c-1.216,13.117-1.669,26.221-0.288,39.348c0.246,2.342-1.178,3.291-3.008,2.52
		c-1.719-0.727-3.478-0.471-5.137-1.02c-3.002-2.875-6.005-5.748-9.008-8.621C122.963,199.921,119.339,197.464,116.238,194.522z"/>
	<path fill-rule="evenodd" clip-rule="evenodd" fill="#55E9F0" d="M56.996,24.507c1.287-2.848,3.828-4.248,6.592-4.815
		c18.473-3.793,36.977-7.435,55.474-11.103c0.64-0.127,1.327-0.021,1.991-0.024c6.713,0.108,12.682,3.178,19.026,4.751
		c1.603,0.648,3.294,0.979,4.971,1.363c3.802,0.958,7.529,2.161,11.233,3.439c1.841,0.751,3.864,0.985,5.619,1.983
		c0.393,0.367,0.598,0.82,0.623,1.356c-0.804,2.832-3.424,2.859-5.559,3.428c-15.041,4.007-30.09,7.988-45.109,12.079
		c-3.013,0.82-6.184,1.367-8.551,3.712c-1.602,0.921-2.781-0.214-4.072-0.825c-2.82-1.199-5.766-2.106-8.484-3.552
		c-3.797-1.955-7.895-3.194-11.786-4.92c-2.018-1.174-4.288-1.812-6.329-2.939c-3.072-1.692-6.832-1.859-9.671-3.832
		c-2.667-1.854-1.205,1.439-2.216,1.405C59.07,26.566,57.745,26.252,56.996,24.507z"/>
	<path fill-rule="evenodd" clip-rule="evenodd" fill="#09676B" d="M212.42,323.141c-0.103,0.07-0.212,0.197-0.341,0.223
		c-6.715,1.285-11.585-0.178-13.984-7.568c-1.709-5.268-4.679-10.133-7.151-15.146c-2.605-5.283-7.392-2.383-11.096-2.471
		c-3.312-0.08-1.667,3.373-1.741,5.191c-0.229,5.654-0.31,11.336-0.009,16.984c0.215,4.037-2.381,3.152-4.523,3.098
		c-2.054-0.051-4.666,1.129-4.625-2.994c0.175-17.99,0.12-35.986,0.023-53.979c-0.014-2.475,0.833-3.072,3.152-3.031
		c6.995,0.129,13.994,0.041,20.991,0.047c8.352,0.01,14.649,4.188,16.862,11.176c2.374,7.494,0.006,15.598-6.915,19.977
		c-3.709,2.346-2.952,4.1-1.384,6.984c3.692,6.793,7.178,13.699,10.725,20.57C212.531,322.45,212.42,322.819,212.42,323.141z"/>
	<path fill-rule="evenodd" clip-rule="evenodd" fill="#09676B" d="M122.029,293.374c0-8.656,0.109-17.316-0.062-25.969
		c-0.057-2.879,0.437-4.074,3.733-3.998c10.316,0.238,20.644,0.215,30.961,0.012c3.149-0.062,4.053,0.926,3.854,3.939
		c-0.172,2.619,0.195,4.836-3.777,4.652c-6.978-0.324-13.994,0.178-20.967-0.189c-4.126-0.217-5.231,1.283-4.789,5.045
		c0.252,2.135,0.338,4.371-0.012,6.477c-0.844,5.08,1.408,6.172,6.031,5.814c5.296-0.408,10.656,0.094,15.971-0.156
		c3.555-0.166,3.076,2.012,3.057,4.164c-0.02,2.119,0.571,4.348-3.032,4.205c-6.15-0.24-12.322,0.084-18.474-0.127
		c-2.923-0.102-3.769,0.947-3.525,3.688c0.392,4.432-1.818,10.154,0.896,12.973c2.494,2.592,8.196,0.629,12.481,0.742
		c4.325,0.115,8.663,0.174,12.983-0.016c3.99-0.174,2.992,2.605,3.074,4.744c0.082,2.104,0.593,4.252-3.004,4.184
		c-10.818-0.201-21.643-0.146-32.462-0.016c-2.538,0.029-3.007-0.941-2.98-3.199C122.091,311.354,122.03,302.364,122.029,293.374z"
		/>
	<path fill-rule="evenodd" clip-rule="evenodd" fill="#09676B" d="M51.095,323.292c-1.159,0.104-1.659,0.107-2.144,0.199
		c-5.848,1.096-9.406-0.836-10.09-7.176c-0.542-5.016-3.473-7.002-8.507-6.057c-1.606,0.303-3.317,0.047-4.981,0.047
		c-10.648,0-10.648,0-14.749,9.912c-1.105,2.672-8.112,4.805-10.138,3.029c-0.908-0.795-0.327-1.766,0-2.67
		c6.556-18.121,13.119-36.238,19.641-54.371c0.891-2.473,2.63-2.766,4.987-2.797c2.819-0.037,4.649,0.566,5.657,3.504
		c3.041,8.865,6.284,17.66,9.471,26.477C43.805,303.243,47.391,313.086,51.095,323.292z"/>
	<path fill-rule="evenodd" clip-rule="evenodd" fill="#09676B" d="M282.992,323.909c7.303-20.115,14.265-39.26,21.188-58.418
		c0.532-1.471,1.374-2.035,2.946-2.029c3.104,0.01,5.899-0.383,7.314,3.727c6.104,17.729,12.431,35.383,18.921,52.971
		c1.14,3.09,0.187,3.154-2.37,3.406c-4.409,0.436-6.855-0.689-8.114-5.477c-2.075-7.883-2.459-7.783-10.644-7.783
		c-0.832,0-1.683,0.111-2.494-0.016c-8.237-1.301-14.195,0.182-15.829,10.062C292.944,326.192,287.387,322.446,282.992,323.909z"/>
	<path fill-rule="evenodd" clip-rule="evenodd" fill="#09676B" d="M249.934,293.698c0,2.994-0.138,6,0.029,8.986
		c0.303,5.404,2.607,9.762,7.97,11.443c4.946,1.553,10.025,0.859,12.774-3.949c2.501-4.375,6.107-3.578,9.785-3.707
		c1.851-0.064,2.696,0.238,2.197,2.494c-1.724,7.789-9.908,14.174-18.023,14.602c-9.315,0.492-17.017-1.633-21.88-10.367
		c-2.117-3.803-2.264-7.959-2.438-12.018c-0.309-7.135-0.449-14.289,0.6-21.422c1.409-9.576,9.794-16.812,20.237-17.172
		c9.667-0.332,19.419,6.717,21.401,15.369c0.349,1.52,0.62,2.635-1.515,2.535c-3.745-0.176-7.471,0.988-10.117-3.764
		c-2.396-4.305-7.208-5.666-12.244-4.275c-5.183,1.434-8.153,4.98-8.634,10.264c-0.331,3.633-0.063,7.318-0.063,10.98
		C249.986,293.698,249.96,293.698,249.934,293.698z"/>
	<path fill-rule="evenodd" clip-rule="evenodd" fill="#39E6EE" d="M140.037,14.517c-6.358-1.89-12.852-3.343-18.984-5.952
		c10.945-2.332,22.094-3.985,32.785-7.169c13.213-3.935,25.101,1.476,37.459,3.635c6.308,1.102,12.478,2.992,18.709,4.526
		c0.339,0.495,0.3,0.958-0.114,1.391c-3.826,2.342-8.372,2.421-12.456,3.961c-4.432,1.386-9.005,2.23-13.459,3.537
		c-5.351,1.195-10.504,3.178-15.948,4.015c-2.21-0.007-4.294-0.421-6.03-1.918l0.026,0.004c-2.008-0.266-3.762-1.991-5.98-1.038
		c-3.673-1.318-7.345-2.636-11.017-3.955C143.41,14.986,141.807,14.346,140.037,14.517z"/>
	<path fill-rule="evenodd" clip-rule="evenodd" fill="#3AE6EE" d="M247.012,114.521c-0.997,0.663-1.994,1.327-2.99,1.99
		c-1.114,0.643-2.074,1.659-3.539,1.464c-2.972-0.596-2.665-2.965-2.644-5.072c0.104-10.035,1.197-20.038,0.853-30.095
		c-0.121-3.546-0.183-6.937-2.928-9.605c-0.396-0.721-0.542-1.496-0.511-2.31c0.271-1.523,0.471-3.057,0.451-4.614
		c0.037-1.295,0.123-2.586,0.411-3.854c0.954-2.409,0.129-5.117,1.24-7.499c0.17-0.291,0.377-0.672,0.661-0.702
		c11.784-1.257,19.363-10.134,28.646-15.89c3.026-1.875,4.246-5.056,3.82-8.67c-0.262-2.22-0.328-4.333,1.54-5.979
		c1.652-0.117,2.823,0.723,3.815,1.918c1.991,6.06,1.373,11.428-4.028,15.597c-7.367,5.687-13.854,12.365-20.815,18.508
		c-1.306,1.153-2.562,2.445-1.888,4.273c2.101,5.684,0.971,11.554,1.183,17.339c0.312,8.483-0.422,16.988,0.459,25.465
		c0.159,1.526-0.207,2.978-0.757,4.392C249.508,112.746,248.269,113.641,247.012,114.521z"/>
	<path fill-rule="evenodd" clip-rule="evenodd" fill="#27E3EC" d="M133.93,212.536c2.406-2.004,4.672,0.57,7.641,0.334
		c-1.333-2.217-1.654-4.338-1.572-6.586c0.428-11.814-0.668-23.65,1.196-35.479c0.387-2.455,0.884-6.85-4.298-8.434
		c-3.666-1.119,1.027-3.074,1.129-4.859c5.368,0.977,8.921,4.176,11.107,9.066c1.774,14.34,0.992,28.799,2.049,43.184
		c0.46,6.266-0.908,12.65-2.196,18.884c-1.854-0.686-3.003-2.146-4.071-3.697c-1.472-3.242-4.031-5.457-6.938-7.346
		C136.29,216.185,134.248,215.048,133.93,212.536z"/>
	<path fill-rule="evenodd" clip-rule="evenodd" fill="#09676B" d="M220.59,293.499c0-8.822,0.235-17.652-0.103-26.463
		c-0.16-4.184,2.233-3.57,4.706-3.545c2.43,0.025,4.805-0.713,4.744,3.527c-0.252,17.641-0.251,35.289,0.001,52.928
		c0.06,4.217-2.282,3.535-4.729,3.543c-2.452,0.01-4.883,0.678-4.721-3.531C220.825,311.151,220.59,302.319,220.59,293.499z"/>
	<path fill-rule="evenodd" clip-rule="evenodd" fill="#34E6EE" d="M249.015,111.524c-0.004-14.6,0.316-29.212-0.261-43.79
		c-0.13-3.293-2.822-6.684,0.974-9.173c6.99-4.582,11.724-11.75,18.859-16.097c6.445-3.926,7.197-10.227,7.253-16.861
		c1.719,0.777,2.39,2.337,2.969,3.967c0,8.854-5.252,14.187-12.286,18.333c-5.537,5.538-8.646,11.848-8.24,20.043
		c0.502,10.135,0.065,20.312,0.151,30.472c0.019,2.178-0.018,4.342,1.581,6.098c-1.667,1.331-3.334,2.663-5.001,3.994
		c-1.424,0.883-2.61,2.083-4.006,3.002l0.008-0.006C250.354,112.07,249.688,112.131,249.015,111.524z"/>
	<path fill-rule="evenodd" clip-rule="evenodd" fill="#20E3EC" d="M180.106,224.526c-3.51,3.396-6.817,7.039-10.575,10.134
		c-6.008,4.951-12.912,3.594-18.26-3.197c2.031-2.787,2.573-5.898,2.391-9.308c-0.751-14.1,0.402-28.162,1.009-42.234
		c0.122-2.834,0.878-5.553,1.48-8.299c1.181-2.078,2.817-1.471,4.472-0.758c0.479,0.307,0.773,0.746,0.89,1.303
		c0.04,1.818,0.091,3.643,0.622,5.418c0.062,6.246,0.777,12.449,1.281,18.66c-0.005,1.139-0.147,2.281-0.114,3.43
		c0.086,3.006,0.458,5.68,4.604,5.201c1.163-0.135,2.062,0.883,2.934,1.637c0.352,0.312,0.664,0.66,0.953,1.029
		c1.456,1.975,2.466,4.258,4.097,6.102c1.831,2.072,2.968,4.25,2.107,7.131c-0.343,1.146-0.09,2.289,1.135,2.941
		C179.521,223.909,179.846,224.179,180.106,224.526z"/>
	<path fill-rule="evenodd" clip-rule="evenodd" fill="#2DE5ED" d="M267.012,46.521c6.691-3.73,9.64-10.065,11.797-16.951
		c1.408,2.595,1.72,5.257,0.485,8.013c-1.66,2.578-3.243,5.194-5.022,7.709c-2.298,3.247-4.055,7.19-3.972,11.516
		c0.162,8.445-0.334,16.801-2.105,25.124c-0.645,3.032,0.001,6.432,0.605,9.622c-0.382,2.719-0.529,5.496-1.917,7.973
		c-1.938,1.356-3.531,3.221-5.87,3.989c-1.848,0.113-2.528-0.966-1.904-2.464c2.463-5.917,1.201-12.094,1.417-18.156
		c0.188-5.284,0.444-10.62-0.057-15.863C259.716,59.136,261.855,52.409,267.012,46.521z"/>
	<path fill-rule="evenodd" clip-rule="evenodd" fill="#4CE8EF" d="M210.019,10.529c0-0.323-0.004-0.647-0.013-0.972
		c3.14,0.083,6.143,0.771,9.015,2.036c0.578,0.593,1.468,1.266,1.227,2.047c-1.67,5.403,0.744,10.762,0.044,16.158
		c-0.429,3.297,1.285,5.095,4.615,4.825c4.854-0.395,9.871,0.679,14.5-2.019c1.942-1.133,4.381-1.519,6.658-0.284
		c0.25,0.446,0.278,0.911,0.121,1.394c-4.716,3.208-10.272,4.513-15.388,6.814c-1.11,0.423-2.228,0.831-3.449,0.528
		c-1.03-0.399-1.863-1.213-2.987-1.424c-1.493-0.431-2.972-0.904-4.479-1.279c-3.185-0.126-5.996-1.858-9.175-2.068
		c-1.879-0.124-2.459-1.435-2.336-3.167c-0.048-5.983,0.423-11.951,0.296-17.932C208.632,13.517,208.765,11.848,210.019,10.529z"/>
	<path fill-rule="evenodd" clip-rule="evenodd" fill="#54E9F0" d="M56.996,24.507c1.266,0.681,2.576,1.179,4.053,1.011
		c4.346-1.506,7.326,1.906,10.945,3.019c1.681,0.932,3.569,1.364,5.307,2.161c4.012,1.408,7.896,3.12,11.748,4.909
		c2.02,1.139,4.393,1.579,6.225,3.097c1.025,0.922,2.25,1.636,3.025,2.829c0.012,2.532-1.756,4.265-2.829,6.315
		c-0.502,0.56-1.095,0.96-1.858,1.059c-8.557-3.617-16.389-8.662-24.807-12.588c-4.476-2.087-8.906-4.286-13.472-6.195
		c-0.13-0.207-0.257-0.418-0.384-0.628C54.97,27.561,55.352,25.775,56.996,24.507z"/>
	<path fill-rule="evenodd" clip-rule="evenodd" fill="#47E8EF" d="M246.029,32.53c-5.855,0.291-11.018,3.951-17.062,3.445
		c-2.56-0.214-5.223,0.302-7.701-0.196c-2.019-0.406-2.103-2.565-2.299-4.481c-0.481-4.672,1.257-9.477-1.279-14.132
		c-0.521-0.959,2.625-3.183,1.333-5.573c2.89-0.062,5.611,0.662,8.246,1.78c0.132,3.309,1.008,6.523,1.005,9.872
		c-0.006,5.873,2.574,7.931,8.466,7.105c0.993-0.139,1.877-0.643,2.797-1.033c4.156-1.549,8.675-1.215,12.886-2.543
		c1.469-0.464,2.896,0.112,3.768,1.568C253.838,32.248,250.37,33.447,246.029,32.53z"/>
	<path fill-rule="evenodd" clip-rule="evenodd" fill="#2FE5ED" d="M157.021,170.509c-1.82,18.838-2.379,37.727-1.916,56.635
		c0.076,3.101-2.059,3.335-3.834,4.32c-0.762-0.939-1.523-1.877-2.286-2.816c-0.806-5.105,1.166-10.277,0.702-15.062
		c-1.156-11.916,0.275-23.867-1.323-35.734c-0.546-4.059-0.249-8.227-0.337-12.346c0.611-0.723,1.283-1.348,2.293-1.447
		c0.49,0.027,0.93,0.189,1.324,0.482c0.724,0.754,1.057,1.615,0.735,2.656c-1.68,2.758-1.327,5.871-0.832,8.703
		c0.888,5.08,0.723,10.166,0.949,15.262c0.392-6.693,0.669-13.398,2.671-19.879c0.262-0.467,0.635-0.803,1.118-1.02
		C156.532,170.343,156.776,170.427,157.021,170.509z"/>
	<path fill-rule="evenodd" clip-rule="evenodd" fill="#2CE5ED" d="M268.8,91.554c-0.315,0.104-0.631,0.208-0.946,0.312
		c0.48-3.569-2.343-6.888-1.236-10.324c1.801-5.596,2.751-11.336,2.281-17.062c-0.886-10.792,2.174-19.767,10.395-26.897
		C275.796,55.573,272.298,73.564,268.8,91.554z"/>
	<path fill-rule="evenodd" clip-rule="evenodd" fill="#66ECF2" d="M93.996,55.498c-9.891-2.989-18.924-7.872-27.789-13.005
		c-3.79-2.195-8.628-2.817-11.207-6.973c-1.164-1.999-1.122-4.007-0.051-6.024l0.195,0.073c0.762,0.995,1.401,1.785,2.821,2.356
		c12.255,4.933,24.11,10.721,35.409,17.604c0.588,0.358,1.026,0.815,1.36,1.407C95.279,52.587,95.389,54.166,93.996,55.498z"/>
	<path fill-rule="evenodd" clip-rule="evenodd" fill="#47E8EF" d="M272.023,23.685c-0.114,2.25-0.519,4.412-0.183,6.773
		c0.484,3.412-0.936,6.806-3.967,8.543c-4.711,2.702-8.33,6.879-13.489,9.035c-3.712,1.552-5.647,6.064-10.589,6.341
		c-1.906,0.107-3.837,0.02-5.75,0.131c-0.395-0.337-0.64-0.759-0.739-1.269c-0.063-0.767,0.117-1.458,0.635-2.042
		c8.268-3.107,15.807-7.587,22.888-12.779c5.462-4.004,5.318-4.199,0.753-8.629c-0.052-0.766,0.257-1.363,0.846-1.832
		c2.438-1.604,5.79-1.734,7.438-4.619c0.447-0.224,0.86-0.171,1.239,0.155C271.422,23.504,271.729,23.569,272.023,23.685z"/>
	<path fill-rule="evenodd" clip-rule="evenodd" fill="#3BE6EE" d="M271.104,23.494c-0.367,0.014-0.735,0.026-1.104,0.04
		c-0.717,1.844-2.374,1.962-3.979,2.183c-4.438-0.345-8.631,1.586-13.11,1.312c-3.808-0.234-7.621-0.207-11.19-1.72
		c-2.35-0.995-3.583-2.992-3.585-5.484c-0.002-1.823,0.354-3.762,3.032-3.387C251.244,18.379,261.462,19.715,271.104,23.494z"/>
	<path fill-rule="evenodd" clip-rule="evenodd" fill="#3FE6EE" d="M241.168,16.438c-3.179,3.489-2.49,7.059,1.862,8.024
		c6.186,1.372,12.438,2.764,18.667-0.335c1.102-0.549,2.864,0.232,4.322,0.4c-0.565,3.306-3.938,2.379-5.742,3.824
		c-1.398,0.441-2.781,1.4-4.249,0.181c-5.858-0.938-11.332,1.414-17.014,1.991c-6.378-2.083-6.081-8.372-8.184-13.121
		c-0.488-1.104,0.127-2.264,1.211-2.99C235.218,14.484,238.246,15.222,241.168,16.438z"/>
	<path fill-rule="evenodd" clip-rule="evenodd" fill="#42E8EF" d="M232.042,14.412c1.751,4.737-0.619,11.448,6.607,13.584
		c1.363,0.402,0.668,1.613,0.365,2.527c-7.244,3.427-11.95,0.701-12.003-6.936c-0.02-2.755,0.268-5.549-1.085-8.144
		c-0.72-1.38,0.601-1.565,1.339-2.07C228.868,13.672,230.645,13.17,232.042,14.412z"/>
	<path fill-rule="evenodd" clip-rule="evenodd" fill="#26E3EC" d="M179.021,224.499c-0.874,0.17-2.749,0.912-2.479,0.227
		c2.895-7.365-3.655-11.529-5.52-17.225c3.236-0.521,4.903,1.312,6,4c4.082,0.602,6.156,4.258,9.379,6.166
		c-0.102,0.762-0.108,1.57-0.979,1.943C182.654,220.409,181.414,223.208,179.021,224.499z"/>
	<path fill-rule="evenodd" clip-rule="evenodd" fill="#29E4ED" d="M105.041,172.505c1.721-0.25,3.442-0.498,6.53-0.943
		c-3.681,2.246-3.206,5.111-2.34,6.879c1.499,3.057,0.737,5.074-1.251,7.199c-0.685-0.578-1.369-1.156-2.053-1.732
		c-0.895-2.213-0.286-4.402-0.301-6.459c-1.125,0.934,1.437,3.984-1.737,4.252c0,0-0.105,0.059-0.106,0.059
		c0.088-2.426,0.176-4.85,0.264-7.277C104.725,173.997,104.326,172.97,105.041,172.505z"/>
	<path fill-rule="evenodd" clip-rule="evenodd" fill="#19E2EB" d="M116.238,194.522c3.977,2.131,7.49,4.688,8.684,9.393
		C121.906,200.897,118.613,198.136,116.238,194.522z"/>
	<path fill-rule="evenodd" clip-rule="evenodd" fill="#16E2EB" d="M137.977,217.604c3.541,1.082,5.796,3.469,6.938,7.346
		C142.602,222.501,140.289,220.054,137.977,217.604z"/>
	<path fill-rule="evenodd" clip-rule="evenodd" fill="#1DE2EB" d="M194.036,211.298c1.504-3.301,3.436-6.125,7.413-6.682
		C199.003,206.87,197.015,209.632,194.036,211.298z"/>
	<path fill-rule="evenodd" clip-rule="evenodd" fill="#1BE2EB" d="M211.132,195.558c0.246-3.262,2.319-4.574,5.276-4.949
		C214.65,192.259,212.892,193.907,211.132,195.558z"/>
	<path fill-rule="evenodd" clip-rule="evenodd" fill="#19E2EB" d="M179.021,224.499c1.729-2.16,3.043-4.859,6.4-4.889
		c-1.771,1.639-3.544,3.277-5.315,4.916C179.745,224.517,179.383,224.509,179.021,224.499z"/>
	<path fill-rule="evenodd" clip-rule="evenodd" fill="#2EE5ED" d="M251.12,158.558c0.174-3.096,2.302-4.298,4.895-5.049
		C255.02,155.81,252.896,157.015,251.12,158.558z"/>
	<path fill-rule="evenodd" clip-rule="evenodd" fill="#13DEE7" d="M103.89,181.7c1.848-1.248,0.66-3.389,2.038-6.205
		c0,3.609,0,6.01,0,8.41C105.248,183.171,104.568,182.435,103.89,181.7z"/>
	<path fill-rule="evenodd" clip-rule="evenodd" fill="#30E5ED" d="M236.105,172.548c-0.151-3.023,1.844-3.711,4.273-3.93
		C238.955,169.929,237.53,171.237,236.105,172.548z"/>
	<path fill-rule="evenodd" clip-rule="evenodd" fill="#29E4ED" d="M95.975,173.618c2.593-0.58,2.729,1.295,3.018,3.02
		C97.986,175.63,96.98,174.624,95.975,173.618z"/>
	<path fill-rule="evenodd" clip-rule="evenodd" fill="#29E4ED" d="M76.981,153.613c2.595-0.578,2.72,1.308,3.015,3.024
		C78.99,155.63,77.986,154.621,76.981,153.613z"/>
	<path fill-rule="evenodd" clip-rule="evenodd" fill="#2EE5ED" d="M100.051,125.541c-0.006-0.33-0.006-0.659,0.001-0.989
		c-2.087-4.728-1.111-9.866-1.731-14.782c-1.642-13.011-2.246-26.153-3.264-39.242c11.482,0.842,20.943,6.855,30.721,12.043
		c3.078,1.633,6.148,3.262,9.363,4.625c5.944,2.521,7.676,6.126,7.933,12.628c0.438,11.122-0.642,22.32,0.614,33.318
		c0.737,6.462,1.297,12.705,0.452,19.121c-0.245,1.865-0.324,3.657-2.188,4.7c-4.521,0.816-6.727-3.089-9.534-5.197
		c-8.165-6.134-15.884-12.865-23.936-19.163c-0.382-0.268-0.733-0.574-1.069-0.895c-1.614-1.534-3.124-3.192-5.092-4.298
		c-0.396-0.119-0.779-0.278-1.152-0.456C100.666,126.59,100.475,125.973,100.051,125.541z"/>
	<path fill-rule="evenodd" clip-rule="evenodd" fill="#2BE5ED" d="M141.01,156.515c1.842-0.832,2.221-2.325,1.864-4.144
		c-0.46-2.344,0.135-4.598,0.659-6.836c0.658-2.82,1.027-5.528-0.857-8.101c-1.059-1.444-0.576-3.221-0.645-4.863
		c-0.445-10.617-0.818-21.373-0.252-31.837c0.482-8.932-4.186-10.591-9.891-13.375c-4.736-2.312-8.952-5.864-13.844-7.64
		c-6.145-2.229-12.043-4.913-17.776-7.913c-2.751-1.439-3.325-0.565-3.541,2.096c-1.058-1.217-0.387-2.748-1.671-3.375
		c0.281-4.709-1.686-9.256-1.006-13.995c3.812-1.669,6.522,1.772,9.902,2.124c2.071,1.252,4.998,1.566,5.305,4.775
		c-0.883,1.054-2.105,1.129-3.18,0.66c-3.052-1.334-6.309-1.717-9.252-2.043c9.896,9.814,23.903,12.936,35.952,19.614
		c3.88,2.15,8.438,3.23,10.955,7.389c0.486,1.39,1.323,2.611,1.915,3.958c0.148,0.51,0.223,1.028,0.248,1.556
		c1.24,9.796,0.246,19.626,0.619,28.622c0.184-8.725-0.111-18.268,0.135-27.816c0.127-1.555,0.146-3.153,1.777-4.038
		c1.698,0.693,1.91,2.235,1.909,3.719c-0.023,22.355,0.524,44.713-0.261,67.059c-0.199,0.439-0.328,1.141-0.752,1.217
		C146.57,163.827,141.697,159.786,141.01,156.515z"/>
	<path fill-rule="evenodd" clip-rule="evenodd" fill="#3CE6EE" d="M104.031,59.521c-3.68,0.18-6.542-2.369-9.981-2.99
		c-0.017-0.344-0.034-0.688-0.053-1.033c0.001-1.656,0.003-3.311,0.004-4.966c-0.554-0.677-0.595-1.348,0.021-2.012
		c0.33-0.341,0.66-0.682,0.99-1.022c3.708,2.776,7.148,5.882,10.824,8.707c0.748,1.032,2.023,2.068,0.883,3.409
		C106.037,60.416,104.915,60.118,104.031,59.521z"/>
	<path fill-rule="evenodd" clip-rule="evenodd" fill="#3EE6EE" d="M236.037,72.525c3.321,1.464,4.214,3.993,4.06,7.552
		c-0.286,6.599-0.107,13.219-0.073,19.831c0.023,4.494-1.45,8.858-1.021,13.399c0.163,1.735-0.312,3.59,2.014,4.217
		c0.643,1.158-0.478,1.425-1.006,1.991c-1.203,1.16-2.301,2.459-3.974,2.996c-1.364,0.731-2.327,2.081-3.877,2.532
		c-1.19,0.398-1.727,2.493-3.511,1.35c-0.592-0.83-0.729-1.779-0.737-2.764c0.008-0.729,0.124-1.443,0.301-2.148
		c0.447-1.359,0.559-2.765,0.549-4.189c0.014-1.207,0.111-2.403,0.393-3.579c0.452-1.375,0.588-2.798,0.617-4.238
		c0.038-0.973,0.166-1.934,0.395-2.879c0.462-1.384,0.566-2.818,0.552-4.266c0.025-1.462,0.049-2.925,0.391-4.358
		c0.314-1.145,0.617-2.293,0.659-3.494c0.064-0.947,0.194-1.884,0.429-2.804c0.339-1.124,0.543-2.271,0.558-3.452
		c0.038-1.2,0.132-2.393,0.414-3.563c0.458-1.389,0.565-2.828,0.597-4.279c0.039-1.002,0.169-1.99,0.401-2.965
		C234.812,75.793,234.522,73.811,236.037,72.525z"/>
	<path fill-rule="evenodd" clip-rule="evenodd" fill="#31E5ED" d="M267.012,46.521c1.18,2.297-0.246,3.835-1.715,5.16
		c-2.705,2.44-3.374,5.43-3.332,8.939c0.13,10.601,0.097,21.205,0.017,31.807c-0.023,3.209,0.862,6.649-2.101,9.328
		c-0.687,0.621,0.378,1.386,1.132,1.761c-0.332,0.334-0.665,0.667-0.998,1.001c-2.307,0.093-2.922-0.21-2.839-3.23
		c0.354-12.944-0.392-25.918-0.02-38.862C257.351,55.638,261.025,50.153,267.012,46.521z"/>
	<path fill-rule="evenodd" clip-rule="evenodd" fill="#40E7EF" d="M224.013,153.502c0.337-3.662,0.674-7.323,1.012-10.985
		c2.471,4.062,0.111,7.987-0.338,11.967c-0.129-0.024-0.343-0.01-0.374-0.078C224.183,154.118,224.107,153.806,224.013,153.502z"/>
	<path fill-rule="evenodd" clip-rule="evenodd" fill="#42E7EF" d="M221.011,177.505c0.34-3.664-0.838-7.467,1.01-10.994
		C224.035,170.392,221.989,173.899,221.011,177.505z"/>
	<path fill-rule="evenodd" clip-rule="evenodd" fill="#52E9F0" d="M229.02,126.515c0.999-0.667,1.998-1.334,2.997-2
		c0.346,0.224,0.463,0.449,0.351,0.677s-0.226,0.344-0.34,0.344c-1.084,2.245-3.542,3.104-5.007,4.965
		c-0.304-0.028-0.608-0.049-0.913-0.062c-0.352-0.319-0.543-0.715-0.575-1.189C225.976,127.423,227.167,126.546,229.02,126.515z"/>
	<path fill-rule="evenodd" clip-rule="evenodd" fill="#42E7EF" d="M220.012,182.497c0.247-1.684-0.655-3.598,1.001-4.998
		c0.901,2.076-0.104,4.049-0.328,6.062c-0.144-0.041-0.377-0.043-0.412-0.129C220.148,183.136,220.093,182.812,220.012,182.497z"/>
	<path fill-rule="evenodd" clip-rule="evenodd" fill="#53E9F0" d="M232.027,125.537c-0.004-0.341-0.008-0.681-0.011-1.021
		c1.385-0.578,2.272-2.153,4.02-2.006C235.145,124.107,234.035,125.417,232.027,125.537z"/>
	<path fill-rule="evenodd" clip-rule="evenodd" fill="#4DE9F0" d="M249.015,111.524c0.667-0.006,1.334-0.012,2.001-0.018
		c-0.874,1.617-1.983,2.92-4.004,3.014C247.68,113.521,248.347,112.523,249.015,111.524z"/>
	<path fill-rule="evenodd" clip-rule="evenodd" fill="#4CE9F0" d="M251.008,111.512c0.881-1.607,1.984-2.917,4.006-3.002
		C254.136,110.122,253.036,111.437,251.008,111.512z"/>
	<path fill-rule="evenodd" clip-rule="evenodd" fill="#50E9F0" d="M240.01,119.514c0.335-0.664,0.671-1.328,1.006-1.991
		c1.002-0.338,2.004-0.674,3.006-1.012C243.14,118.121,242.039,119.438,240.01,119.514z"/>
	<path fill-rule="evenodd" clip-rule="evenodd" fill="#29E4ED" d="M103.043,149.506c2.189,0.709,2.027,3.877,4.58,4.338
		c1.118-2.762-2.836-3.951-2.027-6.8c6.76,5.832,5.254,13.483,4.678,20.638c-0.404,5.01-3.648-0.809-5.226,0.826
		c-0.976-1.016-0.081-2.471-0.783-3.455c0.312,1.129,0.569,2.334-0.263,3.473c-1.612-1.436-0.748-3.342-0.957-5.043
		c1.293-2.59-0.176-5.492,0.693-8.162c-0.48,0.987,0.141,2.312-0.721,3.197c-1.882-2.126-0.619-4.688-0.977-7.025
		C102.721,151.005,102.326,149.976,103.043,149.506z"/>
	<path fill-rule="evenodd" clip-rule="evenodd" fill="#15E0E9" d="M103.043,149.506c-0.033,0.814-0.188,1.567-1.002,1.987
		c-0.663-8.651-1.326-17.303-1.99-25.954c0.34,0.321,0.678,0.642,1.017,0.963c3.331,4.461,2.481,9.211,0.966,14.007
		C103.703,143.359,102.8,146.497,103.043,149.506z"/>
	<path fill-rule="evenodd" clip-rule="evenodd" fill="#13DEE7" d="M104.002,168.526c0.076-1.053,0.152-2.105,0.251-3.455
		c1.142,1.24,0.632,2.395,0.794,3.438c-0.002,1.332-0.004,2.662-0.006,3.996c-0.033,0.809-0.184,1.559-0.994,1.979
		C104.031,172.497,104.017,170.511,104.002,168.526z"/>
	<path fill-rule="evenodd" clip-rule="evenodd" fill="#13DEE7" d="M103.018,158.519c0-1.268,0-2.534,0-3.801
		c0.642,2.949,1.909,5.916,0.027,8.766C103.035,161.829,103.027,160.173,103.018,158.519z"/>
	<path fill-rule="evenodd" clip-rule="evenodd" fill="#2DE5ED" d="M177.022,211.501c-2-1.334-4-2.666-6-4v0.002
		c-1.91-2.408-2.299-6.285-6.886-6.01c-2.113,0.127-1.085-2.783-2.11-3.992c-0.106-7.008-1.651-13.949-1.005-20.994
		c2.806,0.523,2.072,2.924,2.414,4.689c0.471,2.428,0.618,4.898,0.646,7.369c0.056-5.719,0.795-11.342,2.306-16.869
		c1.384-2.053,3.23-2.98,5.712-2.354c1.362,4.746,0.179,9.477-0.284,14.178c-0.489,4.982-0.934,9.932,0.392,14.812
		c0.891,3.281,2.354,6.508,6.093,7.186c3.851,0.699,5.935-2.066,7.877-4.936c6.596-9.746,7.117-19.238,2.105-27.473
		c-2.627-4.314-6.591-5.125-10.814-5.99c-0.493-0.293-0.711-0.725-0.658-1.295c2.208-2.443,4.205-5.291,8.211-4.324
		c1.337,1.467,2.505,3.146,4.041,4.365c7.363,5.842,10.756,19.338,6.327,27.645c-2.129,3.994-3.398,8.305-6.411,12.086
		C185.594,209.841,182.155,211.827,177.022,211.501z"/>
	<path fill-rule="evenodd" clip-rule="evenodd" fill="#16DFE8" d="M219.02,135.517c-8.028,6.414-15.89,13.06-24.982,17.998
		c-0.402,0.404-0.795,0.376-1.182-0.022c-0.002-0.163-0.077-0.404,0.004-0.482c7.794-7.509,16.198-14.167,26.13-18.691
		c0.295,0.259,0.396,0.522,0.308,0.791C219.207,135.381,219.115,135.517,219.02,135.517z"/>
	<path fill-rule="evenodd" clip-rule="evenodd" fill="#17E1EA" d="M185.021,161.501c-3.156,0.355-4.84,3.652-7.999,4.002
		c-0.08-0.203-0.159-0.406-0.241-0.611c0.587-2.664,2.947-3.633,4.824-5.066c1.662-0.979,3.068-2.459,5.133-2.666
		c0.697,0.195,1.126,0.646,1.287,1.352C187.022,159.507,186.021,160.505,185.021,161.501z"/>
	<path fill-rule="evenodd" clip-rule="evenodd" fill="#16DEE7" d="M219.02,135.517c-0.001-0.336-0.001-0.671-0.002-1.007
		c1.026-3.502,3.359-5.175,7.009-5.006c0.021,0.312,0.048,0.625,0.08,0.936C223.884,132.325,221.788,134.391,219.02,135.517z"/>
	<path fill-rule="evenodd" clip-rule="evenodd" fill="#15DDE6" d="M188.024,158.511c-0.335-0.334-0.669-0.666-1.003-1
		c0.055-0.699,0.387-1.266,0.835-1.781c1.504-1.239,2.768-3.052,5.164-2.222c0.338,0.002,0.678,0.004,1.017,0.007
		C192.77,156.066,190.074,156.899,188.024,158.511z"/>
	<path fill-rule="evenodd" clip-rule="evenodd" fill="#29E5ED" d="M102.033,140.51c0.347-4.715-0.365-9.357-0.966-14.007
		c0.31,0.002,0.62,0.002,0.931,0.002c2.275,1.353,3.844,3.559,6.041,5.007l-0.012-0.008c6.397,5.324,12.825,10.61,19.246,15.904
		c0.639,0.526,1.161,1.167,0.74,2.102c-1.998,0.253-3.243,1.125-3.572,3.345c-0.303,2.051-2.179,1.717-3.581,1.574
		c-2.028-0.206-0.757-1.719-0.858-2.675c-0.383-3.611-0.514-7.096-6.04-5.515c-3.16,0.904-2.124-2.512-2.833-4.042
		c-0.627-1.351,0.636-4.424-1.291-4.02C107.275,138.715,103.466,136.199,102.033,140.51z"/>
	<path fill-rule="evenodd" clip-rule="evenodd" fill="#14DCE5" d="M128.014,149.51c-5.358-4.534-10.755-9.023-16.048-13.63
		c-1.47-1.279-2.634-2.908-3.938-4.376c5.04,2.278,8.774,6.34,13.072,9.625c6.664,5.093,12.578,11.155,19.91,15.386
		c1.555,3.609,5.27,4.752,8.004,7.014c0.468,0.191,0.789,0.529,0.98,0.994c-0.416,0.807-1.156,0.965-1.967,0.982
		c-2.981-3.105-6.396-5.668-10.002-7.992c-1.332-1.002-2.662-2.004-3.994-3.006c-1.591-1.427-3.628-2.291-5.004-3.987
		C128.689,150.183,128.352,149.847,128.014,149.51z"/>
	<path fill-rule="evenodd" clip-rule="evenodd" fill="#29E5ED" d="M129.027,150.52c1.988,0.927,4.001,1.823,5.004,3.987
		C131.766,153.928,129.763,153.02,129.027,150.52z"/>
	<path fill-rule="evenodd" clip-rule="evenodd" fill="#2EE5ED" d="M209.023,33.521c2.296,2.983,6.072,1.71,8.96,3.058
		c0.67,0.312,1.548,0.206,2.032,0.972c0.337,0.349,0.557,0.76,0.663,1.233c-1.153,3.506-4.242,3.074-6.952,3.426
		c-1.108-0.293-2.215-0.786-3.352-0.098c-11.347,6.873-24.085,10.77-35.852,16.751c-1.971,1.002-3.816,1.979-4.704,4.131
		c-0.64,1.036-1.809,1.889-1.134,3.37c0.18,0.393,0.326,0.792,0.472,1.194c0.553,2.302,1.28,4.51,3.156,6.124
		c0.879,1.067,2.028,1.219,3.307,0.958c0.466-0.042,0.92-0.033,1.382,0.003c3.675-0.03,7.102-1.162,10.524-2.296
		c2.195-0.728,4.375-1.619,6.561,0.013c0.227,2.506-1.88,2.792-3.436,3.381c-3.35,1.268-6.751,2.409-10.189,3.425
		c-0.723,0.176-1.455,0.206-2.189,0.113c-3.005-0.124-5.893-1.965-9.002-0.623c-0.396,0.191-0.785,0.168-1.122-0.036
		c-0.181-0.191-0.354-0.337-0.485-0.407c0.182,0.16,0.344,0.36,0.5,0.642c-0.245,1.57-1.733,1.8-2.679,2.612
		c-1.795,1.143-3.562,2.753-5.613,0.43c-0.191-0.421-0.188-0.844,0.022-1.237c0.062-0.321,0.716-0.249,0.558-0.768
		c-0.157,0.443-0.536,0.648-0.943,0.857c-1.735-1.705-3.397-3.444-4.352-5.723c2.084-3.572-1.314-5.201-2.68-7.551
		c0.051-0.479,0.25-0.892,0.572-1.248c1.635-0.866,2.743,0.542,4.193,0.66c-4.266-1.51-8.272-3.626-12.38-5.529
		c-2.157-0.816-4.134-2.032-6.289-2.855c-3.692-1.553-7.101-3.719-10.907-5.024c-4.275-2.104-8.557-4.191-12.977-5.982
		c-3.766-2.518-8.881-2.793-11.641-6.983c-1.184-3.186,1.688-2.705,3.071-3.092c13.229-3.702,26.491-7.278,39.751-10.871
		c4.152-1.125,8.356-2.076,12.467-3.339c1.403-0.431,3.56-0.274,3.66-2.668c2.164-0.403,4.085,0.69,6.135,0.996
		c6.062,0.286,11.406,3.426,17.313,4.335c3.625,0.74,7.093,2.061,10.713,2.821C200.312,30.665,205.269,30.497,209.023,33.521z"/>
	<path fill-rule="evenodd" clip-rule="evenodd" fill="#63EBF2" d="M103.049,40.513c3.996,2,7.994,3.999,11.99,5.997
		c0.258,1.525-0.879,1.667-1.9,1.927c-5.426-1.451-10.5-3.682-15.113-6.919c-1.434-0.006-2.434-0.668-2.997-1.986
		c1.396-1.625,3.608,0.868,4.96-0.981C101.074,39.103,101.486,40.705,103.049,40.513z"/>
	<path fill-rule="evenodd" clip-rule="evenodd" fill="#7AEEF3" d="M89.016,36.543c-3.998-1.668-7.996-3.337-11.994-5.006
		c-0.012-1.703,0.834-1.709,2.029-1.026c4.174,1.252,8.39,2.402,12.003,4.999C90.602,36.302,89.841,36.486,89.016,36.543z"/>
	<path fill-rule="evenodd" clip-rule="evenodd" fill="#65ECF2" d="M72.029,29.532c-3.955-0.532-6.794-4.116-10.98-4.014
		c0.746-0.645-2.174-3.286,1.041-2.353c3.754,1.09,7.309,2.873,10.949,4.355C72.457,28.067,72.248,28.803,72.029,29.532z"/>
	<path fill-rule="evenodd" clip-rule="evenodd" fill="#88F0F4" d="M89.016,36.543c0.437-0.821,1.201-0.998,2.038-1.034
		c2.979,1.014,5.958,2.027,8.936,3.042c-0.921,4.037-3.351,0.437-4.961,0.981C93.023,38.536,91.02,37.539,89.016,36.543z"/>
	<path fill-rule="evenodd" clip-rule="evenodd" fill="#71EDF3" d="M72.029,29.532c-0.498-1.09-0.765-2.062,1.01-2.012
		c1.904,1.195,4.498,1.007,6.012,2.99c-0.834,0.032-1.592,0.213-2.029,1.026C75.275,31.075,73.419,30.884,72.029,29.532z"/>
	<path fill-rule="evenodd" clip-rule="evenodd" fill="#28E4EC" d="M156.044,19.509c2.374-1.848,4.124-0.097,5.98,1.038
		C159.913,20.88,158.037,19.854,156.044,19.509z"/>
	<path fill-rule="evenodd" clip-rule="evenodd" fill="#2DE4ED" d="M140.037,14.517c2.062-1.575,3.445,0.124,4.99,1.038
		C143.275,15.632,141.574,15.466,140.037,14.517z"/>
	<path fill-rule="evenodd" clip-rule="evenodd" fill="#061B28" d="M178.022,280.295c0-8.803,0-8.803,8.75-8.803
		c2.163,0,4.33-0.092,6.486,0.021c5.209,0.273,8.62,3.537,8.761,8.26c0.147,4.959-3.274,9.285-8.159,9.639
		c-4.467,0.324-8.979-0.016-13.468,0.111c-2.147,0.062-2.463-0.99-2.391-2.74C178.091,284.624,178.023,282.458,178.022,280.295z"/>
	<path fill-rule="evenodd" clip-rule="evenodd" fill="#061B28" d="M16.827,301.684c2.876-8.637,5.578-16.754,8.575-25.758
		c2.758,8.242,5.172,15.484,7.611,22.721c0.582,1.729,1.1,3.168-1.768,3.076C26.616,301.575,21.979,301.684,16.827,301.684z"/>
	<path fill-rule="evenodd" clip-rule="evenodd" fill="#061B28" d="M309.553,277.667c2.401,7.164,4.799,14.328,7.206,21.49
		c0.526,1.568,0.323,2.611-1.658,2.518c-0.497-0.025-0.997-0.01-1.495,0.004c-13.396,0.391-13.4,0.391-9.181-12.193
		c1.313-3.918,2.661-7.824,3.992-11.734C308.795,277.723,309.174,277.694,309.553,277.667z"/>
	<path fill-rule="evenodd" clip-rule="evenodd" fill="#52E9F0" d="M209.023,33.521c-4.508-0.762-8.984-1.628-13.016-3.956
		c-2.583-5.525-2.031-10.853,1.008-16.025c4.334-1.004,8.669-2.008,13.003-3.011c-0.012,7.591-0.021,15.181-0.077,22.771
		C209.941,33.375,209.343,33.447,209.023,33.521z"/>
	<path fill-rule="evenodd" clip-rule="evenodd" fill="#58EAF1" d="M197.016,13.54c-1.132,5.292-1.04,10.66-1.008,16.025
		c-3.925-0.062-7.433-1.624-10.979-3.047c-0.914-2.933,0.857-6.163-0.999-8.99C188.056,15.215,192.861,15.437,197.016,13.54z"/>
	<path fill-rule="evenodd" clip-rule="evenodd" fill="#5FEBF1" d="M184.029,17.528c0.88,0.129,2.556-0.176,2.228,1.025
		c-0.721,2.636,0.869,5.599-1.229,7.965c-5.883-0.812-11.563-2.307-16.896-4.98C173.379,19.99,178.527,18.059,184.029,17.528z"/>
	<path fill-rule="evenodd" clip-rule="evenodd" fill="#2EE5ED" d="M193.021,153.508c-1.668,0.999-3.336,1.999-5.003,2.997
		c-4.794,0.428-4.123-3.342-4.197-5.964c-0.211-7.439,0.467-14.914,1.163-22.27c0.801-8.471,0.426-16.881,0.691-25.311
		c0.226-7.183,2.604-13.177,9.418-16.247c5.288-2.382,10.441-5.124,15.796-7.243c7.251-2.868,14.062-6.499,20.939-10.062
		c1.728-0.896,3.639-2.461,4.187,1.108c0.007,0.67,0.015,1.339,0.021,2.009c-0.242,1.684,0.615,3.582-0.969,5.007
		c-1.032,0.956-0.612,1.945-0.068,2.937c-0.101,1.402,0.462,2.957-0.931,4.063c-1.194,1.281-0.665,2.597-0.079,3.915
		c0.003,1.12,0.208,2.3-0.914,3.086c-1.174,0.828-0.271,2.061-0.595,3.059c-0.153,1.12-0.664,2.13-0.952,3.206
		c0.17,1.554-0.524,3.192,0.468,4.662c-0.099,1.404,0.466,2.962-0.937,4.065c-1.016,0.954-0.604,1.939-0.065,2.928
		c-0.095,1.407,0.469,2.966-0.934,4.075c-1.169,1.28-0.663,2.594-0.075,3.908c-0.091,1.413,0.48,2.978-0.938,4.084
		c-0.64-0.662-0.605-1.42-0.392-2.06c-0.144,1.257-0.552,2.683,0.351,4.022c0.005,1.011,0.009,2.022,0.014,3.034
		c-0.998,0.996-1.995,1.993-2.993,2.989c-2.741,1.102-4.807,3.151-7.009,5.006C210.15,140.568,201.386,146.765,193.021,153.508z"/>
	<path fill-rule="evenodd" clip-rule="evenodd" fill="#2AE5ED" d="M236.015,70.516c-0.595-1.122-1.297-2.194-2.6-0.849
		c-4.771,4.923-11.531,7.052-17.318,9.369c-6.471,2.591-12.307,6.776-19.33,8.278c-5.606,1.2-9.541,7.434-9.688,14.179
		c-0.147,6.816,1.241,13.865-0.079,20.399c-1.306,6.461-0.081,12.881-1.514,19.257c-0.884,3.93-0.403,8.205-0.241,12.313
		c0.057,1.417,0.866,2.926,2.772,3.043c-0.332,0.336-0.664,0.672-0.996,1.006c-1.666,0.998-3.333,1.996-5,2.994
		c-1.19-0.869-1.743-2.158-1.499-3.494c2.048-11.182,2.38-22.479,2.172-33.787c-0.165-8.984,1.142-17.867,1.757-26.779
		c0.452-6.554,5.091-11.83,10.933-14.593c10.847-5.131,21.286-11.152,32.719-15.013c-0.629-2.123-2.479-1.917-3.653-2.704
		c-0.008-3.364,2.85-5.217,6.407-4.057c1.5,0.488,2.703,2.037,4.556,1.186c0.48,0.007,0.838,0.221,1.075,0.636
		c0.266,1.513-0.511,3.142,0.512,4.57C236.89,67.872,237.482,69.445,236.015,70.516z"/>
	<path fill-rule="evenodd" clip-rule="evenodd" fill="#16DEE7" d="M237.981,53.54c0.014,0.323,0.035,0.646,0.064,0.968
		c-0.472,2.66,0.946,5.556-1.005,8.03c-0.611-0.055-0.65-0.676-0.99-1L236,61.528c-0.844-1.651-0.106-3.361-0.199-5.043
		c0.064-1.016,0.231-2.001,0.848-2.85C237.065,53.219,237.51,53.188,237.981,53.54z"/>
	<path fill-rule="evenodd" clip-rule="evenodd" fill="#11CAD1" d="M236.051,61.538c0.33,0.333,0.659,0.667,0.99,1
		c-0.014,1.312-0.027,2.622-0.042,3.932C235.364,65.08,236.233,63.208,236.051,61.538z"/>
	<path fill-rule="evenodd" clip-rule="evenodd" fill="#19E2EB" d="M158.514,180.206c2.895,8.602,0.311,17.451,2.496,25.85
		c0.457,1.752,0.627,3.584,1.138,5.318c0.53,1.801,1.671,2.156,3.479,1.35c1.059-0.475,1.759-3.117,3.542-0.867
		c1.162,1.467,2.683,3.238,1.671,4.902c-1.718,2.826-1.592,5.951-2.225,8.918c-0.827,3.884-4.904,3.99-6.836,6.541
		c-0.454,0.598-1.4-0.373-1.917-1.07c-1.497-2.018-2.872-4.007-2.861-6.73c0.058-13.654,0.021-27.309,0.038-40.963
		C157.039,182.331,156.83,181.073,158.514,180.206z"/>
	<path fill-rule="evenodd" clip-rule="evenodd" fill="#38E6EE" d="M167.024,171.505c-0.732,6.379-1.466,12.756-2.317,20.172
		c-3.176-5.297-1.531-10.713-3.686-15.17c-1.399-1.334-1.4-2.67-0.002-4.006c0.886-2.465-0.823-5.037,0.299-7.498
		c1.021-2.225,0.446-6.459,3.438-6.111c2.373,0.275,1.923,4.432,2.394,6.947c0.303,1.617-0.009,3.291-0.134,4.934
		C167.022,171.017,167.023,171.261,167.024,171.505z"/>
	<path fill-rule="evenodd" clip-rule="evenodd" fill="#26E3EC" d="M162.026,197.501c1.365,1.186,1.001,3.854,4.831,2.758
		c2.688-0.771,3.817,4.078,4.165,7.244c-1.839,0.162-2.997-3.559-5.425-0.785c-0.941,1.074-1.532-0.479-2.048-1.207
		C161.824,203.073,161.945,200.284,162.026,197.501z"/>
	<path fill-rule="evenodd" clip-rule="evenodd" fill="#2DE5ED" d="M162.025,165.509c-0.931,2.246,1.995,5.045-1.006,6.992
		c-0.002-0.334-0.002-0.668-0.004-1.002c-0.355-0.424-0.65-0.885-0.89-1.383c-0.296-2.166-1.044-4.457,1.589-5.822
		C162.378,164.556,162.481,164.96,162.025,165.509z"/>
	<path fill-rule="evenodd" clip-rule="evenodd" fill="#16E2EB" d="M161.02,170.509c0.004,0.33,0.002,0.66-0.004,0.99
		c-1.454,0.166-2.748-0.318-3.994-0.99h-0.004C158.352,167.286,159.686,169.651,161.02,170.509z"/>
	<path fill-rule="evenodd" clip-rule="evenodd" fill="#3DE7EE" d="M214.019,41.524c2.052-0.902,4.696-0.623,5.999-3.015
		c1.668-1.533,3.317,1.641,4.985,0.019c1.287,0.022,1.971,0.659,2,1.963c-0.429,0.972-1.242,1.568-2.076,2.149
		c-14.742,6.468-29.788,12.195-44.736,18.161c-1.254,0.501-2.538,0.824-3.85,0.162c-1.222-2.895,1.301-3.251,2.89-3.959
		c9.787-4.36,19.704-8.422,29.441-12.904C210.472,43.271,212.104,42.099,214.019,41.524z"/>
	<path fill-rule="evenodd" clip-rule="evenodd" fill="#7BEEF3" d="M230.003,39.509c5.328-2,10.656-4.002,15.983-6.003
		c1.131-0.81,1.86-0.449,2.292,0.783c-2.468,3.871-6.909,4.334-10.577,6.135c-1.797,0.498-3.549,1.167-5.377,1.577
		c-0.474,0.058-0.937,0.007-1.39-0.139C230.113,41.282,229.553,40.594,230.003,39.509z"/>
	<path fill-rule="evenodd" clip-rule="evenodd" fill="#72EDF3" d="M248.012,34.517c-0.438-0.812-1.2-0.972-2.024-1.01
		c0.016-0.326,0.029-0.652,0.042-0.978c3.534-0.828,6.879-2.132,9.999-3.998c1.325-0.339,2.651-0.677,3.978-1.016
		c1.262-0.44,2.673-1.322,3.007,1.008c-0.337,0.329-0.675,0.659-1.012,0.989c-3.453,2.972-7.735,4.197-11.911,5.653
		C249.306,35.243,248.588,35.101,248.012,34.517z"/>
	<path fill-rule="evenodd" clip-rule="evenodd" fill="#6FEDF2" d="M230.003,39.509c0.341,0.653,0.683,1.308,1.023,1.962
		c-0.122,0.704-0.535,1.174-1.178,1.458c-0.433,0.092-0.867,0.1-1.305,0.038c-1.237-0.324-2.614-0.319-3.525-1.445
		c0.427-0.795,1.186-0.952,1.984-1.032C228.003,40.164,229.002,39.836,230.003,39.509z"/>
	<path fill-rule="evenodd" clip-rule="evenodd" fill="#1FE1EA" d="M225.003,38.528c-1.67,2.191-3.322-0.262-4.985-0.019
		c0.002-0.32,0.001-0.639-0.002-0.958C221.678,37.877,223.341,38.203,225.003,38.528z"/>
	<path fill-rule="evenodd" clip-rule="evenodd" fill="#2CE5ED" d="M98.025,41.518c5.365,1.088,9.906,4.232,14.993,6.011
		c5.099,0.619,9.257,3.649,13.905,5.419c3.486,1.406,6.728,3.331,10.173,4.826c2.083,1.03,4.078,2.239,6.283,3.018
		c3.256,1.843,7.437,2.135,9.644,5.737c0,0.33,0,0.661,0,0.991c-1.725,2.131-3.429,0.967-5.324,0.149
		c-11.108-4.789-22.378-9.202-33.158-14.74c-3.205-1.647-6.655-2.738-10.831-2.64c1.165,2.983,3.417,3.649,5.489,4.531
		c11.513,5.686,22.521,12.338,34.291,17.549c2.928,1.296,7.316,1.642,7.393,6.483c-0.924,0.575-1.947,0.624-2.861,0.178
		c-14.546-7.092-29.963-12.522-42.991-22.509c-3.943-2.337-7.778-4.794-10.019-9.022C95.16,45.074,96.891,43.445,98.025,41.518z"/>
	<path fill-rule="evenodd" clip-rule="evenodd" fill="#5AEAF1" d="M94.021,48.521c-0.006,0.67-0.014,1.341-0.02,2.012
		c-9.721-4.921-19.422-9.882-29.176-14.736c-2.461-1.224-5.058-2.844-7.65-2.961c-3.17-0.144-1.787-1.953-2.032-3.267
		C69.212,33.614,81.442,41.425,94.021,48.521z"/>
	<path fill-rule="evenodd" clip-rule="evenodd" fill="#35E6EE" d="M105.03,56.522c3.741,0.457,6.726,2.89,9.677,4.681
		c8.34,5.061,16.948,9.402,26.094,12.694c3.544,1.275,6.213,4.43,10.227,4.619c4.594-0.799,7.706,1.77,8.213,7.229
		c0.476,5.138,0.669,10.377,0.041,15.463c-1.601,12.955-0.734,25.929-0.757,38.886c-0.015,8.66-0.784,17.256-1.093,25.885
		c-0.053,1.486,0.133,3.225-2.288,2.803c-2.665-3.336-1.026-7.27-1.522-10.908c-0.061-1.264,0.12-2.5,0.39-3.727
		c1.354-9.826,0.274-19.701,0.598-29.545c0.062-13.366-0.062-26.729-0.694-40.169c-1.615,4.111-2.366,8.29-2.49,12.615
		c-0.568,19.804,0.73,39.569,1.086,59.354c0.049,2.732,0.715,5.726-1.49,8.107c-0.342,0.004-0.684,0.008-1.025,0.014
		c-0.326-0.332-0.654-0.664-0.98-0.994c0.004-22.281,0.022-44.56-0.018-66.84c-0.004-1.747,0.662-3.7-0.967-5.176
		c-0.95-1.953,0.083-4.031-0.395-6.009c-0.276-2.058-1.906-2.645-3.534-3.233c-12.186-5.331-23.746-11.819-35.069-18.751
		c-0.869-2.331-3.752-2.142-5-3.997C108.142,59.781,105.559,57.809,105.03,56.522z"/>
	<path fill-rule="evenodd" clip-rule="evenodd" fill="#21E3EC" d="M155.027,168.511c0.668-0.107,1.327-0.26,1.366-1.105
		c0.852-18.51,0.443-37.034,0.702-55.549c0.116-8.248,1.35-16.472,0.922-24.751c-0.235-4.559-1.805-8.051-6.99-8.589
		c-6.197-5.694-14.578-7.295-21.555-11.501c-6.701-4.041-14.097-6.834-20.443-11.494c-0.634-3.714,1.9-3.056,3.891-2.625
		c2.588,0.562,5.057,1.734,7.336,2.973c9.268,5.042,19.302,8.347,28.727,13.002c2.734,1.349,5.936,2.22,7.036,5.647
		c1.36,1.978,2.722,3.955,4.082,5.931l-0.009-0.007c-0.021,0.356-0.042,0.713-0.063,1.07c0.505,2.275,0.296,4.6,0.501,6.901
		c-0.094,22.099-1.428,44.175-1.079,66.273c-0.024,1.631-0.042,3.271-0.069,4.901c0.143,1.611-0.492,3.158-0.479,5.041
		c-0.043,0.395,0.442,0.023,0.434-0.02c-0.494-2.42,0.804-4.742,0.4-7.186c-0.009-1.019,0.008-2.029,0.17-3.037
		c0.165-0.823,0.486-1.557,1.158-2.098c0.607-0.123,1.096,0.062,1.471,0.554c1.045,1.865,0.87,3.847,0.562,5.841
		c-0.271,1.955-0.355,3.945-1.074,5.818c-1.812,1.756-0.673,4.004-1.004,6.006c-1.334,0.354-2.668-1.811-4.002,0
		c-0.336,0.004-0.672,0.008-1.008,0.012C154.277,170.536,154.499,169.599,155.027,168.511z"/>
	<path fill-rule="evenodd" clip-rule="evenodd" fill="#52E9F0" d="M155.028,154.509c-0.001,0.999-0.003,1.998-0.005,2.996
		c-1.078,2.654-0.262,5.426-0.516,8.133c-0.199,2.127-0.842,2.881-2.471,0.863c-0.339-0.664-0.678-1.328-1.018-1.992
		c0.467-20.427-1.533-40.807-1.106-61.245c0.132-6.312,1.153-12.534,1.118-18.832c-0.008-1.398,0.133-2.748,2-2.813
		c1.539-0.054,2.285,0.831,2.963,2.16c1.354,2.651-0.025,5.208-0.003,7.799c0.097,10.975,0.031,21.951,0.025,32.927
		c-1.105,7.206-0.187,14.461-0.522,21.684C155.365,148.962,156.012,151.784,155.028,154.509z"/>
	<path fill-rule="evenodd" clip-rule="evenodd" fill="#41E7EE" d="M152.037,166.501c2.2,0.916,1.872-0.613,2.021-1.949
		c0.264-2.354-0.939-4.92,0.965-7.047c0.001,3.668,0.003,7.336,0.004,11.006c0.013,0.824,0.193,1.564,0.983,2.01
		c-0.89,8.07-1.777,16.143-2.677,24.314c-1.885-0.512-2.243-1.809-2.186-2.809c0.447-7.635-1.215-15.15-1.213-22.764
		C149.936,167.423,151.074,167.21,152.037,166.501z"/>
	<path fill-rule="evenodd" clip-rule="evenodd" fill="#36E6EE" d="M154.02,223.253c-0.016,0.152-0.012,1.328-0.281,2.436
		c-0.253,1.033-1.094,1.773-2.187,1.668c-1.509-0.146-1.065-1.57-0.954-2.32c0.221-1.504,0.219-2.838-0.297-4.326
		c-0.523-1.512,0.168-3.424,1.654-3.645c2.013-0.303,1.989,1.703,2.06,3.195C154.046,220.923,154.02,221.587,154.02,223.253z"/>
	<path fill-rule="evenodd" clip-rule="evenodd" fill="#53E9F0" d="M250.003,34.506c3.848-2.028,7.692-4.064,11.998-4.993
		c6.414,2.936,6.509,4.223,0.868,8.762c-6.437,5.18-13.524,9.266-21.019,12.66c-1.144,0.518-2.567,0.416-3.861,0.601
		c-0.995,0.168-1.244-0.332-1.084-1.204c0.997-1.401,2.419-2.243,4.013-2.688c5.769-1.607,9.841-5.636,14.303-9.547
		c-1.313-1.247-2.713-0.336-3.845-0.776C250.026,36.796,248.891,36.212,250.003,34.506z"/>
	<path fill-rule="evenodd" clip-rule="evenodd" fill="#5FEBF1" d="M263.013,28.524c-0.717-1.188-1.908-0.959-3.007-1.008
		c2.004-0.996,4.009-1.993,6.014-2.989c1.445,0.141,2.735-0.337,3.981-0.994c0.991,1.811,0.168,2.566-1.585,3.056
		C266.579,27.104,264.812,27.869,263.013,28.524z"/>
	<path fill-rule="evenodd" clip-rule="evenodd" fill="#27E4EC" d="M237.081,50.507c0.303,0.342,0.605,0.685,0.908,1.029
		c-0.002,0.668-0.005,1.336-0.007,2.004c-0.001,0-0.477-0.01-0.477-0.01h-0.477c-0.684-0.111-1.166-0.505-1.517-1.086
		c-0.268-0.615-0.346-1.257-0.258-1.92c0.104-0.433,0.306-0.815,0.596-1.152c0.415-0.184,0.834-0.187,1.252-0.01
		C237.385,49.749,237.378,50.13,237.081,50.507z"/>
	<path fill-rule="evenodd" clip-rule="evenodd" fill="#14DCE5" d="M108.039,131.512c-3.009-0.469-4.395-2.896-6.041-5.007
		C105.022,126.954,106.635,129.108,108.039,131.512z"/>
	<path fill-rule="evenodd" clip-rule="evenodd" fill="#26E3EC" d="M109.031,63.518c3.525-0.062,6.504,1.79,9.031,3.668
		c8.295,6.164,18.172,9.205,26.965,14.333c1.385,0.927,2.578,2.113,3.996,2.997c-0.062,2.37,0.391,4.814-0.994,6.995
		c-0.001,1.335-0.002,2.668-0.004,4.003c-2.086,0.962-2.978,0.132-3-2c0-0.333,0.001-0.667,0.001-1
		c-1.005-0.774-1.169-2.108-1.999-3c-6.283-6.254-14.912-8.222-22.439-12.191c-6.426-3.388-13.278-5.987-19.602-9.539
		c-2.473-1.39-4.018-4.43-5.947-6.676C100.196,59.835,104.393,62.843,109.031,63.518z"/>
	<path fill-rule="evenodd" clip-rule="evenodd" fill="#27E3EC" d="M145.025,93.515c0.56,1.327,1.558,1.996,3,2
		c-0.31,10.239,0.654,20.501-0.559,30.718c-0.078,0.659-0.932,1.227-2.44,1.405c0-6.359,0-12.719,0-19.079
		C145.026,103.544,145.025,98.529,145.025,93.515z"/>
	<path fill-rule="evenodd" clip-rule="evenodd" fill="#27E3EC" d="M143.027,89.516c1.327,0.558,1.996,1.557,1.999,3
		C142.998,92.424,143.012,90.97,143.027,89.516z"/>
	<path fill-rule="evenodd" clip-rule="evenodd" fill="#12CCD4" d="M233.989,88.447c-1.542-1.306-1.262-3.196-0.763-4.59
		c0.366-1.023,0.603,0.314,0.842,0.676C234.042,85.836,234.016,87.142,233.989,88.447z"/>
	<path fill-rule="evenodd" clip-rule="evenodd" fill="#12CCD4" d="M229.985,117.435c-1.545-1.307-1.252-3.202-0.755-4.593
		c0.362-1.016,0.592,0.326,0.83,0.684C230.035,114.83,230.011,116.133,229.985,117.435z"/>
	<path fill-rule="evenodd" clip-rule="evenodd" fill="#12CBD3" d="M230.994,109.453c-1.282-0.853-0.94-2.174-0.945-3.379
		c-0.002-0.472,0.254-0.852,0.751-0.419c0.192,0.168,0.179,0.573,0.26,0.87C231.038,107.501,231.016,108.477,230.994,109.453z"/>
	<path fill-rule="evenodd" clip-rule="evenodd" fill="#12CCD4" d="M231.996,102.459c-1.649-1.382-0.742-3.265-0.965-4.927
		c0.334-0.358,0.669-0.36,1.007-0.006C232.024,99.171,232.01,100.815,231.996,102.459z"/>
	<path fill-rule="evenodd" clip-rule="evenodd" fill="#19E0E9" d="M232.038,97.527c-0.336,0.002-0.672,0.004-1.007,0.006
		c0.335-1.014,0.67-2.027,1.005-3.04c0.312-0.441,0.625-0.422,0.94-0.003C232.985,95.601,233.191,96.774,232.038,97.527z"/>
	<path fill-rule="evenodd" clip-rule="evenodd" fill="#12CCD5" d="M229.006,123.481c-1.412-1.162-1.077-2.607-0.713-4.112
		c1.036,0.497,0.594,1.424,0.753,2.15C229.033,122.173,229.02,122.827,229.006,123.481z"/>
	<path fill-rule="evenodd" clip-rule="evenodd" fill="#12CED6" d="M232.977,94.49l-0.471,0.01l-0.471-0.007
		c-0.004-1.104-0.324-2.334,0.057-3.284c0.699-1.741,0.729-0.084,0.982,0.324C233.042,92.519,233.009,93.503,232.977,94.49z"/>
	<path fill-rule="evenodd" clip-rule="evenodd" fill="#12CDD5" d="M234.999,80.469c-1.279-0.854-0.952-2.174-0.952-3.381
		c0-0.471,0.253-0.856,0.754-0.426c0.194,0.167,0.183,0.572,0.266,0.87C235.044,78.511,235.021,79.49,234.999,80.469z"/>
	<path fill-rule="evenodd" clip-rule="evenodd" fill="#42E7EF" d="M177.022,166.505c11.135,0.01,18.458,10.752,15.798,23.127
		c-1.215,5.654-4.111,10.572-7.658,14.875c-4.46,5.408-11.77,2.959-14.017-4.469c-0.708-2.344-1.231-4.766-1.172-7.328
		c0.184-7.781,1.004-15.492,2.068-23.188C173.069,167.472,174.511,166.106,177.022,166.505z"/>
	<path fill-rule="evenodd" clip-rule="evenodd" fill="#1BE2EB" d="M177.022,166.505c-1.661,1.006-3.32,2.012-4.98,3.016
		c-1.673,0.662-3.345,1.322-5.018,1.984l0,0c-0.981-1.467-0.077-2.469,0.849-3.469c3.242-0.139,5.259-4.738,9.152-2.529
		l-0.004-0.004C177.021,165.837,177.021,166.171,177.022,166.505z"/>
	<path fill-rule="evenodd" clip-rule="evenodd" fill="#27E3EC" d="M177.025,165.507c-3.529-0.586-5.26,4.227-9.004,2.998
		c-2.969-5.908-3.496-12.255-3.39-18.718c0.009-1.754,0.015-3.509,0.009-5.264c0.056-1.987-0.244-4.039,1.002-5.816
		c3.313-0.34,2.546,2.351,2.633,3.951c0.286,5.265-0.152,10.561,0.249,15.816c0.159,2.074-0.619,5.502,3.569,4.924
		c5.195-2.094,7.31-6.602,7.345-11.519c0.071-10.123,0.518-20.249,0.869-30.341c0.359-10.325-0.322-20.845,2.59-31.022
		c1.957-6.839,1.514-7.385-5.371-9.286c-1.175-0.324-2.857-0.062-2.86-2.065c0.858-1.576,2.068-1.314,3.355-0.647
		c0.667,0,1.334,0,2.001,0c5.173-0.874,11.22-1.167,15.146-3.625c7.591-4.75,16.554-5.881,23.872-10.807
		c1.476-0.993,3.121-2.151,4.977-0.566c3.224-0.706,4.961,1.051,6.373,4.206c-6.455,0.254-10.66,6.087-17.15,6.268
		c-0.758,0.021-1.539,0.614-2.242,1.051c-5.165,3.215-10.937,5.479-16.017,8.525c-5.209,3.125-8.851,8.289-9.544,16.032
		c-1.229,13.712-0.462,27.49-2.236,41.135c-0.32,2.461-0.479,5.04-0.102,7.47c0.657,4.242-1.521,8.14-1.077,12.299
		C180.382,162.198,178.058,163.206,177.025,165.507z"/>
	<path fill-rule="evenodd" clip-rule="evenodd" fill="#1BE2EB" d="M173.022,164.505c-3.158,2.607-4.595,2.512-5.373-2.189
		c-1.036-6.264-0.201-12.473-0.639-18.685c-0.123-1.737,0.636-3.667-0.985-5.125c-1.449-2.676,0.153-5.522-0.541-8.098
		c-0.178,5.468-1.205,11.013-1.415,16.643c-0.071,1.91-0.419,3.996-2.045,5.458c-0.333,0-0.665,0.001-0.998,0.002
		c-2.55-3.83-1.288-8.029-1.076-12.085c0.449-8.604,1.378-17.161,1.476-25.815c0.066-5.85,1.18-11.828,2.586-17.651
		c1.33-5.506-0.149-7.967-4.986-9.442c0.323-2.002-0.815-4.25,1.003-6.003c2.071,1.703,3.442-0.1,4.992-1
		c4.487-0.691,8.838,0.522,13.229,1.025c3.387,0.389,4.005,3.068,4.131,5.902c0.207,4.647-1.087,9.144-1.383,13.779
		c-1.013,15.876-1.597,31.774-2.455,47.656C178.224,154.771,176.882,160.007,173.022,164.505z"/>
	<path fill-rule="evenodd" clip-rule="evenodd" fill="#21E3EC" d="M173.022,164.505c6.193-10.829,4.011-23.133,5.172-34.675
		c0.573-5.688,1.235-11.861,0.904-17.865c-0.382-6.938,0.738-13.83,1.809-20.677c1.118-7.165-0.243-9.251-7.757-9.358
		c-2.91-0.042-5.45-0.796-8.13-1.416c0.999-0.67,1.997-1.339,2.995-2.009l-0.003,0.004c0.337,0.002,0.674,0.005,1.011,0.007
		c2.254-1.192,4.114-0.018,6,0.999c13.392,1.956,11.668,3.589,7.714,14.98c-0.993,2.86,0.024,5.35-0.067,7.787
		c-0.282,7.475-0.656,15.061-1.04,22.488c-0.551,10.643,1.047,21.518-2.084,31.99C178.504,160.247,176.283,162.839,173.022,164.505z
		"/>
	<path fill-rule="evenodd" clip-rule="evenodd" fill="#2DE5ED" d="M224.017,63.518c-3.544-0.177-5.768,2.792-8.881,3.853
		c-3.031,1.032-5.977,2.63-9.091,3.775c-3.211,1.181-6.846,1.43-9.132,5.033c-1.471,2.318-4.952,0.421-7.482,1.039
		c-3.078,0.751-6.024,2.697-9.408,1.298c4.256-2.956,9.942-2.575,13.998-5.999c3.297-5.188,8.798-7.041,14.153-8.596
		c6.108-1.772,11.547-5.016,17.521-7.021c3.777-1.269,7.432-2.896,11.293-0.394c0.148,1.768-0.018,3.473-0.987,5.022
		c-1.125,0.298-0.85,4.014-3.27,1.243C229.57,59.151,226.702,60.686,224.017,63.518z"/>
	<path fill-rule="evenodd" clip-rule="evenodd" fill="#26E3EC" d="M156.019,74.519c-5.964-4.196-12.843-6.482-19.353-9.562
		c-4.816-2.28-9.959-3.875-14.549-6.731c-3.023-1.882-6.473-3.112-9.811-4.435c-1.484-0.589-3.029-0.438-3.277,1.731
		c-3.325,0.441-4.619-2.422-6.707-4.041c-0.83-0.644-0.688-1.067-0.053-1.458c1.25-0.77,2.499-1.783,4.129-1.236
		c3.804,1.277,7.992,1.958,11.311,4.027c10.078,6.281,21.828,8.81,31.972,14.823c1.267,0.751,2.229-0.32,3.343-0.115
		c0.164,0.286,0.289,0.79,0.496,0.826C157.686,69.074,159.271,70.804,156.019,74.519z"/>
	<path fill-rule="evenodd" clip-rule="evenodd" fill="#3CE6EE" d="M236.987,56.506c-6.89-1.461-12.598,2.466-18.523,4.62
		c-3.474,1.261-6.784,3.085-10.493,4.015c-5.206,1.305-9.483,4.565-13.95,7.376c-4.141-0.597-7.511,2.142-11.386,2.627
		c-2.185,0.273-4.323,1.908-6.613,0.372c-0.445-4.395,3.226-3.449,5.53-4.28c4.978-0.122,9.205-2.641,13.597-4.484
		c8.728-3.66,17.073-8.188,25.798-11.853c4.759-2,9.785-3.24,15.067-2.378c0.339,0.336,0.677,0.673,1.016,1.009
		C237.016,54.522,237.001,55.514,236.987,56.506z"/>
	<path fill-rule="evenodd" clip-rule="evenodd" fill="#35E6EE" d="M214.019,41.524c-2.343,4.631-7.46,4.63-11.349,6.504
		c-8.32,4.008-16.955,7.359-25.434,11.042c-0.519,0.226-0.801,0.996-1.192,1.513c-0.921,3.487-3.731,3.339-6.456,3.36
		c-0.19-0.159-0.38-0.32-0.57-0.481c0.025-2.76,1.109-4.101,3.999-5.27c10.608-4.29,20.982-9.162,31.407-13.9
		c1.769-0.805,3.688-1.44,4.89-3.258C211.093,38.342,212.58,40.067,214.019,41.524z"/>
	<path fill-rule="evenodd" clip-rule="evenodd" fill="#4BE9EF" d="M182.021,72.517c-2.314,0.37-5.021-0.042-6,3
		c-0.358-0.019-0.717-0.037-1.075-0.056c-1.105-0.885-1.91-2.007-2.594-3.231c0.014-2.907-1.111-4.768-4.328-4.712
		c-0.014-0.321-0.028-0.643-0.044-0.964c0.152-0.196,0.305-0.392,0.453-0.592c3.268-1.845,6.664-3.263,10.52-3.16
		c1.073,0.314,1.619,1.03,1.63,2.149c-0.096,0.724-0.453,1.327-0.875,1.897c-1.78,2.904,1.275,3.161,2.441,4.446
		C182.404,71.731,182.361,72.14,182.021,72.517z"/>
	<path fill-rule="evenodd" clip-rule="evenodd" fill="#3DE7EE" d="M153.023,66.529c-3.335-1.667-6.67-3.335-10.006-5.003
		c0.451-0.775,1.193-0.966,2.011-1.009c5.155,1.609,9.698,4.429,14.157,7.67C157.131,67.635,155.078,67.082,153.023,66.529z"/>
	<path fill-rule="evenodd" clip-rule="evenodd" fill="#56EAF0" d="M126.994,53.556c-5.025-1.158-9.438-3.738-13.976-6.027
		c0.829-0.031,1.587-0.202,2.021-1.019c4.531,1.568,8.837,3.625,12.99,6.008C128.252,53.432,128.059,53.929,126.994,53.556z"/>
	<path fill-rule="evenodd" clip-rule="evenodd" fill="#4EE9F0" d="M126.994,53.556c0.346-0.346,0.69-0.691,1.035-1.037
		c4,0.935,7.293,3.419,10.995,5.004c0.009,1.689-0.825,1.695-2.009,1.006C133.381,57.464,130.025,55.838,126.994,53.556z"/>
	<path fill-rule="evenodd" clip-rule="evenodd" fill="#3DE6EE" d="M168.024,67.518c4.688-1.341,5.612,1.07,5.003,5.013
		c0.03,0.87-0.274,1.562-1.058,2C168.993,73.127,168.562,70.292,168.024,67.518z"/>
	<path fill-rule="evenodd" clip-rule="evenodd" fill="#2DE5ED" d="M175.023,79.515c-2.114,0.356-4-0.667-6-0.999
		c0.228-0.827-0.171-2.778,1.008-2.158c2.573,1.354,5.662,0.321,7.99,2.158C176.924,78.552,175.742,78.34,175.023,79.515z"/>
	<path fill-rule="evenodd" clip-rule="evenodd" fill="#44E8EF" d="M137.016,58.529c0.823-0.03,1.577-0.197,2.009-1.006
		c2.001,0.998,4.003,1.997,6.004,2.995c-0.433,0.811-1.185,0.982-2.011,1.009C140.739,61.084,138.697,60.169,137.016,58.529z"/>
	<path fill-rule="evenodd" clip-rule="evenodd" fill="#7DEEF4" d="M160.101,80.45c0.059-1.276-0.246-2.833,1.774-2.804
		c0.883,0.012,1.719,0.587,1.482,1.514c-0.447,1.757-2,1.283-3.267,1.283C160.092,80.443,160.101,80.45,160.101,80.45z"/>
	<path fill-rule="evenodd" clip-rule="evenodd" fill="#84EFF4" d="M171.97,74.53c0.091-0.804,0.252-1.572,1.058-2
		c1.955,0.116,2.06,1.444,1.919,2.931C173.562,76.402,172.618,75.938,171.97,74.53z"/>
	<path fill-rule="evenodd" clip-rule="evenodd" fill="#66ECF2" d="M168.016,78.505c-1.236-0.111-2.9,0.379-2.741-1.777
		c0.026-0.349,0.583-0.913,0.93-0.941c2.149-0.18,1.686,1.485,1.809,2.722L168.016,78.505z"/>
	<path fill-rule="evenodd" clip-rule="evenodd" fill="#9CF2F6" d="M158.645,73.408c0.376,0.41,0.893,0.713,0.922,1.06
		c0.078,0.876-0.627,1.097-1.295,0.881c-0.331-0.107-0.768-0.713-0.706-0.997C157.639,74.012,158.191,73.776,158.645,73.408z"/>
	<path fill-rule="evenodd" clip-rule="evenodd" fill="#4BE9EF" d="M167.98,66.554c-0.732-0.377-1.582-0.843-1.343-1.757
		c0.288-1.101,1.402-1.205,2.38-1.335l0.021,0.147c0.641,1.266-0.223,2.031-0.946,2.842L167.98,66.554z"/>
	<path fill-rule="evenodd" clip-rule="evenodd" fill="#2DE5ED" d="M166.021,149.508c0.052,6.397-0.528,12.86,2,18.997
		c-0.332,1-0.664,2-0.997,3c-2.249-3.266-0.386-7.297-1.983-10.689c-0.19-0.404-0.2-0.893-0.311-1.422
		c-1.965,1.654-0.969,4.484-2.705,6.115c0-0.334-0.002-0.67-0.002-1.006c0-1.998,0.001-3.996,0.002-5.996
		c1.363-2.908-0.554-6.443,1.75-9.175C164.561,148.916,165.314,148.917,166.021,149.508z"/>
	<path fill-rule="evenodd" clip-rule="evenodd" fill="#83EFF4" d="M168.092,66.451c0.315-0.948,0.631-1.896,0.946-2.843
		c2.425-0.802,5.066-1.102,7.006-3.025c9.627-2.549,18.503-7.083,27.785-10.546c7.13-2.66,14.131-5.664,21.189-8.514
		c1.379,0.152,2.954-0.478,4,1.002c-0.657,1.945-2.589,2.133-4.06,2.963c-14.487,5.588-28.702,11.85-43.173,17.482
		c-0.885,0.444-1.938-0.031-2.806,0.518C175.352,64.475,171.722,65.463,168.092,66.451z"/>
	<path fill-rule="evenodd" clip-rule="evenodd" fill="#59EAF1" d="M237.081,50.507c-0.04-0.325-0.065-0.651-0.077-0.979
		c-0.229-0.269-0.325-0.55-0.286-0.844c0.041-0.302,0.094-0.452,0.154-0.453c1.799-2.076,4.258-3.053,6.727-4.013
		c2.082-0.81,3.432-2.407,4.783-4.485c-3.168,0.22-5.729,2.055-8.671,2.066c-1.506,0.007-3.605,0.621-2.695-2.275
		c3.665-1.668,7.331-3.337,10.996-5.007c0.663-0.003,1.327-0.007,1.991-0.01c0.39,2.478,2.049,2.173,3.708,1.609
		c1.29-0.439,2.739-1.051,3.47,0.462c0.75,1.554-1.009,2.224-1.848,3.068C250.188,44.821,244.048,48.37,237.081,50.507z"/>
	<path fill-rule="evenodd" clip-rule="evenodd" fill="#5EEBF1" d="M237.016,39.524c2.252,2.844,4.653,0.808,6.813-0.002
		c2.554-0.958,4.966-1.404,7.687-0.508c-3.892,4.911-9.035,7.438-14.48,9.503c-2.379-1.824-4.946-3.511-5.019-6.991
		C233.403,40.163,235.256,39.958,237.016,39.524z"/>
	<path fill-rule="evenodd" clip-rule="evenodd" fill="#3AE6EE" d="M232.017,41.526c1.512,2.446,4.096,4.123,5.018,6.991
		c-0.01,0.337-0.02,0.674-0.03,1.011l-0.494-0.008l-0.494,0.001c-0.719-0.108-1.259-0.505-1.71-1.047
		c-1.188-2.149-3.634-3.402-4.268-5.95c0.329-0.351,0.659-0.701,0.988-1.053C231.355,41.507,231.686,41.526,232.017,41.526z"/>
	<path fill-rule="evenodd" clip-rule="evenodd" fill="#57E9F0" d="M230.038,42.524c2.104,1.628,4.519,3,4.965,6.001
		c-2.423,2.771-5.137,1.12-7.703,0.385c-0.893-0.256-1.916-1.496-1.051-2.326c3.091-2.962-2.525-0.404-1.244-2.067
		c1.337-0.664,2.676-1.328,4.014-1.992C229.358,42.525,229.698,42.524,230.038,42.524z"/>
	<path fill-rule="evenodd" clip-rule="evenodd" fill="#41E7EE" d="M155.028,154.509c0-8.447-0.024-16.894,0.022-25.339
		c0.01-1.591-0.538-3.358,0.966-4.664c0.002,8.447,0.029,16.895-0.018,25.343C155.99,151.438,156.545,153.208,155.028,154.509z"/>
	<path fill-rule="evenodd" clip-rule="evenodd" fill="#27E3EC" d="M149.023,84.517c-2.023-0.077-3.115-1.396-3.996-2.997
		C147.053,81.593,148.145,82.913,149.023,84.517z"/>
	<path fill-rule="evenodd" clip-rule="evenodd" fill="#16E2EB" d="M159.025,87.516c1.9-2.216,3.613-2.825,5.195,0.376
		c1.041,2.102,2.554,4.314,1.711,6.562c-2.152,5.733-0.984,11.998-3.276,17.736c-0.757,1.893,0.449,4.484,0.326,6.73
		c-0.569,10.372-1.294,20.735-1.95,31.102c-0.053,0.826-0.006,1.658-0.005,2.488c-0.001,0.666-0.002,1.332-0.003,1.998
		c-0.752,1.074-1.506,2.146-2.998,0.999C157.371,132.829,159.049,110.185,159.025,87.516z"/>
	<path fill-rule="evenodd" clip-rule="evenodd" fill="#27E4EC" d="M164.024,149.508c-1.523,2.81-0.087,6.277-1.999,8.999
		c-0.001-2-0.001-3.999-0.001-5.999c0.86-8.747,1.72-17.495,2.687-27.338c3.252,5.065,2.437,9.19,1.314,13.335
		c0,2.002-0.002,4.003-0.002,6.004C164.18,145.705,165.761,148.271,164.024,149.508z"/>
	<path fill-rule="evenodd" clip-rule="evenodd" fill="#1BE2EB" d="M161.023,157.507c0.3,3.012-0.434,5.703-2.426,8.33
		c-1.035-1.912-0.355-3.668-0.572-5.33C159.195,159.679,158.592,157.075,161.023,157.507z"/>
	<path fill-rule="evenodd" clip-rule="evenodd" fill="#19E2EB" d="M161.023,157.507c-0.999,1-1.998,2-2.998,3c0-1.666,0-3.334,0-5
		c1-0.333,1.999-0.666,2.998-0.999C161.023,155.508,161.023,156.507,161.023,157.507z"/>
	<path fill-rule="evenodd" clip-rule="evenodd" fill="#69ECF2" d="M153.498,139.709c-2.013-0.873-1.438-2.568-1.441-3.929
		c-0.041-15.806-0.048-31.611,0.005-47.417c0.005-1.494-0.703-4.083,1.58-3.957c2.053,0.113,1.313,2.674,1.364,4.228
		c0.547,16.612-0.616,33.192-1.029,49.786C153.967,138.83,153.682,139.234,153.498,139.709z"/>
	<path fill-rule="evenodd" clip-rule="evenodd" fill="#50E9F0" d="M152.98,176.052c-0.322-0.424-0.841-0.809-0.787-1.08
		c0.402-2.049-1.936-3.938-0.386-5.969c0.411-0.539,1.188-0.318,1.698,0.184C154.344,170.011,154.139,172.876,152.98,176.052z"/>
	<path fill-rule="evenodd" clip-rule="evenodd" fill="#53E9F0" d="M225.005,44.517c0.811-0.012,1.623-0.063,2.432-0.024
		c0.719,0.035,1.493-0.748,2.154,0.111c0.119,2.005-2.391,1.338-2.917,3.059c2.705,1.22,5.484,1.278,8.329,0.862
		c0.338,0.332,0.675,0.664,1.013,0.996c-0.012,0.329-0.026,0.659-0.043,0.988c-0.378,0.328-0.759,0.769-1.228,0.835
		c-17.043,2.401-31.262,11.875-46.587,18.573c-1.658,0.725-3.192,1.896-5.182,1.361c-1.913-1.095-5.323-0.944-3.955-4.76
		c0.333-0.333,0.667-0.667,1-1c0.684-0.884,1.239-1.81,0.997-3.001c8.112-4.508,16.898-7.485,25.482-10.862
		C212.647,49.239,218.403,45.755,225.005,44.517z"/>
	<path fill-rule="evenodd" clip-rule="evenodd" fill="#4AE8EF" d="M183.021,70.516c6.051-0.59,10.327-5.048,15.68-7.195
		c10.417-4.18,19.966-10.568,31.342-12.292c1.959-0.296,3.953-0.353,5.931-0.52c0.013,0.67,0.026,1.341,0.04,2.012
		c-5.629,2.093-11.82,1.724-17.351,4.766c-7.309,4.02-15.017,7.369-22.731,10.578c-4.494,1.869-8.805,4.522-13.91,4.652
		c0-0.333,0-0.666,0-0.999C182.085,70.915,182.649,70.812,183.021,70.516z"/>
	<path fill-rule="evenodd" clip-rule="evenodd" fill="#6AECF2" d="M188.043,184.263c0.023,6.389-0.999,11.57-5.684,15.436
		c-3.229,2.662-6.819,1.863-8.128-2.172c-2.275-7.016-0.828-14.062,0.456-20.988c0.471-2.539,2.427-4.744,5.521-4.998
		c2.974-0.246,4.396,1.865,5.796,3.955C187.947,178.394,188.357,181.628,188.043,184.263z"/>
	<path fill-rule="evenodd" clip-rule="evenodd" fill="#2DE5ED" d="M164.024,149.508c0.934-1.559-2.081-4.697,1.999-4.998
		c-0.001,1.667-0.002,3.333-0.002,4.998C165.355,149.508,164.689,149.508,164.024,149.508z"/>
	<path fill-rule="evenodd" clip-rule="evenodd" fill="#14E2EB" d="M170.607,160.94c-1.941-2.023-1.576-4.262-1.578-6.397
		c-0.012-16.492,0.039-32.985-0.031-49.477c-0.023-5.432-1.529-10.804-0.785-16.281c0.423-3.112,3.054-4.994,5.298-4.835
		c2.213,0.156,4.984,2.152,4.32,5.578c-1.521,7.832-0.708,15.927-1.678,23.582c-1.188,9.376-0.003,18.786-1.826,28.027
		c-0.994,5.044,0.479,10.307-1.248,15.333C172.544,158.028,172.342,159.679,170.607,160.94z"/>
	<path fill-rule="evenodd" clip-rule="evenodd" fill="#4DE9EF" d="M183.021,70.516c-0.333,0.334-0.667,0.668-1,1.002
		c-2.222,0.242-3.586-0.771-4.405-2.811c-0.61-1.521,0.02-2.049,1.405-2.188C179.049,69.158,181.318,69.554,183.021,70.516z"/>
	<path fill-rule="evenodd" clip-rule="evenodd" fill="#4DE9EF" d="M181.019,62.517c0.648,0.087,1.547,0.152,1.505,0.92
		c-0.078,1.439-1.6,1.452-2.502,2.081c-0.018-0.845-0.222-1.595-1.04-2.03C179.448,62.718,180.195,62.538,181.019,62.517z"/>
	<path fill-rule="evenodd" clip-rule="evenodd" fill="#73EDF3" d="M153.244,106.366c0-4.912,0-9.823,0-14.735
		c0.167-0.001,0.334-0.003,0.501-0.004c0,4.856,0,9.71,0,14.566C153.578,106.251,153.411,106.309,153.244,106.366z"/>
	<path fill-rule="evenodd" clip-rule="evenodd" fill="#77EEF3" d="M177.925,183.624c-2.139,0.402-1.963-2.742-0.52-5.619
		c1.204-2.4,2.993-2.922,5.152-0.986c4.409,3.951,3.736,15.098-1.123,18.512c-2.653,1.865-4.473,0.934-5.128-1.928
		C175.837,191.546,176.03,189.339,177.925,183.624c-0.092-0.961,0.427,1.77,0.393,4.369c-0.017,1.291-0.367,2.922,0.832,3.732
		c1.625,1.098,2.542-1.031,3.918-1.344c0.191-0.045,0.794,0.158,0.571-0.213C181.804,187.106,183.892,182.673,177.925,183.624z"/>
	<path fill-rule="evenodd" clip-rule="evenodd" fill="#84EFF4" d="M177.032,186.644c0-0.824-0.117-1.668,0.022-2.469
		c0.384-2.193,0.213-5.615,2.511-5.82c3.108-0.281,3.958,3.277,4.254,5.74c0.327,2.713,1.427,5.959-1.52,8.145
		c-0.992,0.736-1.531,2.496-3.134,1.977c-1.62-0.525-1.933-2.141-2.08-3.621c-0.13-1.305-0.027-2.633-0.027-3.951
		C177.05,186.644,177.041,186.644,177.032,186.644z"/>
	<path fill-rule="evenodd" clip-rule="evenodd" fill="#8DF1F5" d="M180.217,190.269c-1.595-1.279-1.228-2.537-1.148-3.596
		c0.117-1.547-0.798-3.365,0.801-4.584c0.623-0.475,1.407,0.115,1.593,0.682c0.577,1.756,2.21,3.482,0.397,5.439
		C181.315,188.8,180.854,189.464,180.217,190.269z"/>
</g>
</svg>
