<?xml version="1.0" encoding="utf-8"?>
<!-- Generator: Adobe Illustrator 16.0.0, SVG Export Plug-In . SVG Version: 6.00 Build 0)  -->
<!DOCTYPE svg PUBLIC "-//W3C//DTD SVG 1.1//EN" "http://www.w3.org/Graphics/SVG/1.1/DTD/svg11.dtd">
<svg version="1.1" id="Layer_1" xmlns="http://www.w3.org/2000/svg" xmlns:xlink="http://www.w3.org/1999/xlink" x="0px" y="0px"
	 width="256.389px" height="90.18px" viewBox="0 0 256.389 90.18" enable-background="new 0 0 256.389 90.18" xml:space="preserve">
<rect x="-262.118" y="341.709" display="none" fill="#00202D" width="821.404" height="475"/>
<g display="none">
	<defs>
		<rect id="SVGID_1_" x="-234.637" y="488.71" width="766" height="302"/>
	</defs>
	<clipPath id="SVGID_2_" display="inline">
		<use xlink:href="#SVGID_1_"  overflow="visible"/>
	</clipPath>
	<g display="inline" clip-path="url(#SVGID_2_)">
		<defs>
			<rect id="SVGID_3_" x="-247.029" y="439.836" width="805.482" height="359.997"/>
		</defs>
		<clipPath id="SVGID_4_">
			<use xlink:href="#SVGID_3_"  overflow="visible"/>
		</clipPath>
		<g clip-path="url(#SVGID_4_)">
			
				<image overflow="visible" width="600" height="400" xlink:href="FAB4759565CEC417.jpg"  transform="matrix(1.3425 0 0 0.9 -247.0293 439.8359)">
			</image>
		</g>
	</g>
</g>
<g display="none">
	<defs>
		<rect id="SVGID_5_" x="-356.14" y="-326.297" width="1008" height="1934.313"/>
	</defs>
	<clipPath id="SVGID_6_" display="inline">
		<use xlink:href="#SVGID_5_"  overflow="visible"/>
	</clipPath>
	<path display="inline" clip-path="url(#SVGID_6_)" fill="#FFFFFF" d="M338.999,531.921l-1.988-0.345l0.116,16.923l1.729,0.202
		l10.235,2.792c3.585,0.819,2.524-12.491,8.123-8.677c1.222-0.585,2.602-1.216,3.957-1.806
		C353.019,534.422,339.615,532.029,338.999,531.921"/>
	<path display="inline" clip-path="url(#SVGID_6_)" fill="#FFFFFF" d="M369.573,548.276l-6.334-5.385
		c-0.093-0.097-0.192-0.189-0.288-0.285c-1.362,0.73-2.708,1.332-3.721,1.752c0.463,0.397,0.909,0.805,1.315,1.235l6.296,5.35
		c1.312,1.492,24.756,25.474,17.062,70.151C392.134,573.283,370.498,549.275,369.573,548.276"/>
	<path display="inline" clip-path="url(#SVGID_6_)" fill="#FFFFFF" d="M388.279,531.496c0,0-44.552,7.538-65.331,56.079
		c0,0,20.013-3.132,33.491-19.779C356.439,567.796,378.368,536.173,388.279,531.496"/>
	<path display="inline" clip-path="url(#SVGID_6_)" fill="#FFFFFF" d="M312.104,610.393c0,0,93.914-53.412,49.99,61.333
		l1.243,12.177c49.037-100.73-2.04-124.333-2.88-126.263C341.979,593.02,312.104,610.393,312.104,610.393"/>
	<path display="inline" clip-path="url(#SVGID_6_)" fill="#FFFFFF" d="M214.906,637.609c34.748-21.712,46.083-18.651,71.085-26.061
		c29.239-11.647,23.412-26.061,23.412-26.061c2.629-0.329-17.925,16.334-37.08,21.928
		C241.088,616.536,214.906,637.609,214.906,637.609"/>
	<path display="inline" clip-path="url(#SVGID_6_)" fill="#FFFFFF" d="M298.325,544.403c-10.604-3.478-23.221-29.176-23.221-29.176
		l7.376,40.483c0,0,5.326-8.211,14.297-10.741"/>
	<path display="inline" clip-path="url(#SVGID_6_)" fill="#FFFFFF" d="M299.55,613.402c-10.692,8.853-7.3,16.776-7.3,16.776
		c-5.536-7.826-6.419-16.73-4.936-15.777C292.134,615.99,299.55,613.402,299.55,613.402"/>
	<path display="inline" clip-path="url(#SVGID_6_)" fill="#FFFFFF" d="M331.045,599.49c3.148,6.913,10.288,21.515,6.587,30.689
		c0,0-8.155-17.628-25.527-19.478L331.045,599.49z"/>
	<path display="inline" clip-path="url(#SVGID_6_)" fill="#FFFFFF" d="M357.922,673.648c0,0-18.975-4.691-58.372,5.912
		c0,0,58.054-14.832,67.377,53.394c0,0,5.562-26.75-6.812-46.69"/>
	<path display="inline" clip-path="url(#SVGID_6_)" fill="#FFFFFF" d="M323.09,560.023c13.46-9.562,20.636-10.979,20.636-10.979
		c-33.116-12.93-55.394,2.435-68.316,22.435c-16.674,25.805-27.027,35.649-27.027,35.649l-33.476,30.48
		c40.055-34.007,59.977-33.326,84.644-57.526c4.395-4.312,8.483-8.027,12.257-11.235l4.555-13.138
		C316.362,555.71,320.459,559.459,323.09,560.023"/>
	<rect x="-262.118" y="1019.766" display="inline" clip-path="url(#SVGID_6_)" fill="#00202D" width="821.404" height="475"/>
</g>
<g display="none">
	<defs>
		<rect id="SVGID_7_" x="-238.669" y="1162.748" width="766" height="313.983"/>
	</defs>
	<clipPath id="SVGID_8_" display="inline">
		<use xlink:href="#SVGID_7_"  overflow="visible"/>
	</clipPath>
	<g display="inline" clip-path="url(#SVGID_8_)">
		<defs>
			<rect id="SVGID_9_" x="-251.06" y="1111.937" width="805.482" height="374.281"/>
		</defs>
		<clipPath id="SVGID_10_">
			<use xlink:href="#SVGID_9_"  overflow="visible"/>
		</clipPath>
		<g transform="matrix(1 0 0 1 1.525879e-05 0)" clip-path="url(#SVGID_10_)">
			
				<image overflow="visible" width="600" height="400" xlink:href="FAB4759565CEC415.jpg"  transform="matrix(1.3425 0 0 0.9357 -251.0596 1111.9365)">
			</image>
		</g>
	</g>
</g>
<g display="none">
	<defs>
		<rect id="SVGID_11_" x="-356.14" y="-326.297" width="1008" height="1934.313"/>
	</defs>
	<clipPath id="SVGID_12_" display="inline">
		<use xlink:href="#SVGID_11_"  overflow="visible"/>
	</clipPath>
	<polygon display="inline" clip-path="url(#SVGID_12_)" fill="#68C9D5" points="114.255,690.412 114.255,611.187 195.662,650.8 	"/>
	
		<circle display="inline" clip-path="url(#SVGID_12_)" fill="none" stroke="#68C9D5" stroke-miterlimit="10" cx="145.953" cy="650.799" r="56.285"/>
	<rect x="178.361" y="386.709" display="inline" clip-path="url(#SVGID_12_)" fill="#C5C7C9" width="120" height="263"/>
</g>
<text transform="matrix(1 0 0 1 63.0645 415.8281)" display="none"><tspan x="0" y="0" display="inline" fill="#FFFFFF" font-family="'Neogrey'" font-size="10.8674">quien</tspan><tspan x="32.015" y="0" display="inline" fill="#FFFFFF" font-family="'Neogrey'" font-size="10.8674">e</tspan><tspan x="39.742" y="0" display="inline" fill="#FFFFFF" font-family="'Neogrey'" font-size="10.8674">s somos</tspan></text>
<text transform="matrix(1 0 0 1 190.061 415.8281)" display="none" fill="#231F20" font-family="'Neogrey'" font-size="10.8674">productos</text>
<text transform="matrix(1 0 0 1 337.064 415.8281)" display="none"><tspan x="0" y="0" display="inline" fill="#FFFFFF" font-family="'Neogrey'" font-size="10.8674">client</tspan><tspan x="32.188" y="0" display="inline" fill="#FFFFFF" font-family="'Neogrey'" font-size="10.8674">e</tspan><tspan x="39.915" y="0" display="inline" fill="#FFFFFF" font-family="'Neogrey'" font-size="10.8674">s</tspan></text>
<text transform="matrix(1 0 0 1 452.063 415.8281)" display="none" fill="#FFFFFF" font-family="'Neogrey'" font-size="10.8674">contacto</text>
<g display="none">
	<defs>
		<rect id="SVGID_13_" x="-356.14" y="-326.297" width="1008" height="1934.313"/>
	</defs>
	<clipPath id="SVGID_14_" display="inline">
		<use xlink:href="#SVGID_13_"  overflow="visible"/>
	</clipPath>
	
		<line display="inline" clip-path="url(#SVGID_14_)" fill="none" stroke="#FFFFFF" stroke-miterlimit="10" x1="170.362" y1="382.709" x2="170.362" y2="439.709"/>
	
		<line display="inline" clip-path="url(#SVGID_14_)" fill="none" stroke="#FFFFFF" stroke-miterlimit="10" x1="306.362" y1="382.709" x2="306.362" y2="439.709"/>
	
		<line display="inline" clip-path="url(#SVGID_14_)" fill="none" stroke="#FFFFFF" stroke-miterlimit="10" x1="419.362" y1="382.709" x2="419.362" y2="439.709"/>
	
		<line display="inline" clip-path="url(#SVGID_14_)" fill="none" stroke="#909295" stroke-miterlimit="10" x1="184.361" y1="446.709" x2="277.361" y2="446.709"/>
	
		<line display="inline" clip-path="url(#SVGID_14_)" fill="none" stroke="#909295" stroke-miterlimit="10" x1="184.361" y1="473.709" x2="277.361" y2="473.709"/>
	
		<line display="inline" clip-path="url(#SVGID_14_)" fill="none" stroke="#909295" stroke-miterlimit="10" x1="184.361" y1="499.209" x2="277.361" y2="499.209"/>
	
		<line display="inline" clip-path="url(#SVGID_14_)" fill="none" stroke="#909295" stroke-miterlimit="10" x1="184.361" y1="525.709" x2="277.361" y2="525.709"/>
	
		<line display="inline" clip-path="url(#SVGID_14_)" fill="none" stroke="#909295" stroke-miterlimit="10" x1="184.361" y1="553.709" x2="277.361" y2="553.709"/>
	
		<line display="inline" clip-path="url(#SVGID_14_)" fill="none" stroke="#909295" stroke-miterlimit="10" x1="184.361" y1="582.709" x2="277.361" y2="582.709"/>
	
		<line display="inline" clip-path="url(#SVGID_14_)" fill="none" stroke="#909295" stroke-miterlimit="10" x1="184.361" y1="608.209" x2="277.361" y2="608.209"/>
	<rect x="51.759" y="1064.767" display="inline" clip-path="url(#SVGID_14_)" fill="#68C9D5" width="110.917" height="49.152"/>
</g>
<text transform="matrix(1 0 0 1 63.0645 1093.8848)" display="none"><tspan x="0" y="0" display="inline" fill="#231F20" font-family="'Neogrey'" font-size="10.8674">quien</tspan><tspan x="32.015" y="0" display="inline" fill="#231F20" font-family="'Neogrey'" font-size="10.8674">e</tspan><tspan x="39.742" y="0" display="inline" fill="#231F20" font-family="'Neogrey'" font-size="10.8674">s somos</tspan></text>
<text transform="matrix(1 0 0 1 190.061 1093.8848)" display="none" fill="#FFFFFF" font-family="'Neogrey'" font-size="10.8674">productos</text>
<text transform="matrix(1 0 0 1 337.064 1093.8848)" display="none"><tspan x="0" y="0" display="inline" fill="#FFFFFF" font-family="'Neogrey'" font-size="10.8674">client</tspan><tspan x="32.188" y="0" display="inline" fill="#FFFFFF" font-family="'Neogrey'" font-size="10.8674">e</tspan><tspan x="39.915" y="0" display="inline" fill="#FFFFFF" font-family="'Neogrey'" font-size="10.8674">s</tspan></text>
<text transform="matrix(1 0 0 1 452.063 1093.8848)" display="none" fill="#FFFFFF" font-family="'Neogrey'" font-size="10.8674">contacto</text>
<g display="none">
	<defs>
		<rect id="SVGID_15_" x="310.86" y="-278.297" width="1008" height="1934.313"/>
	</defs>
	<clipPath id="SVGID_16_" display="inline">
		<use xlink:href="#SVGID_15_"  overflow="visible"/>
	</clipPath>
	
		<line display="inline" clip-path="url(#SVGID_16_)" fill="none" stroke="#FFFFFF" stroke-miterlimit="10" x1="837.362" y1="1108.766" x2="837.362" y2="1165.766"/>
	
		<line display="inline" clip-path="url(#SVGID_16_)" fill="none" stroke="#FFFFFF" stroke-miterlimit="10" x1="973.362" y1="1108.766" x2="973.362" y2="1165.766"/>
	
		<line display="inline" clip-path="url(#SVGID_16_)" fill="none" stroke="#FFFFFF" stroke-miterlimit="10" x1="1086.362" y1="1108.766" x2="1086.362" y2="1165.766"/>
	<rect x="404.881" y="-152.291" display="inline" clip-path="url(#SVGID_16_)" fill="#00202D" width="821.404" height="475"/>
</g>
<g display="none">
	<defs>
		<rect id="SVGID_17_" x="-234.637" y="-53.29" width="766" height="301.999"/>
	</defs>
	<clipPath id="SVGID_18_" display="inline">
		<use xlink:href="#SVGID_17_"  overflow="visible"/>
	</clipPath>
	<g display="inline" clip-path="url(#SVGID_18_)">
		<defs>
			<rect id="SVGID_19_" x="-247.029" y="-102.164" width="805.482" height="359.997"/>
		</defs>
		<clipPath id="SVGID_20_">
			<use xlink:href="#SVGID_19_"  overflow="visible"/>
		</clipPath>
		<g clip-path="url(#SVGID_20_)">
			
				<image overflow="visible" width="600" height="400" xlink:href="FAB4759565CEC41B.jpg"  transform="matrix(1.3425 0 0 0.9 -247.0293 -102.1636)">
			</image>
		</g>
	</g>
</g>
<text transform="matrix(1 0 0 1 63.0645 -126.1699)" display="none"><tspan x="0" y="0" display="inline" fill="#FFFFFF" font-family="'Neogrey'" font-size="10.8674">quien</tspan><tspan x="32.015" y="0" display="inline" fill="#FFFFFF" font-family="'Neogrey'" font-size="10.8674">e</tspan><tspan x="39.742" y="0" display="inline" fill="#FFFFFF" font-family="'Neogrey'" font-size="10.8674">s somos</tspan></text>
<text transform="matrix(1 0 0 1 501.7593 244.3652)" display="none" fill="#FFFFFF" font-family="'Neogrey'" font-size="10.8674">reel</text>
<text transform="matrix(1 0 0 1 202.1021 -126.1699)" display="none" fill="#FFFFFF" font-family="'Neogrey'" font-size="10.8674">productos</text>
<text transform="matrix(1 0 0 1 337.064 -126.1699)" display="none"><tspan x="0" y="0" display="inline" fill="#FFFFFF" font-family="'Neogrey'" font-size="10.8674">client</tspan><tspan x="32.188" y="0" display="inline" fill="#FFFFFF" font-family="'Neogrey'" font-size="10.8674">e</tspan><tspan x="39.915" y="0" display="inline" fill="#FFFFFF" font-family="'Neogrey'" font-size="10.8674">s</tspan></text>
<text transform="matrix(1 0 0 1 452.063 -126.1699)" display="none" fill="#FFFFFF" font-family="'Neogrey'" font-size="10.8674">contacto</text>
<g display="none">
	<defs>
		<rect id="SVGID_21_" x="-356.14" y="-326.297" width="1008" height="1934.313"/>
	</defs>
	<clipPath id="SVGID_22_" display="inline">
		<use xlink:href="#SVGID_21_"  overflow="visible"/>
	</clipPath>
	
		<line display="inline" clip-path="url(#SVGID_22_)" fill="none" stroke="#FFFFFF" stroke-miterlimit="10" x1="170.362" y1="-159.29" x2="170.362" y2="-102.29"/>
	
		<line display="inline" clip-path="url(#SVGID_22_)" fill="none" stroke="#FFFFFF" stroke-miterlimit="10" x1="306.362" y1="-159.29" x2="306.362" y2="-102.29"/>
	
		<line display="inline" clip-path="url(#SVGID_22_)" fill="none" stroke="#FFFFFF" stroke-miterlimit="10" x1="419.362" y1="-159.29" x2="419.362" y2="-102.29"/>
</g>
<text transform="matrix(1 0 0 1 -230.6377 1238.1943)" display="none"><tspan x="0" y="0" display="inline" fill="#FFFFFF" font-family="'Neogrey'" font-size="17">Gr</tspan><tspan x="26.435" y="0" display="inline" fill="#FFFFFF" font-family="'Neogrey'" font-size="17">a</tspan><tspan x="39.134" y="0" display="inline" fill="#FFFFFF" font-family="'Neogrey'" font-size="17">n </tspan><tspan x="57.851" y="0" display="inline" fill="#FFFFFF" font-family="'Neogrey'" font-size="17">P</tspan><tspan x="71.637" y="0" display="inline" fill="#FFFFFF" font-family="'Neogrey'" font-size="17">ez </tspan><tspan x="103.359" y="0" display="inline" fill="#FFFFFF" font-family="'Neogrey'" font-size="17">e</tspan><tspan x="116.092" y="0" display="inline" fill="#FFFFFF" font-family="'Neogrey'" font-size="17">s </tspan><tspan x="135.471" y="0" display="inline" fill="#FFFFFF" font-family="'Neogrey'" font-size="17">un</tspan><tspan x="159.968" y="0" display="inline" fill="#FFFFFF" font-family="'Neogrey'" font-size="17">a </tspan><tspan x="179.161" y="0" display="inline" fill="#FFFFFF" font-family="'Neogrey'" font-size="17">n</tspan><tspan x="191.384" y="0" display="inline" fill="#FFFFFF" font-family="'Neogrey'" font-size="17">u</tspan><tspan x="203.675" y="0" display="inline" fill="#FFFFFF" font-family="'Neogrey'" font-size="17">e</tspan><tspan x="215.897" y="0" display="inline" fill="#FFFFFF" font-family="'Neogrey'" font-size="17">v</tspan><tspan x="228.426" y="0" display="inline" fill="#FFFFFF" font-family="'Neogrey'" font-size="17">a</tspan><tspan x="241.125" y="0" display="inline" fill="#FFFFFF" font-family="'Neogrey'" font-size="17"> et</tspan><tspan x="267.373" y="0" display="inline" fill="#FFFFFF" font-family="'Neogrey'" font-size="17">a</tspan><tspan x="280.071" y="0" display="inline" fill="#FFFFFF" font-family="'Neogrey'" font-size="17">p</tspan><tspan x="292.787" y="0" display="inline" fill="#FFFFFF" font-family="'Neogrey'" font-size="17">a</tspan><tspan x="305.486" y="0" display="inline" fill="#FFFFFF" font-family="'Neogrey'" font-size="17"> en l</tspan><tspan x="350.45" y="0" display="inline" fill="#FFFFFF" font-family="'Neogrey'" font-size="17">a</tspan><tspan x="363.149" y="0" display="inline" fill="#FFFFFF" font-family="'Neogrey'" font-size="17"> vi</tspan><tspan x="385.503" y="0" display="inline" fill="#FFFFFF" font-family="'Neogrey'" font-size="17">d</tspan><tspan x="397.999" y="0" display="inline" fill="#FFFFFF" font-family="'Neogrey'" font-size="17">a de </tspan><tspan x="449.066" y="0" display="inline" fill="#FFFFFF" font-family="'Neogrey'" font-size="17">n</tspan><tspan x="461.289" y="0" display="inline" fill="#FFFFFF" font-family="'Neogrey'" font-size="17">u</tspan><tspan x="473.58" y="0" display="inline" fill="#FFFFFF" font-family="'Neogrey'" font-size="17">e</tspan><tspan x="486.33" y="0" display="inline" fill="#FFFFFF" font-family="'Neogrey'" font-size="17">st</tspan><tspan x="506.118" y="0" display="inline" fill="#FFFFFF" font-family="'Neogrey'" font-size="17">ra</tspan><tspan x="530.308" y="0" display="inline" fill="#FFFFFF" font-family="'Neogrey'" font-size="17"> </tspan></text>
<text transform="matrix(1 0 0 1 -230.6377 1269.2363)" display="none"><tspan x="0" y="0" display="inline" fill="#FFFFFF" font-family="'Neogrey'" font-size="17">pro</tspan><tspan x="38.062" y="0" display="inline" fill="#FFFFFF" font-family="'Neogrey'" font-size="17">d</tspan><tspan x="50.558" y="0" display="inline" fill="#FFFFFF" font-family="'Neogrey'" font-size="17">ucto</tspan><tspan x="95.76" y="0" display="inline" fill="#FFFFFF" font-family="'Neogrey'" font-size="17">r</tspan><tspan x="107.252" y="0" display="inline" fill="#FFFFFF" font-family="'Neogrey'" font-size="17">a i</tspan><tspan x="129.793" y="0" display="inline" fill="#FFFFFF" font-family="'Neogrey'" font-size="17">n</tspan><tspan x="142.016" y="0" display="inline" fill="#FFFFFF" font-family="'Neogrey'" font-size="17">teg</tspan><tspan x="174.86" y="0" display="inline" fill="#FFFFFF" font-family="'Neogrey'" font-size="17">r</tspan><tspan x="186.352" y="0" display="inline" fill="#FFFFFF" font-family="'Neogrey'" font-size="17">al </tspan><tspan x="212.429" y="0" display="inline" fill="#FFFFFF" font-family="'Neogrey'" font-size="17">d</tspan><tspan x="224.924" y="0" display="inline" fill="#FFFFFF" font-family="'Neogrey'" font-size="17">e co</tspan><tspan x="270.313" y="0" display="inline" fill="#FFFFFF" font-family="'Neogrey'" font-size="17">n</tspan><tspan x="282.536" y="0" display="inline" fill="#FFFFFF" font-family="'Neogrey'" font-size="17">te</tspan><tspan x="302.307" y="0" display="inline" fill="#FFFFFF" font-family="'Neogrey'" font-size="17">n</tspan><tspan x="314.53" y="0" display="inline" fill="#FFFFFF" font-family="'Neogrey'" font-size="17">idos, </tspan><tspan x="368.181" y="0" display="inline" fill="#FFFFFF" font-family="'Neogrey'" font-size="17">e</tspan><tspan x="380.93" y="0" display="inline" fill="#FFFFFF" font-family="'Neogrey'" font-size="17">s</tspan><tspan x="393.817" y="0" display="inline" fill="#FFFFFF" font-family="'Neogrey'" font-size="17"> </tspan><tspan x="400.293" y="0" display="inline" fill="#FFFFFF" font-family="'Neogrey'" font-size="17">u</tspan><tspan x="412.567" y="0" display="inline" fill="#FFFFFF" font-family="'Neogrey'" font-size="17">n</tspan><tspan x="424.807" y="0" display="inline" fill="#FFFFFF" font-family="'Neogrey'" font-size="17">a</tspan><tspan x="437.506" y="0" display="inline" fill="#FFFFFF" font-family="'Neogrey'" font-size="17"> il</tspan><tspan x="454.216" y="0" display="inline" fill="#FFFFFF" font-family="'Neogrey'" font-size="17">u</tspan><tspan x="466.491" y="0" display="inline" fill="#FFFFFF" font-family="'Neogrey'" font-size="17">s</tspan><tspan x="479.393" y="0" display="inline" fill="#FFFFFF" font-family="'Neogrey'" font-size="17">i</tspan><tspan x="482.725" y="0" display="inline" fill="#FFFFFF" font-family="'Neogrey'" font-size="17">ó</tspan><tspan x="496.563" y="0" display="inline" fill="#FFFFFF" font-family="'Neogrey'" font-size="17">n</tspan><tspan x="508.786" y="0" display="inline" fill="#FFFFFF" font-family="'Neogrey'" font-size="17"> </tspan><tspan x="515.263" y="0" display="inline" fill="#FFFFFF" font-family="'Neogrey'" font-size="17">d</tspan><tspan x="527.758" y="0" display="inline" fill="#FFFFFF" font-family="'Neogrey'" font-size="17">e</tspan><tspan x="540.644" y="0" display="inline" fill="#FFFFFF" font-family="'Neogrey'" font-size="17"> </tspan></text>
<text transform="matrix(1 0 0 1 -230.6377 1300.2783)" display="none"><tspan x="0" y="0" display="inline" fill="#FFFFFF" font-family="'Neogrey'" font-size="17">co</tspan><tspan x="26.026" y="0" display="inline" fill="#FFFFFF" font-family="'Neogrey'" font-size="17">n</tspan><tspan x="38.25" y="0" display="inline" fill="#FFFFFF" font-family="'Neogrey'" font-size="17">t</tspan><tspan x="45.134" y="0" display="inline" fill="#FFFFFF" font-family="'Neogrey'" font-size="17">a</tspan><tspan x="57.833" y="0" display="inline" fill="#FFFFFF" font-family="'Neogrey'" font-size="17">r </tspan><tspan x="75.819" y="0" display="inline" fill="#FFFFFF" font-family="'Neogrey'" font-size="17">h</tspan><tspan x="88.161" y="0" display="inline" fill="#FFFFFF" font-family="'Neogrey'" font-size="17">istor</tspan><tspan x="136.644" y="0" display="inline" fill="#FFFFFF" font-family="'Neogrey'" font-size="17">i</tspan><tspan x="139.976" y="0" display="inline" fill="#FFFFFF" font-family="'Neogrey'" font-size="17">a</tspan><tspan x="152.692" y="0" display="inline" fill="#FFFFFF" font-family="'Neogrey'" font-size="17">s</tspan><tspan x="165.578" y="0" display="inline" fill="#FFFFFF" font-family="'Neogrey'" font-size="17">, </tspan><tspan x="176.627" y="0" display="inline" fill="#FFFFFF" font-family="'Neogrey'" font-size="17">e</tspan><tspan x="189.377" y="0" display="inline" fill="#FFFFFF" font-family="'Neogrey'" font-size="17">s</tspan><tspan x="202.263" y="0" display="inline" fill="#FFFFFF" font-family="'Neogrey'" font-size="17"> u</tspan><tspan x="221.031" y="0" display="inline" fill="#FFFFFF" font-family="'Neogrey'" font-size="17">na</tspan><tspan x="245.953" y="0" display="inline" fill="#FFFFFF" font-family="'Neogrey'" font-size="17"> n</tspan><tspan x="264.669" y="0" display="inline" fill="#FFFFFF" font-family="'Neogrey'" font-size="17">a</tspan><tspan x="277.368" y="0" display="inline" fill="#FFFFFF" font-family="'Neogrey'" font-size="17">r</tspan><tspan x="288.877" y="0" display="inline" fill="#FFFFFF" font-family="'Neogrey'" font-size="17">r</tspan><tspan x="300.369" y="0" display="inline" fill="#FFFFFF" font-family="'Neogrey'" font-size="17">at</tspan><tspan x="319.97" y="0" display="inline" fill="#FFFFFF" font-family="'Neogrey'" font-size="17">i</tspan><tspan x="323.302" y="0" display="inline" fill="#FFFFFF" font-family="'Neogrey'" font-size="17">va </tspan><tspan x="355.023" y="0" display="inline" fill="#FFFFFF" font-family="'Neogrey'" font-size="17">m</tspan><tspan x="373.927" y="0" display="inline" fill="#FFFFFF" font-family="'Neogrey'" font-size="17">o</tspan><tspan x="387.765" y="0" display="inline" fill="#FFFFFF" font-family="'Neogrey'" font-size="17">d</tspan><tspan x="400.26" y="0" display="inline" fill="#FFFFFF" font-family="'Neogrey'" font-size="17">e</tspan><tspan x="413.146" y="0" display="inline" fill="#FFFFFF" font-family="'Neogrey'" font-size="17">r</tspan><tspan x="424.637" y="0" display="inline" fill="#FFFFFF" font-family="'Neogrey'" font-size="17">n</tspan><tspan x="436.877" y="0" display="inline" fill="#FFFFFF" font-family="'Neogrey'" font-size="17">a</tspan><tspan x="449.577" y="0" display="inline" fill="#FFFFFF" font-family="'Neogrey'" font-size="17">, </tspan><tspan x="460.625" y="0" display="inline" fill="#FFFFFF" font-family="'Neogrey'" font-size="17">e</tspan><tspan x="473.375" y="0" display="inline" fill="#FFFFFF" font-family="'Neogrey'" font-size="17">s el</tspan><tspan x="512.526" y="0" display="inline" fill="#FFFFFF" font-family="'Neogrey'" font-size="17"> </tspan></text>
<text transform="matrix(1 0 0 1 -230.6377 1331.3203)" display="none"><tspan x="0" y="0" display="inline" fill="#FFFFFF" font-family="'Neogrey'" font-size="17">entre el arch</tspan><tspan x="137.902" y="0" display="inline" fill="#FFFFFF" font-family="'Neogrey'" font-size="17">i</tspan><tspan x="141.234" y="0" display="inline" fill="#FFFFFF" font-family="'Neogrey'" font-size="17">v</tspan><tspan x="153.933" y="0" display="inline" fill="#FFFFFF" font-family="'Neogrey'" font-size="17">o </tspan><tspan x="174.247" y="0" display="inline" fill="#FFFFFF" font-family="'Neogrey'" font-size="17">más</tspan><tspan x="218.736" y="0" display="inline" fill="#FFFFFF" font-family="'Neogrey'" font-size="17"> gr</tspan><tspan x="249.794" y="0" display="inline" fill="#FFFFFF" font-family="'Neogrey'" font-size="17">a</tspan><tspan x="262.493" y="0" display="inline" fill="#FFFFFF" font-family="'Neogrey'" font-size="17">n</tspan><tspan x="274.733" y="0" display="inline" fill="#FFFFFF" font-family="'Neogrey'" font-size="17">d</tspan><tspan x="287.228" y="0" display="inline" fill="#FFFFFF" font-family="'Neogrey'" font-size="17">e de la te</tspan><tspan x="384.313" y="0" display="inline" fill="#FFFFFF" font-family="'Neogrey'" font-size="17">l</tspan><tspan x="390.671" y="0" display="inline" fill="#FFFFFF" font-family="'Neogrey'" font-size="17">e</tspan><tspan x="402.894" y="0" display="inline" fill="#FFFFFF" font-family="'Neogrey'" font-size="17">v</tspan><tspan x="415.423" y="0" display="inline" fill="#FFFFFF" font-family="'Neogrey'" font-size="17">i</tspan><tspan x="418.754" y="0" display="inline" fill="#FFFFFF" font-family="'Neogrey'" font-size="17">s</tspan><tspan x="431.658" y="0" display="inline" fill="#FFFFFF" font-family="'Neogrey'" font-size="17">i</tspan><tspan x="434.99" y="0" display="inline" fill="#FFFFFF" font-family="'Neogrey'" font-size="17">ó</tspan><tspan x="448.828" y="0" display="inline" fill="#FFFFFF" font-family="'Neogrey'" font-size="17">n</tspan><tspan x="461.05" y="0" display="inline" fill="#FFFFFF" font-family="'Neogrey'" font-size="17"> a</tspan><tspan x="480.243" y="0" display="inline" fill="#FFFFFF" font-family="'Neogrey'" font-size="17">r</tspan><tspan x="491.735" y="0" display="inline" fill="#FFFFFF" font-family="'Neogrey'" font-size="17">ge</tspan><tspan x="517.694" y="0" display="inline" fill="#FFFFFF" font-family="'Neogrey'" font-size="17">n</tspan><tspan x="529.917" y="0" display="inline" fill="#FFFFFF" font-family="'Neogrey'" font-size="17">ti</tspan><tspan x="540.15" y="0" display="inline" fill="#FFFFFF" font-family="'Neogrey'" font-size="17">na</tspan><tspan x="565.072" y="0" display="inline" fill="#FFFFFF" font-family="'Neogrey'" font-size="17"> </tspan></text>
<text transform="matrix(1 0 0 1 -230.6377 1362.3623)" display="none"><tspan x="0" y="0" display="inline" fill="#FFFFFF" font-family="'Neogrey'" font-size="17">co</tspan><tspan x="26.026" y="0" display="inline" fill="#FFFFFF" font-family="'Neogrey'" font-size="17">n</tspan><tspan x="38.25" y="0" display="inline" fill="#FFFFFF" font-family="'Neogrey'" font-size="17"> la</tspan><tspan x="64.327" y="0" display="inline" fill="#FFFFFF" font-family="'Neogrey'" font-size="17">s</tspan><tspan x="77.213" y="0" display="inline" fill="#FFFFFF" font-family="'Neogrey'" font-size="17"> i</tspan><tspan x="87.039" y="0" display="inline" fill="#FFFFFF" font-family="'Neogrey'" font-size="17">d</tspan><tspan x="99.534" y="0" display="inline" fill="#FFFFFF" font-family="'Neogrey'" font-size="17">eas </tspan><tspan x="144.515" y="0" display="inline" fill="#FFFFFF" font-family="'Neogrey'" font-size="17">m</tspan><tspan x="163.419" y="0" display="inline" fill="#FFFFFF" font-family="'Neogrey'" font-size="17">á</tspan><tspan x="176.135" y="0" display="inline" fill="#FFFFFF" font-family="'Neogrey'" font-size="17">s</tspan><tspan x="189.021" y="0" display="inline" fill="#FFFFFF" font-family="'Neogrey'" font-size="17"> i</tspan><tspan x="198.846" y="0" display="inline" fill="#FFFFFF" font-family="'Neogrey'" font-size="17">nn</tspan><tspan x="223.292" y="0" display="inline" fill="#FFFFFF" font-family="'Neogrey'" font-size="17">o</tspan><tspan x="236.79" y="0" display="inline" fill="#FFFFFF" font-family="'Neogrey'" font-size="17">v</tspan><tspan x="249.319" y="0" display="inline" fill="#FFFFFF" font-family="'Neogrey'" font-size="17">ad</tspan><tspan x="274.513" y="0" display="inline" fill="#FFFFFF" font-family="'Neogrey'" font-size="17">or</tspan><tspan x="299.859" y="0" display="inline" fill="#FFFFFF" font-family="'Neogrey'" font-size="17">a</tspan><tspan x="312.558" y="0" display="inline" fill="#FFFFFF" font-family="'Neogrey'" font-size="17">s pa</tspan><tspan x="357.37" y="0" display="inline" fill="#FFFFFF" font-family="'Neogrey'" font-size="17">r</tspan><tspan x="368.862" y="0" display="inline" fill="#FFFFFF" font-family="'Neogrey'" font-size="17">a to</tspan><tspan x="408.777" y="0" display="inline" fill="#FFFFFF" font-family="'Neogrey'" font-size="17">d</tspan><tspan x="421.272" y="0" display="inline" fill="#FFFFFF" font-family="'Neogrey'" font-size="17">as l</tspan><tspan x="460.252" y="0" display="inline" fill="#FFFFFF" font-family="'Neogrey'" font-size="17">as</tspan><tspan x="485.837" y="0" display="inline" fill="#FFFFFF" font-family="'Neogrey'" font-size="17"> </tspan></text>
<text transform="matrix(1 0 0 1 -230.6377 1393.4043)" display="none"><tspan x="0" y="0" display="inline" fill="#FFFFFF" font-family="'Neogrey'" font-size="17">pl</tspan><tspan x="19.601" y="0" display="inline" fill="#FFFFFF" font-family="'Neogrey'" font-size="17">a</tspan><tspan x="32.3" y="0" display="inline" fill="#FFFFFF" font-family="'Neogrey'" font-size="17">tafor</tspan><tspan x="83.503" y="0" display="inline" fill="#FFFFFF" font-family="'Neogrey'" font-size="17">m</tspan><tspan x="102.407" y="0" display="inline" fill="#FFFFFF" font-family="'Neogrey'" font-size="17">a</tspan><tspan x="115.123" y="0" display="inline" fill="#FFFFFF" font-family="'Neogrey'" font-size="17">s</tspan><tspan x="128.008" y="0" display="inline" fill="#FFFFFF" font-family="'Neogrey'" font-size="17"> ex</tspan><tspan x="160.087" y="0" display="inline" fill="#FFFFFF" font-family="'Neogrey'" font-size="17">is</tspan><tspan x="176.305" y="0" display="inline" fill="#FFFFFF" font-family="'Neogrey'" font-size="17">te</tspan><tspan x="196.075" y="0" display="inline" fill="#FFFFFF" font-family="'Neogrey'" font-size="17">n</tspan><tspan x="208.298" y="0" display="inline" fill="#FFFFFF" font-family="'Neogrey'" font-size="17">t</tspan><tspan x="215.183" y="0" display="inline" fill="#FFFFFF" font-family="'Neogrey'" font-size="17">e</tspan><tspan x="227.933" y="0" display="inline" fill="#FFFFFF" font-family="'Neogrey'" font-size="17">s</tspan><tspan x="240.819" y="0" display="inline" fill="#FFFFFF" font-family="'Neogrey'" font-size="17">, </tspan><tspan x="251.869" y="0" display="inline" fill="#FFFFFF" font-family="'Neogrey'" font-size="17">e</tspan><tspan x="264.601" y="0" display="inline" fill="#FFFFFF" font-family="'Neogrey'" font-size="17">s el </tspan><tspan x="310.228" y="0" display="inline" fill="#FFFFFF" font-family="'Neogrey'" font-size="17">d</tspan><tspan x="322.723" y="0" display="inline" fill="#FFFFFF" font-family="'Neogrey'" font-size="17">e</tspan><tspan x="335.473" y="0" display="inline" fill="#FFFFFF" font-family="'Neogrey'" font-size="17">s</tspan><tspan x="348.376" y="0" display="inline" fill="#FFFFFF" font-family="'Neogrey'" font-size="17">a</tspan><tspan x="361.075" y="0" display="inline" fill="#FFFFFF" font-family="'Neogrey'" font-size="17">fío de enco</tspan><tspan x="473.833" y="0" display="inline" fill="#FFFFFF" font-family="'Neogrey'" font-size="17">n</tspan><tspan x="486.057" y="0" display="inline" fill="#FFFFFF" font-family="'Neogrey'" font-size="17">t</tspan><tspan x="492.942" y="0" display="inline" fill="#FFFFFF" font-family="'Neogrey'" font-size="17">ra</tspan><tspan x="517.132" y="0" display="inline" fill="#FFFFFF" font-family="'Neogrey'" font-size="17">r</tspan><tspan x="528.641" y="0" display="inline" fill="#FFFFFF" font-family="'Neogrey'" font-size="17"> </tspan></text>
<text transform="matrix(1 0 0 1 -230.6377 1424.4463)" display="none"><tspan x="0" y="0" display="inline" fill="#FFFFFF" font-family="'Neogrey'" font-size="17">r</tspan><tspan x="11.492" y="0" display="inline" fill="#FFFFFF" font-family="'Neogrey'" font-size="17">e</tspan><tspan x="24.242" y="0" display="inline" fill="#FFFFFF" font-family="'Neogrey'" font-size="17">s</tspan><tspan x="37.127" y="0" display="inline" fill="#FFFFFF" font-family="'Neogrey'" font-size="17">p</tspan><tspan x="49.843" y="0" display="inline" fill="#FFFFFF" font-family="'Neogrey'" font-size="17">u</tspan><tspan x="62.117" y="0" display="inline" fill="#FFFFFF" font-family="'Neogrey'" font-size="17">e</tspan><tspan x="74.867" y="0" display="inline" fill="#FFFFFF" font-family="'Neogrey'" font-size="17">sta</tspan><tspan x="107.371" y="0" display="inline" fill="#FFFFFF" font-family="'Neogrey'" font-size="17">s</tspan><tspan x="120.257" y="0" display="inline" fill="#FFFFFF" font-family="'Neogrey'" font-size="17"> a la co</tspan><tspan x="198.03" y="0" display="inline" fill="#FFFFFF" font-family="'Neogrey'" font-size="17">mun</tspan><tspan x="241.431" y="0" display="inline" fill="#FFFFFF" font-family="'Neogrey'" font-size="17">icac</tspan><tspan x="281.874" y="0" display="inline" fill="#FFFFFF" font-family="'Neogrey'" font-size="17">i</tspan><tspan x="285.206" y="0" display="inline" fill="#FFFFFF" font-family="'Neogrey'" font-size="17">ó</tspan><tspan x="299.043" y="0" display="inline" fill="#FFFFFF" font-family="'Neogrey'" font-size="17">n</tspan><tspan x="311.266" y="0" display="inline" fill="#FFFFFF" font-family="'Neogrey'" font-size="17"> </tspan><tspan x="317.743" y="0" display="inline" fill="#FFFFFF" font-family="'Neogrey'" font-size="17">d</tspan><tspan x="330.238" y="0" display="inline" fill="#FFFFFF" font-family="'Neogrey'" font-size="17">el </tspan><tspan x="356.485" y="0" display="inline" fill="#FFFFFF" font-family="'Neogrey'" font-size="17">p</tspan><tspan x="369.184" y="0" display="inline" fill="#FFFFFF" font-family="'Neogrey'" font-size="17">r</tspan><tspan x="380.693" y="0" display="inline" fill="#FFFFFF" font-family="'Neogrey'" font-size="17">e</tspan><tspan x="393.443" y="0" display="inline" fill="#FFFFFF" font-family="'Neogrey'" font-size="17">s</tspan><tspan x="406.329" y="0" display="inline" fill="#FFFFFF" font-family="'Neogrey'" font-size="17">e</tspan><tspan x="419.214" y="0" display="inline" fill="#FFFFFF" font-family="'Neogrey'" font-size="17">n</tspan><tspan x="431.437" y="0" display="inline" fill="#FFFFFF" font-family="'Neogrey'" font-size="17">te </tspan><tspan x="457.685" y="0" display="inline" fill="#FFFFFF" font-family="'Neogrey'" font-size="17">y</tspan><tspan x="470.213" y="0" display="inline" fill="#FFFFFF" font-family="'Neogrey'" font-size="17"> el f</tspan><tspan x="509.194" y="0" display="inline" fill="#FFFFFF" font-family="'Neogrey'" font-size="17">u</tspan><tspan x="521.467" y="0" display="inline" fill="#FFFFFF" font-family="'Neogrey'" font-size="17">turo</tspan><tspan x="565.99" y="0" display="inline" fill="#FFFFFF" font-family="'Neogrey'" font-size="17">.</tspan></text>
<g>
	<path fill="#FFFFFF" d="M238.008,6.228L237.266,6.1l0.043,6.312l0.646,0.075l3.817,1.041c1.338,0.306,0.941-4.659,3.029-3.236
		c0.457-0.218,0.971-0.454,1.478-0.674C243.238,7.16,238.238,6.268,238.008,6.228"/>
	<path fill="#FFFFFF" d="M249.413,12.328l-2.363-2.009c-0.034-0.036-0.071-0.07-0.107-0.106c-0.508,0.272-1.01,0.497-1.388,0.653
		c0.173,0.149,0.339,0.301,0.491,0.461l2.348,1.996c0.49,0.556,9.234,9.502,6.363,26.166
		C257.829,21.655,249.756,12.701,249.413,12.328"/>
	<path fill="#FFFFFF" d="M256.389,6.069c0,0-16.617,2.812-24.367,20.918c0,0,7.463-1.169,12.491-7.378
		C244.513,19.609,252.692,7.814,256.389,6.069"/>
	<path fill="#FFFFFF" d="M227.976,35.497c0,0,35.03-19.923,18.646,22.878l0.465,4.541c18.291-37.572-0.762-46.376-1.074-47.096
		C239.12,29.018,227.976,35.497,227.976,35.497"/>
	<path fill="#FFFFFF" d="M191.721,45.649c12.961-8.098,17.189-6.957,26.516-9.721c10.905-4.344,8.731-9.72,8.731-9.72
		c0.981-0.123-6.687,6.092-13.83,8.179C201.487,37.789,191.721,45.649,191.721,45.649"/>
	<path fill="#FFFFFF" d="M222.836,10.883C218.881,9.586,214.176,0,214.176,0l2.75,15.1c0,0,1.986-3.062,5.332-4.006"/>
	<path fill="#FFFFFF" d="M223.293,36.62c-3.988,3.302-2.723,6.258-2.723,6.258c-2.064-2.92-2.395-6.241-1.842-5.885
		C220.528,37.585,223.293,36.62,223.293,36.62"/>
	<path fill="#FFFFFF" d="M235.042,31.431c1.174,2.579,3.837,8.025,2.457,11.447c0,0-3.042-6.575-9.522-7.265L235.042,31.431z"/>
	<path fill="#FFFFFF" d="M245.067,59.092c0,0-7.078-1.75-21.773,2.205c0,0,21.654-5.532,25.132,19.916c0,0,2.074-9.978-2.541-17.416
		"/>
	<path fill="#FFFFFF" d="M229.565,15.101c0,0,1.539,1.405,2.521,1.604c5.009-3.555,7.687-4.09,7.687-4.09
		c-12.353-4.823-20.662,0.908-25.482,8.368c-6.219,9.625-10.082,13.297-10.082,13.297l-12.486,11.369
		c14.94-12.684,22.371-12.43,31.572-21.457c1.643-1.611,3.157-2.978,4.566-4.176L229.565,15.101z"/>
	<path fill="#FFFFFF" d="M31.195,52.794c0.368,0,0.681,0.128,0.937,0.383s0.383,0.568,0.383,0.937s-0.127,0.68-0.383,0.936
		c-0.256,0.255-0.568,0.383-0.937,0.383H6.979c-0.596,0-1.156,0.114-1.682,0.34c-0.524,0.228-0.985,0.539-1.383,0.937
		s-0.709,0.858-0.936,1.383c-0.229,0.525-0.341,1.085-0.341,1.681v23.427c0,0.595,0.112,1.156,0.341,1.681
		c0.227,0.525,0.538,0.985,0.936,1.383c0.397,0.397,0.858,0.709,1.383,0.936c0.525,0.227,1.086,0.341,1.682,0.341h18.173
		c0.595,0,1.163-0.114,1.702-0.341s1-0.539,1.383-0.936c0.383-0.398,0.688-0.858,0.915-1.383s0.341-1.086,0.341-1.681v-7.396H8.937
		c-0.369,0-0.681-0.128-0.937-0.383c-0.256-0.256-0.383-0.567-0.383-0.936S7.745,73.819,8,73.592s0.567-0.341,0.937-0.341h21.875
		c0.368,0,0.681,0.114,0.937,0.341s0.383,0.525,0.383,0.894v8.715c0,0.965-0.186,1.865-0.553,2.702
		c-0.369,0.837-0.867,1.575-1.49,2.213c-0.625,0.638-1.361,1.142-2.213,1.511c-0.852,0.369-1.76,0.553-2.724,0.553H6.979
		c-0.965,0-1.866-0.184-2.702-0.553c-0.838-0.369-1.575-0.873-2.213-1.511c-0.64-0.638-1.144-1.376-1.511-2.213
		C0.184,85.066,0,84.166,0,83.201V59.774c0-0.964,0.184-1.866,0.553-2.703c0.367-0.836,0.871-1.574,1.511-2.213
		c0.638-0.638,1.375-1.142,2.213-1.511c0.836-0.368,1.737-0.553,2.702-0.553H31.195z"/>
	<path fill="#68C9D5" d="M53.624,52.795c0.908,0,1.759,0.17,2.554,0.51c0.793,0.341,1.481,0.809,2.063,1.405
		s1.043,1.292,1.383,2.086c0.341,0.794,0.512,1.631,0.512,2.51c0,0.341-0.121,0.632-0.362,0.873
		c-0.241,0.241-0.532,0.362-0.873,0.362c-0.312,0-0.589-0.121-0.829-0.362c-0.242-0.241-0.361-0.532-0.361-0.873
		c0-1.134-0.397-2.092-1.189-2.872c-0.793-0.78-1.756-1.171-2.888-1.171H42.209c-0.567,0-1.09,0.107-1.572,0.319
		c-0.48,0.213-0.906,0.497-1.273,0.852c-0.369,0.354-0.658,0.78-0.871,1.276c-0.213,0.497-0.318,1.029-0.318,1.596v14.385
		c0,0.341-0.123,0.632-0.368,0.873c-0.245,0.241-0.541,0.361-0.888,0.361c-0.346,0-0.643-0.12-0.887-0.361
		c-0.246-0.241-0.369-0.532-0.369-0.873V59.307c0-0.879,0.172-1.716,0.512-2.51c0.341-0.794,0.809-1.49,1.404-2.086
		s1.283-1.064,2.064-1.405c0.78-0.34,1.623-0.51,2.532-0.51H53.624z"/>
	<path fill="#68C9D5" d="M82.594,52.795c0.91,0,1.77,0.17,2.58,0.51c0.809,0.341,1.512,0.809,2.109,1.405s1.064,1.298,1.407,2.107
		c0.34,0.808,0.511,1.667,0.511,2.575v8.937c0,0.908-0.171,1.766-0.511,2.575c-0.343,0.808-0.81,1.51-1.407,2.106
		c-0.598,0.596-1.294,1.064-2.089,1.405c-0.796,0.34-1.649,0.51-2.558,0.51H69.379c-0.908,0-1.769-0.177-2.578-0.532
		c-0.81-0.354-1.514-0.829-2.11-1.425c-0.597-0.596-1.065-1.291-1.406-2.086c-0.342-0.794-0.512-1.646-0.512-2.553
		c0-0.908,0.177-1.766,0.532-2.575c0.354-0.809,0.83-1.511,1.426-2.107c0.596-0.595,1.298-1.063,2.105-1.404
		c0.81-0.341,1.668-0.511,2.575-0.511h17.279v-2.34c0-0.568-0.106-1.107-0.319-1.618c-0.213-0.51-0.511-0.95-0.894-1.319
		c-0.384-0.369-0.823-0.66-1.319-0.873c-0.497-0.213-1.029-0.319-1.596-0.319H64.262c-0.368,0-0.674-0.12-0.914-0.362
		c-0.242-0.24-0.362-0.532-0.362-0.872c0-0.34,0.12-0.631,0.362-0.872c0.242-0.241,0.547-0.362,0.916-0.362H82.594z M65.284,68.351
		c0,1.141,0.396,2.111,1.191,2.909c0.795,0.799,1.76,1.198,2.895,1.198h13.235c1.135,0,2.1-0.399,2.894-1.198
		c0.795-0.798,1.192-1.768,1.192-2.909v-4.15H69.412c-0.567,0-1.106,0.108-1.616,0.322c-0.512,0.214-0.951,0.513-1.32,0.898
		c-0.368,0.385-0.659,0.827-0.872,1.326C65.389,67.246,65.284,67.78,65.284,68.351"/>
	<path fill="#68C9D5" d="M110.694,52.795c0.936,0,1.814,0.178,2.639,0.532c0.822,0.355,1.532,0.837,2.127,1.447
		c0.596,0.611,1.071,1.319,1.426,2.128c0.355,0.808,0.532,1.681,0.532,2.617v14.13c0,0.369-0.121,0.674-0.362,0.915
		c-0.24,0.241-0.545,0.361-0.914,0.361c-0.34,0-0.631-0.12-0.873-0.361c-0.24-0.241-0.361-0.546-0.361-0.915V59.52
		c0-1.163-0.405-2.149-1.215-2.958c-0.811-0.808-1.813-1.212-3.008-1.212h-15.27v18.3c0,0.369-0.125,0.674-0.377,0.915
		c-0.251,0.241-0.544,0.361-0.878,0.361c-0.363,0-0.663-0.12-0.899-0.361c-0.238-0.241-0.356-0.546-0.356-0.915V54.072
		c0-0.341,0.12-0.631,0.362-0.873c0.24-0.241,0.545-0.375,0.914-0.404H110.694z"/>
	<path fill="#FFFFFF" d="M146.442,52.794c0.937,0,1.81,0.178,2.617,0.532c0.81,0.355,1.519,0.837,2.129,1.447
		c0.609,0.611,1.092,1.319,1.446,2.128c0.354,0.809,0.532,1.681,0.532,2.617v9.949c0,0.937-0.178,1.809-0.532,2.618
		c-0.356,0.808-0.839,1.519-1.45,2.128s-1.32,1.092-2.131,1.446c-0.81,0.356-1.683,0.533-2.621,0.533h-22.078V88.59
		c0,0.369-0.125,0.675-0.377,0.915c-0.25,0.242-0.543,0.362-0.877,0.362c-0.363,0-0.664-0.12-0.9-0.362
		c-0.237-0.24-0.356-0.546-0.356-0.915V59.518c0-0.936,0.177-1.808,0.532-2.617c0.355-0.809,0.837-1.517,1.447-2.128
		c0.609-0.61,1.318-1.092,2.127-1.447c0.81-0.354,1.682-0.532,2.617-0.532H146.442z M124.354,73.638h22.082
		c1.192,0,2.194-0.404,3.004-1.213c0.811-0.809,1.215-1.794,1.215-2.958v-9.949c0-1.163-0.404-2.149-1.215-2.958
		c-0.81-0.809-1.812-1.213-3.004-1.213h-17.904c-1.166,0-2.152,0.405-2.963,1.213c-0.81,0.809-1.215,1.795-1.215,2.958V73.638z"/>
	<path fill="#68C9D5" d="M177.126,52.795c0.907,0,1.767,0.177,2.575,0.532s1.518,0.83,2.128,1.425
		c0.61,0.596,1.092,1.299,1.447,2.107c0.354,0.809,0.532,1.681,0.532,2.617v4.895c0,0.369-0.123,0.674-0.362,0.915
		c-0.241,0.241-0.548,0.362-0.915,0.362h-22.727v2.612c0,1.171,0.404,2.163,1.213,2.976c0.81,0.815,1.795,1.221,2.957,1.221h17.748
		c0.34,0,0.639,0.119,0.894,0.356c0.255,0.237,0.383,0.523,0.383,0.857c0,0.363-0.128,0.663-0.383,0.9
		c-0.255,0.237-0.554,0.355-0.894,0.355h-17.748c-0.936,0-1.809-0.177-2.617-0.532c-0.807-0.354-1.51-0.829-2.105-1.425
		c-0.597-0.596-1.072-1.299-1.427-2.107c-0.354-0.809-0.531-1.681-0.531-2.617v-8.768c0-0.936,0.177-1.808,0.531-2.617
		c0.354-0.808,0.83-1.511,1.427-2.107c0.596-0.595,1.299-1.07,2.105-1.425c0.809-0.355,1.682-0.532,2.617-0.532H177.126z
		 M159.805,63.18h21.492v-3.7c0-1.175-0.404-2.172-1.213-2.989c-0.809-0.818-1.795-1.227-2.958-1.227h-13.151
		c-1.162,0-2.147,0.409-2.957,1.227c-0.809,0.817-1.213,1.814-1.213,2.989V63.18z"/>
	<path fill="#68C9D5" d="M213.493,53.051c0.184,0.199,0.312,0.433,0.383,0.702c0.07,0.27,0.078,0.547,0.021,0.83
		c-0.057,0.284-0.17,0.497-0.34,0.639c-3.15,2.61-6.102,5.064-8.853,7.362c-1.164,0.994-2.349,1.986-3.554,2.979
		c-1.206,0.994-2.348,1.937-3.426,2.83c-1.08,0.894-2.059,1.71-2.938,2.448c-0.879,0.737-1.574,1.319-2.085,1.744h20.13
		c0.312,0,0.581,0.121,0.809,0.362c0.228,0.242,0.342,0.518,0.342,0.83c0,0.369-0.114,0.66-0.342,0.873
		c-0.228,0.212-0.496,0.319-0.809,0.319H189.17c-0.312,0.056-0.611-0.043-0.894-0.298c-0.284-0.255-0.427-0.539-0.427-0.852
		c0-0.454,0.172-0.809,0.512-1.063c3.148-2.639,6.113-5.121,8.895-7.448c1.191-0.964,2.391-1.95,3.596-2.958
		c1.207-1.007,2.355-1.964,3.447-2.873c1.092-0.907,2.078-1.73,2.959-2.468c0.879-0.737,1.588-1.319,2.127-1.745h-20.173
		c-0.368,0-0.681-0.106-0.936-0.319c-0.255-0.213-0.384-0.517-0.384-0.915c0-0.341,0.121-0.631,0.363-0.873
		c0.239-0.24,0.545-0.361,0.914-0.361h23.62C213.074,52.768,213.307,52.853,213.493,53.051"/>
	<path fill="#FFFFFF" d="M129.807,89.712v-7.144h0.328v1.413c0.607-0.953,1.645-1.489,2.896-1.489c1.746,0,3.176,1.211,3.176,2.7
		s-1.443,2.72-3.201,2.72c-1.227,0-2.264-0.546-2.871-1.51v3.31H129.807z M133.006,87.634c1.595,0,2.859-1.093,2.859-2.464
		c0-1.328-1.277-2.399-2.859-2.399c-1.58,0-2.871,1.071-2.871,2.399C130.135,86.541,131.413,87.634,133.006,87.634"/>
	<path fill="#FFFFFF" d="M138.922,82.567v1.039c0.544-0.793,1.15-1.093,2.251-1.136v0.279c-1.492,0.043-2.251,0.803-2.251,2.249
		v2.818h-0.329v-5.249H138.922z"/>
	<path fill="#FFFFFF" d="M145.978,82.47c1.784,0,3.2,1.2,3.2,2.71c0,1.49-1.43,2.711-3.2,2.711c-1.758,0-3.201-1.211-3.201-2.689
		C142.777,83.67,144.182,82.47,145.978,82.47 M145.978,87.612c1.581,0,2.871-1.092,2.871-2.421c0-1.36-1.265-2.442-2.858-2.442
		c-1.607,0-2.885,1.082-2.885,2.442C143.106,86.53,144.396,87.612,145.978,87.612"/>
	<path fill="#FFFFFF" d="M157.509,80.672v7.144h-0.315v-1.414c-0.607,0.954-1.645,1.49-2.897,1.49c-1.758,0-3.175-1.211-3.175-2.7
		c0-1.489,1.43-2.721,3.188-2.721c1.24,0,2.265,0.547,2.885,1.51v-3.309H157.509z M154.309,82.75c-1.594,0-2.858,1.092-2.858,2.463
		c0,1.329,1.278,2.4,2.858,2.4c1.582,0,2.873-1.071,2.873-2.4C157.182,83.842,155.916,82.75,154.309,82.75"/>
	<path fill="#FFFFFF" d="M165.12,87.816v-1.007c-0.53,0.718-1.303,1.093-2.227,1.093c-1.707,0-2.566-0.911-2.566-2.732v-2.603h0.315
		v2.593c0,1.66,0.733,2.474,2.239,2.474c1.404,0,2.238-0.846,2.238-2.293v-2.774h0.316v5.249H165.12z"/>
	<path fill="#FFFFFF" d="M171.048,87.902c-1.784,0-3.201-1.21-3.201-2.732c0-1.478,1.431-2.699,3.188-2.699
		c1.215,0,2.176,0.493,2.82,1.446h-0.367c-0.683-0.793-1.455-1.167-2.453-1.167c-1.594,0-2.871,1.092-2.871,2.442
		c0,1.349,1.277,2.442,2.871,2.442c1.062,0,1.923-0.439,2.517-1.275h0.354C173.35,87.323,172.289,87.902,171.048,87.902"/>
	<path fill="#FFFFFF" d="M178.962,87.902c-1.784,0-3.201-1.21-3.201-2.732c0-1.478,1.431-2.699,3.188-2.699
		c1.215,0,2.176,0.493,2.82,1.446h-0.367c-0.683-0.793-1.455-1.167-2.453-1.167c-1.594,0-2.871,1.092-2.871,2.442
		c0,1.349,1.277,2.442,2.871,2.442c1.062,0,1.923-0.439,2.517-1.275h0.354C181.264,87.323,180.203,87.902,178.962,87.902"/>
	<path fill="#FFFFFF" d="M184.459,81.518h-0.328v-0.846h0.328V81.518z M184.459,87.816h-0.328v-5.249h0.328V87.816z"/>
	<path fill="#FFFFFF" d="M190.063,82.47c1.783,0,3.199,1.2,3.199,2.71c0,1.49-1.429,2.711-3.199,2.711
		c-1.758,0-3.201-1.211-3.201-2.689C186.862,83.67,188.266,82.47,190.063,82.47 M190.063,87.612c1.58,0,2.871-1.092,2.871-2.421
		c0-1.36-1.266-2.442-2.858-2.442c-1.607,0-2.886,1.082-2.886,2.442C187.19,86.53,188.481,87.612,190.063,87.612"/>
	<path fill="#FFFFFF" d="M195.991,82.567v1.007c0.531-0.718,1.29-1.093,2.213-1.093c1.708,0,2.581,0.921,2.581,2.732v2.603h-0.329
		v-2.593c0-1.649-0.746-2.474-2.238-2.474c-1.404,0-2.227,0.846-2.227,2.292v2.775h-0.329v-5.249H195.991z"/>
	<path fill="#FFFFFF" d="M209.192,86.402c-0.518,0.921-1.605,1.489-2.82,1.489c-1.81,0-3.227-1.19-3.227-2.689
		c0-1.5,1.443-2.721,3.215-2.721c1.771,0,3.098,1.135,3.187,2.732h-6.072c0.089,1.424,1.278,2.421,2.886,2.421
		c1.036,0,1.896-0.439,2.465-1.232H209.192z M206.346,82.76c-1.48,0-2.593,0.846-2.872,2.185h5.731
		C208.977,83.659,207.801,82.76,206.346,82.76"/>
	<path fill="#FFFFFF" d="M211.768,86.198c0.025,0.889,0.62,1.425,1.557,1.425c0.834,0,1.518-0.568,1.518-1.254
		c0-0.578-0.305-0.846-1.316-1.146c-1.303-0.396-1.67-0.707-1.67-1.424c0-0.728,0.684-1.296,1.544-1.296
		c0.886,0,1.53,0.546,1.543,1.328h-0.315c-0.09-0.675-0.531-1.05-1.228-1.05c-0.683,0-1.202,0.45-1.202,1.039
		c0,0.525,0.254,0.772,1.063,1.018l0.379,0.107c1.138,0.354,1.53,0.707,1.53,1.424c0,0.847-0.821,1.533-1.846,1.533
		c-1.051,0-1.886-0.707-1.886-1.597v-0.107H211.768z"/>
	<path fill="#FFFFFF" d="M78.747,82.567h0.328v0.942c0.545-0.707,1.228-1.039,2.101-1.039c1.012,0,1.834,0.481,2.251,1.339
		c0.418-0.857,1.24-1.339,2.265-1.339c1.53,0,2.39,0.879,2.39,2.443v2.903h-0.315v-2.914c0-1.36-0.771-2.153-2.101-2.153
		c-1.34,0-2.1,0.803-2.1,2.238v2.829h-0.316v-2.818c0-1.467-0.721-2.249-2.073-2.249c-1.367,0-2.101,0.793-2.101,2.249v2.818h-0.328
		V82.567z"/>
	<path fill="#FFFFFF" d="M96.487,86.402c-0.52,0.921-1.605,1.489-2.821,1.489c-1.81,0-3.226-1.19-3.226-2.689
		c0-1.5,1.443-2.721,3.214-2.721s3.099,1.135,3.187,2.732h-6.072c0.09,1.424,1.278,2.421,2.886,2.421
		c1.036,0,1.897-0.439,2.466-1.232H96.487z M93.641,82.76c-1.48,0-2.594,0.846-2.873,2.185H96.5
		C96.272,83.659,95.096,82.76,93.641,82.76"/>
	<path fill="#FFFFFF" d="M105.084,80.672v7.144h-0.316v-1.414c-0.607,0.954-1.645,1.49-2.897,1.49c-1.758,0-3.175-1.211-3.175-2.7
		c0-1.489,1.43-2.721,3.188-2.721c1.24,0,2.265,0.547,2.885,1.51v-3.309H105.084z M101.883,82.75c-1.594,0-2.858,1.092-2.858,2.463
		c0,1.329,1.278,2.4,2.858,2.4c1.582,0,2.873-1.071,2.873-2.4C104.756,83.842,103.49,82.75,101.883,82.75"/>
	<path fill="#FFFFFF" d="M108.267,81.518h-0.329v-0.846h0.329V81.518z M108.267,87.816h-0.329v-5.249h0.329V87.816z"/>
	<path fill="#FFFFFF" d="M117.056,87.816h-0.316v-1.414c-0.657,0.996-1.632,1.5-2.884,1.5c-1.784,0-3.188-1.2-3.188-2.711
		c0-1.488,1.43-2.71,3.174-2.71c1.228,0,2.201,0.504,2.897,1.5v-1.414h0.316V87.816z M113.856,87.623
		c1.619,0,2.884-1.061,2.884-2.41c0-1.35-1.303-2.453-2.922-2.453c-1.556,0-2.834,1.103-2.834,2.442
		C110.984,86.552,112.262,87.623,113.856,87.623"/>
</g>
<path display="none" fill="#FFFFFF" d="M1794.868,257.875l-0.742-0.129l0.043,6.313l0.646,0.075l3.817,1.041
	c1.338,0.306,0.941-4.659,3.029-3.236c0.457-0.218,0.971-0.454,1.478-0.674C1800.097,258.809,1795.097,257.916,1794.868,257.875"/>
<path display="none" fill="#FFFFFF" d="M1806.272,263.976l-2.363-2.009c-0.034-0.036-0.071-0.07-0.107-0.106
	c-0.508,0.272-1.01,0.497-1.388,0.653c0.173,0.149,0.339,0.301,0.491,0.461l2.348,1.996c0.49,0.556,9.234,9.502,6.363,26.166
	C1814.688,273.303,1806.616,264.349,1806.272,263.976"/>
<path display="none" fill="#FFFFFF" d="M1813.249,257.717c0,0-16.617,2.812-24.367,20.917c0,0,7.463-1.168,12.491-7.377
	C1801.373,271.257,1809.551,259.462,1813.249,257.717"/>
<path display="none" fill="#FFFFFF" d="M1784.835,287.146c0,0,35.03-19.923,18.646,22.878l0.465,4.541
	c18.291-37.572-0.762-46.376-1.074-47.096C1795.979,280.666,1784.835,287.146,1784.835,287.146"/>
<path display="none" fill="#FFFFFF" d="M1748.581,297.297c12.961-8.098,17.189-6.957,26.516-9.721
	c10.905-4.344,8.731-9.72,8.731-9.72c0.981-0.123-6.687,6.092-13.83,8.179C1758.346,289.437,1748.581,297.297,1748.581,297.297"/>
<path display="none" fill="#FFFFFF" d="M1779.696,262.532c-3.955-1.297-8.66-10.883-8.66-10.883l2.75,15.1
	c0,0,1.986-3.062,5.332-4.006"/>
<path display="none" fill="#FFFFFF" d="M1780.153,288.268c-3.988,3.302-2.723,6.258-2.723,6.258
	c-2.064-2.92-2.395-6.241-1.842-5.885C1777.387,289.233,1780.153,288.268,1780.153,288.268"/>
<path display="none" fill="#FFFFFF" d="M1791.901,283.079c1.174,2.579,3.837,8.025,2.457,11.447c0,0-3.042-6.575-9.522-7.265
	L1791.901,283.079z"/>
<path display="none" fill="#FFFFFF" d="M1801.926,310.74c0,0-7.078-1.75-21.773,2.205c0,0,21.654-5.532,25.132,19.915
	c0,0,2.074-9.977-2.541-17.415"/>
<path display="none" fill="#FFFFFF" d="M1786.424,266.749c0,0,1.539,1.405,2.521,1.604c5.009-3.555,7.687-4.09,7.687-4.09
	c-12.353-4.823-20.662,0.908-25.482,8.368c-6.219,9.625-10.082,13.297-10.082,13.297l-12.486,11.37
	c14.94-12.685,22.371-12.431,31.572-21.458c1.643-1.611,3.157-2.978,4.566-4.176L1786.424,266.749z"/>
<path display="none" fill="#FFFFFF" d="M1588.054,304.442c0.368,0,0.681,0.128,0.937,0.383s0.383,0.568,0.383,0.937
	c0,0.369-0.127,0.681-0.383,0.936s-0.568,0.383-0.937,0.383h-24.216c-0.596,0-1.156,0.114-1.682,0.34
	c-0.524,0.228-0.985,0.539-1.383,0.937c-0.397,0.397-0.709,0.858-0.936,1.383c-0.229,0.525-0.341,1.085-0.341,1.681v23.427
	c0,0.595,0.112,1.156,0.341,1.681c0.227,0.525,0.538,0.985,0.936,1.383s0.858,0.709,1.383,0.936
	c0.525,0.227,1.086,0.341,1.682,0.341h18.173c0.595,0,1.163-0.114,1.702-0.341s1-0.538,1.383-0.936s0.688-0.858,0.915-1.383
	c0.228-0.525,0.341-1.086,0.341-1.681v-7.396h-20.556c-0.369,0-0.681-0.127-0.937-0.383c-0.256-0.255-0.383-0.567-0.383-0.937
	c0-0.369,0.127-0.667,0.383-0.894c0.256-0.227,0.567-0.341,0.937-0.341h21.875c0.368,0,0.681,0.114,0.937,0.341
	c0.256,0.227,0.383,0.525,0.383,0.894v8.715c0,0.965-0.186,1.866-0.553,2.702c-0.369,0.837-0.867,1.575-1.49,2.213
	c-0.625,0.638-1.361,1.143-2.213,1.511c-0.852,0.369-1.76,0.553-2.724,0.553h-18.173c-0.965,0-1.866-0.184-2.702-0.553
	c-0.838-0.368-1.575-0.873-2.213-1.511c-0.64-0.638-1.144-1.376-1.511-2.213c-0.369-0.836-0.553-1.737-0.553-2.702v-23.427
	c0-0.964,0.184-1.866,0.553-2.703c0.367-0.836,0.871-1.574,1.511-2.213c0.638-0.638,1.375-1.142,2.213-1.511
	c0.836-0.368,1.737-0.553,2.702-0.553H1588.054z"/>
<path display="none" fill="#68C9D5" d="M1610.483,304.444c0.908,0,1.759,0.17,2.554,0.51c0.793,0.341,1.481,0.809,2.063,1.405
	c0.582,0.596,1.043,1.292,1.383,2.086c0.341,0.794,0.512,1.631,0.512,2.51c0,0.341-0.121,0.632-0.362,0.873
	c-0.241,0.241-0.532,0.362-0.873,0.362c-0.312,0-0.589-0.121-0.829-0.362c-0.242-0.241-0.361-0.532-0.361-0.873
	c0-1.134-0.397-2.092-1.189-2.872c-0.793-0.78-1.756-1.171-2.888-1.171h-11.423c-0.567,0-1.09,0.107-1.572,0.319
	c-0.48,0.213-0.906,0.497-1.273,0.852c-0.369,0.355-0.658,0.78-0.871,1.276c-0.213,0.497-0.318,1.029-0.318,1.596v14.385
	c0,0.341-0.123,0.632-0.368,0.873c-0.245,0.241-0.541,0.361-0.888,0.361c-0.346,0-0.643-0.12-0.887-0.361
	c-0.246-0.241-0.369-0.532-0.369-0.873v-14.385c0-0.879,0.172-1.716,0.512-2.51c0.341-0.794,0.809-1.49,1.404-2.086
	c0.596-0.596,1.283-1.064,2.064-1.405c0.78-0.34,1.623-0.51,2.532-0.51H1610.483z"/>
<path display="none" fill="#68C9D5" d="M1639.454,304.444c0.91,0,1.77,0.17,2.58,0.51c0.809,0.341,1.512,0.809,2.109,1.405
	c0.598,0.596,1.064,1.298,1.407,2.106c0.34,0.809,0.511,1.668,0.511,2.576v8.937c0,0.908-0.171,1.766-0.511,2.574
	c-0.343,0.809-0.81,1.511-1.407,2.106c-0.598,0.596-1.294,1.064-2.089,1.405c-0.796,0.34-1.649,0.51-2.558,0.51h-13.258
	c-0.908,0-1.769-0.177-2.578-0.532c-0.81-0.354-1.514-0.829-2.11-1.425c-0.597-0.596-1.065-1.291-1.406-2.086
	c-0.342-0.794-0.512-1.645-0.512-2.553s0.177-1.766,0.532-2.575c0.354-0.809,0.83-1.511,1.426-2.107
	c0.596-0.595,1.298-1.064,2.105-1.404c0.81-0.341,1.668-0.511,2.575-0.511h17.279v-2.34c0-0.568-0.106-1.107-0.319-1.618
	c-0.213-0.511-0.511-0.95-0.894-1.319c-0.384-0.369-0.823-0.66-1.319-0.873c-0.497-0.213-1.029-0.319-1.596-0.319h-18.301
	c-0.368,0-0.674-0.12-0.914-0.362c-0.242-0.24-0.362-0.532-0.362-0.872c0-0.341,0.12-0.631,0.362-0.873
	c0.242-0.24,0.547-0.361,0.916-0.361H1639.454z M1622.143,319.999c0,1.141,0.396,2.111,1.191,2.909
	c0.795,0.799,1.76,1.198,2.895,1.198h13.235c1.135,0,2.1-0.399,2.894-1.198c0.795-0.798,1.192-1.768,1.192-2.909v-4.15h-17.279
	c-0.567,0-1.106,0.108-1.616,0.322c-0.512,0.214-0.951,0.513-1.32,0.898c-0.368,0.385-0.659,0.827-0.872,1.326
	C1622.249,318.894,1622.143,319.429,1622.143,319.999"/>
<path display="none" fill="#68C9D5" d="M1667.553,304.444c0.936,0,1.814,0.178,2.639,0.532c0.822,0.354,1.532,0.837,2.127,1.447
	c0.596,0.611,1.071,1.319,1.426,2.128c0.355,0.808,0.532,1.681,0.532,2.617v14.13c0,0.369-0.121,0.674-0.362,0.915
	c-0.24,0.241-0.545,0.361-0.914,0.361c-0.34,0-0.631-0.12-0.873-0.361c-0.24-0.241-0.361-0.546-0.361-0.915v-14.13
	c0-1.163-0.405-2.149-1.215-2.958c-0.811-0.808-1.813-1.213-3.008-1.213h-15.27v18.301c0,0.369-0.125,0.674-0.377,0.915
	c-0.251,0.241-0.544,0.361-0.878,0.361c-0.363,0-0.663-0.12-0.899-0.361c-0.238-0.241-0.356-0.546-0.356-0.915v-19.577
	c0-0.341,0.12-0.631,0.362-0.873c0.24-0.241,0.545-0.375,0.914-0.404H1667.553z"/>
<path display="none" fill="#FFFFFF" d="M1703.301,304.442c0.937,0,1.81,0.178,2.617,0.532c0.81,0.355,1.519,0.838,2.129,1.447
	c0.609,0.611,1.092,1.319,1.446,2.128c0.354,0.809,0.532,1.681,0.532,2.618v9.948c0,0.937-0.178,1.809-0.532,2.618
	c-0.356,0.808-0.839,1.518-1.45,2.128c-0.611,0.61-1.32,1.092-2.131,1.447c-0.81,0.355-1.683,0.532-2.621,0.532h-22.078v12.398
	c0,0.369-0.125,0.675-0.377,0.915c-0.25,0.242-0.543,0.362-0.877,0.362c-0.363,0-0.664-0.12-0.9-0.362
	c-0.237-0.24-0.356-0.546-0.356-0.915v-29.071c0-0.937,0.177-1.809,0.532-2.618c0.355-0.809,0.837-1.517,1.447-2.128
	c0.609-0.609,1.318-1.092,2.127-1.447c0.81-0.354,1.682-0.532,2.617-0.532H1703.301z M1681.213,325.287h22.082
	c1.192,0,2.194-0.404,3.004-1.213c0.811-0.808,1.215-1.794,1.215-2.958v-9.948c0-1.163-0.404-2.15-1.215-2.959
	c-0.81-0.808-1.812-1.212-3.004-1.212h-17.904c-1.166,0-2.152,0.404-2.963,1.212c-0.81,0.809-1.215,1.796-1.215,2.959V325.287z"/>
<path display="none" fill="#68C9D5" d="M1733.986,304.444c0.907,0,1.767,0.178,2.575,0.532s1.518,0.83,2.128,1.426
	c0.61,0.595,1.092,1.298,1.447,2.106c0.354,0.809,0.532,1.681,0.532,2.618v4.894c0,0.369-0.123,0.674-0.362,0.915
	c-0.241,0.241-0.548,0.362-0.915,0.362h-22.727v2.612c0,1.171,0.404,2.163,1.213,2.977c0.81,0.814,1.795,1.22,2.957,1.22h17.748
	c0.34,0,0.639,0.119,0.894,0.356s0.383,0.523,0.383,0.857c0,0.363-0.128,0.663-0.383,0.9s-0.554,0.355-0.894,0.355h-17.748
	c-0.936,0-1.809-0.176-2.617-0.532c-0.807-0.354-1.51-0.829-2.105-1.425c-0.597-0.596-1.072-1.299-1.427-2.107
	c-0.354-0.809-0.531-1.681-0.531-2.617v-8.767c0-0.937,0.177-1.809,0.531-2.618c0.354-0.808,0.83-1.511,1.427-2.106
	c0.596-0.596,1.299-1.071,2.105-1.426c0.809-0.354,1.682-0.532,2.617-0.532H1733.986z M1716.665,314.828h21.492v-3.7
	c0-1.175-0.404-2.172-1.213-2.989c-0.809-0.818-1.795-1.227-2.958-1.227h-13.151c-1.162,0-2.147,0.409-2.957,1.227
	c-0.809,0.817-1.213,1.814-1.213,2.989V314.828z"/>
<path display="none" fill="#68C9D5" d="M1770.352,304.699c0.184,0.199,0.312,0.434,0.383,0.702c0.07,0.27,0.078,0.547,0.021,0.83
	c-0.057,0.284-0.17,0.497-0.34,0.638c-3.15,2.611-6.102,5.065-8.853,7.363c-1.164,0.993-2.349,1.986-3.554,2.979
	c-1.206,0.994-2.348,1.937-3.426,2.83c-1.08,0.894-2.059,1.71-2.938,2.448c-0.879,0.737-1.574,1.319-2.085,1.744h20.13
	c0.312,0,0.581,0.121,0.809,0.362c0.228,0.242,0.342,0.518,0.342,0.83c0,0.369-0.114,0.66-0.342,0.872
	c-0.228,0.213-0.496,0.32-0.809,0.32h-23.662c-0.312,0.056-0.611-0.043-0.894-0.298c-0.284-0.255-0.427-0.539-0.427-0.851
	c0-0.454,0.172-0.809,0.512-1.064c3.148-2.639,6.113-5.121,8.895-7.448c1.191-0.964,2.391-1.951,3.596-2.958
	c1.207-1.007,2.355-1.964,3.447-2.873c1.092-0.907,2.078-1.73,2.959-2.468c0.879-0.737,1.588-1.32,2.127-1.745h-20.173
	c-0.368,0-0.681-0.107-0.936-0.319c-0.255-0.213-0.384-0.517-0.384-0.915c0-0.341,0.121-0.631,0.363-0.873
	c0.239-0.24,0.545-0.361,0.914-0.361h23.62C1769.933,304.416,1770.167,304.501,1770.352,304.699"/>
<path display="none" fill="#FFFFFF" d="M1686.667,341.36v-7.144h0.328v1.413c0.607-0.953,1.645-1.489,2.896-1.489
	c1.746,0,3.176,1.211,3.176,2.7s-1.443,2.72-3.201,2.72c-1.227,0-2.264-0.546-2.871-1.51v3.31H1686.667z M1689.866,339.282
	c1.595,0,2.859-1.093,2.859-2.464c0-1.328-1.277-2.399-2.859-2.399c-1.58,0-2.871,1.071-2.871,2.399
	C1686.995,338.189,1688.272,339.282,1689.866,339.282"/>
<path display="none" fill="#FFFFFF" d="M1695.782,334.216v1.039c0.544-0.793,1.15-1.093,2.251-1.136v0.279
	c-1.492,0.043-2.251,0.803-2.251,2.249v2.818h-0.329v-5.249H1695.782z"/>
<path display="none" fill="#FFFFFF" d="M1702.837,334.119c1.784,0,3.2,1.2,3.2,2.71c0,1.49-1.43,2.711-3.2,2.711
	c-1.758,0-3.201-1.211-3.201-2.688C1699.636,335.319,1701.042,334.119,1702.837,334.119 M1702.837,339.261
	c1.581,0,2.871-1.092,2.871-2.421c0-1.36-1.265-2.442-2.858-2.442c-1.607,0-2.885,1.082-2.885,2.442
	C1699.965,338.179,1701.255,339.261,1702.837,339.261"/>
<path display="none" fill="#FFFFFF" d="M1714.369,332.32v7.144h-0.315v-1.414c-0.607,0.954-1.645,1.49-2.897,1.49
	c-1.758,0-3.175-1.211-3.175-2.7c0-1.489,1.43-2.721,3.188-2.721c1.24,0,2.265,0.547,2.885,1.51v-3.309H1714.369z M1711.168,334.398
	c-1.594,0-2.858,1.092-2.858,2.463c0,1.329,1.278,2.4,2.858,2.4c1.582,0,2.873-1.071,2.873-2.4
	C1714.042,335.49,1712.775,334.398,1711.168,334.398"/>
<path display="none" fill="#FFFFFF" d="M1721.979,339.464v-1.007c-0.53,0.718-1.303,1.093-2.227,1.093
	c-1.707,0-2.566-0.911-2.566-2.732v-2.603h0.315v2.593c0,1.66,0.733,2.474,2.239,2.474c1.404,0,2.238-0.846,2.238-2.293v-2.774
	h0.316v5.249H1721.979z"/>
<path display="none" fill="#FFFFFF" d="M1727.908,339.55c-1.784,0-3.201-1.21-3.201-2.732c0-1.478,1.431-2.699,3.188-2.699
	c1.215,0,2.176,0.493,2.82,1.446h-0.367c-0.683-0.793-1.455-1.167-2.453-1.167c-1.594,0-2.871,1.092-2.871,2.442
	c0,1.349,1.277,2.442,2.871,2.442c1.062,0,1.923-0.439,2.517-1.275h0.354C1730.209,338.971,1729.148,339.55,1727.908,339.55"/>
<path display="none" fill="#FFFFFF" d="M1735.822,339.55c-1.784,0-3.201-1.21-3.201-2.732c0-1.478,1.431-2.699,3.188-2.699
	c1.215,0,2.176,0.493,2.82,1.446h-0.367c-0.683-0.793-1.455-1.167-2.453-1.167c-1.594,0-2.871,1.092-2.871,2.442
	c0,1.349,1.277,2.442,2.871,2.442c1.062,0,1.923-0.439,2.517-1.275h0.354C1738.124,338.971,1737.062,339.55,1735.822,339.55"/>
<path display="none" fill="#FFFFFF" d="M1741.319,333.166h-0.328v-0.846h0.328V333.166z M1741.319,339.465h-0.328v-5.249h0.328
	V339.465z"/>
<path display="none" fill="#FFFFFF" d="M1746.922,334.119c1.783,0,3.199,1.2,3.199,2.71c0,1.49-1.429,2.711-3.199,2.711
	c-1.758,0-3.201-1.211-3.201-2.688C1743.721,335.319,1745.125,334.119,1746.922,334.119 M1746.922,339.261
	c1.58,0,2.871-1.092,2.871-2.421c0-1.36-1.266-2.442-2.858-2.442c-1.607,0-2.886,1.082-2.886,2.442
	C1744.049,338.179,1745.34,339.261,1746.922,339.261"/>
<path display="none" fill="#FFFFFF" d="M1752.85,334.216v1.007c0.531-0.718,1.29-1.093,2.213-1.093c1.708,0,2.581,0.921,2.581,2.732
	v2.603h-0.329v-2.593c0-1.648-0.746-2.474-2.238-2.474c-1.404,0-2.227,0.846-2.227,2.292v2.775h-0.329v-5.249H1752.85z"/>
<path display="none" fill="#FFFFFF" d="M1766.051,338.051c-0.518,0.921-1.605,1.489-2.82,1.489c-1.81,0-3.227-1.19-3.227-2.689
	c0-1.5,1.443-2.721,3.215-2.721c1.771,0,3.098,1.135,3.187,2.732h-6.072c0.089,1.424,1.278,2.421,2.886,2.421
	c1.036,0,1.896-0.439,2.465-1.232H1766.051z M1763.206,334.409c-1.48,0-2.593,0.846-2.872,2.185h5.731
	C1765.836,335.308,1764.661,334.409,1763.206,334.409"/>
<path display="none" fill="#FFFFFF" d="M1768.627,337.847c0.025,0.889,0.62,1.425,1.557,1.425c0.834,0,1.518-0.568,1.518-1.254
	c0-0.578-0.305-0.846-1.316-1.146c-1.303-0.396-1.67-0.707-1.67-1.424c0-0.728,0.684-1.296,1.544-1.296
	c0.886,0,1.53,0.546,1.543,1.328h-0.315c-0.09-0.675-0.531-1.05-1.228-1.05c-0.683,0-1.202,0.45-1.202,1.039
	c0,0.525,0.254,0.772,1.063,1.018l0.379,0.107c1.138,0.354,1.53,0.707,1.53,1.424c0,0.847-0.821,1.533-1.846,1.533
	c-1.051,0-1.886-0.707-1.886-1.597v-0.107H1768.627z"/>
<path display="none" fill="#FFFFFF" d="M1635.606,334.216h0.328v0.942c0.545-0.707,1.228-1.039,2.101-1.039
	c1.012,0,1.834,0.482,2.251,1.339c0.418-0.857,1.24-1.339,2.265-1.339c1.53,0,2.39,0.879,2.39,2.443v2.903h-0.315v-2.914
	c0-1.36-0.771-2.153-2.101-2.153c-1.34,0-2.1,0.803-2.1,2.238v2.829h-0.316v-2.818c0-1.467-0.721-2.249-2.073-2.249
	c-1.367,0-2.101,0.793-2.101,2.249v2.818h-0.328V334.216z"/>
<path display="none" fill="#FFFFFF" d="M1653.346,338.051c-0.52,0.921-1.605,1.489-2.821,1.489c-1.81,0-3.226-1.19-3.226-2.689
	c0-1.5,1.443-2.721,3.214-2.721s3.099,1.135,3.187,2.732h-6.072c0.09,1.424,1.278,2.421,2.886,2.421
	c1.036,0,1.897-0.439,2.466-1.232H1653.346z M1650.5,334.409c-1.48,0-2.594,0.846-2.873,2.185h5.731
	C1653.131,335.308,1651.956,334.409,1650.5,334.409"/>
<path display="none" fill="#FFFFFF" d="M1661.944,332.32v7.144h-0.316v-1.414c-0.607,0.954-1.645,1.49-2.897,1.49
	c-1.758,0-3.175-1.211-3.175-2.7c0-1.489,1.43-2.721,3.188-2.721c1.24,0,2.265,0.547,2.885,1.51v-3.309H1661.944z M1658.743,334.398
	c-1.594,0-2.858,1.092-2.858,2.463c0,1.329,1.278,2.4,2.858,2.4c1.582,0,2.873-1.071,2.873-2.4
	C1661.616,335.49,1660.349,334.398,1658.743,334.398"/>
<path display="none" fill="#FFFFFF" d="M1665.126,333.166h-0.329v-0.846h0.329V333.166z M1665.126,339.465h-0.329v-5.249h0.329
	V339.465z"/>
<path display="none" fill="#FFFFFF" d="M1673.916,339.464h-0.316v-1.414c-0.657,0.996-1.632,1.5-2.884,1.5
	c-1.784,0-3.188-1.2-3.188-2.711c0-1.488,1.43-2.71,3.174-2.71c1.228,0,2.201,0.504,2.897,1.5v-1.414h0.316V339.464z
	 M1670.715,339.271c1.619,0,2.884-1.061,2.884-2.41c0-1.35-1.303-2.453-2.922-2.453c-1.556,0-2.834,1.103-2.834,2.442
	C1667.843,338.201,1669.122,339.271,1670.715,339.271"/>
<path display="none" fill="#FFFFFF" d="M1794.868,941.055l-0.742-0.129l0.043,6.312l0.646,0.076l3.817,1.041
	c1.338,0.305,0.941-4.66,3.029-3.236c0.457-0.219,0.971-0.455,1.478-0.674C1800.097,941.988,1795.097,941.096,1794.868,941.055"/>
<path display="none" fill="#FFFFFF" d="M1806.272,947.156l-2.363-2.01c-0.034-0.035-0.071-0.07-0.107-0.105
	c-0.508,0.271-1.01,0.496-1.388,0.652c0.173,0.148,0.339,0.301,0.491,0.461l2.348,1.996c0.49,0.557,9.234,9.502,6.363,26.166
	C1814.688,956.482,1806.616,947.527,1806.272,947.156"/>
<path display="none" fill="#FFFFFF" d="M1813.249,940.896c0,0-16.617,2.812-24.367,20.918c0,0,7.463-1.17,12.491-7.379
	C1801.373,954.436,1809.551,942.641,1813.249,940.896"/>
<path display="none" fill="#FFFFFF" d="M1784.835,970.324c0,0,35.03-19.922,18.646,22.879l0.465,4.541
	c18.291-37.572-0.762-46.377-1.074-47.096C1795.979,963.846,1784.835,970.324,1784.835,970.324"/>
<path display="none" fill="#FFFFFF" d="M1748.581,980.477c12.961-8.098,17.189-6.957,26.516-9.721
	c10.905-4.344,8.731-9.721,8.731-9.721c0.981-0.123-6.687,6.092-13.83,8.18C1758.346,972.617,1748.581,980.477,1748.581,980.477"/>
<path display="none" fill="#FFFFFF" d="M1779.696,945.711c-3.955-1.297-8.66-10.883-8.66-10.883l2.75,15.1
	c0,0,1.986-3.062,5.332-4.006"/>
<path display="none" fill="#FFFFFF" d="M1780.153,971.447c-3.988,3.303-2.723,6.258-2.723,6.258c-2.064-2.92-2.395-6.24-1.842-5.885
	C1777.387,972.412,1780.153,971.447,1780.153,971.447"/>
<path display="none" fill="#FFFFFF" d="M1791.901,966.258c1.174,2.58,3.837,8.025,2.457,11.447c0,0-3.042-6.574-9.522-7.266
	L1791.901,966.258z"/>
<path display="none" fill="#FFFFFF" d="M1801.926,993.92c0,0-7.078-1.75-21.773,2.205c0,0,21.654-5.533,25.132,19.916
	c0,0,2.074-9.979-2.541-17.416"/>
<path display="none" fill="#FFFFFF" d="M1786.424,949.928c0,0,1.539,1.404,2.521,1.604c5.009-3.555,7.687-4.09,7.687-4.09
	c-12.353-4.822-20.662,0.908-25.482,8.369c-6.219,9.625-10.082,13.297-10.082,13.297l-12.486,11.369
	c14.94-12.686,22.371-12.43,31.572-21.457c1.643-1.611,3.157-2.979,4.566-4.176L1786.424,949.928z"/>
<path display="none" fill="#FFFFFF" d="M1588.054,987.621c0.368,0,0.681,0.129,0.937,0.383c0.256,0.256,0.383,0.568,0.383,0.938
	s-0.127,0.682-0.383,0.936c-0.256,0.256-0.568,0.383-0.937,0.383h-24.216c-0.596,0-1.156,0.115-1.682,0.342
	c-0.524,0.227-0.985,0.537-1.383,0.936s-0.709,0.859-0.936,1.383c-0.229,0.525-0.341,1.086-0.341,1.682v23.428
	c0,0.594,0.112,1.156,0.341,1.68c0.227,0.525,0.538,0.986,0.936,1.383c0.397,0.398,0.858,0.709,1.383,0.938
	c0.525,0.227,1.086,0.34,1.682,0.34h18.173c0.595,0,1.163-0.113,1.702-0.34c0.539-0.229,1-0.539,1.383-0.938
	c0.383-0.396,0.688-0.857,0.915-1.383c0.228-0.523,0.341-1.086,0.341-1.68v-7.396h-20.556c-0.369,0-0.681-0.127-0.937-0.383
	s-0.383-0.568-0.383-0.936c0-0.369,0.127-0.668,0.383-0.895s0.567-0.342,0.937-0.342h21.875c0.368,0,0.681,0.115,0.937,0.342
	s0.383,0.525,0.383,0.895v8.715c0,0.965-0.186,1.865-0.553,2.701c-0.369,0.838-0.867,1.574-1.49,2.213
	c-0.625,0.639-1.361,1.143-2.213,1.512s-1.76,0.553-2.724,0.553h-18.173c-0.965,0-1.866-0.184-2.702-0.553
	c-0.838-0.369-1.575-0.873-2.213-1.512c-0.64-0.639-1.144-1.375-1.511-2.213c-0.369-0.836-0.553-1.736-0.553-2.701v-23.428
	c0-0.965,0.184-1.865,0.553-2.703c0.367-0.836,0.871-1.574,1.511-2.211c0.638-0.641,1.375-1.145,2.213-1.514
	c0.836-0.367,1.737-0.553,2.702-0.553H1588.054z"/>
<path display="none" fill="#68C9D5" d="M1610.483,987.623c0.908,0,1.759,0.17,2.554,0.512c0.793,0.34,1.481,0.807,2.063,1.402
	c0.582,0.598,1.043,1.293,1.383,2.086c0.341,0.795,0.512,1.631,0.512,2.512c0,0.34-0.121,0.631-0.362,0.873
	c-0.241,0.24-0.532,0.361-0.873,0.361c-0.312,0-0.589-0.121-0.829-0.361c-0.242-0.242-0.361-0.533-0.361-0.873
	c0-1.135-0.397-2.094-1.189-2.873c-0.793-0.779-1.756-1.17-2.888-1.17h-11.423c-0.567,0-1.09,0.105-1.572,0.318
	c-0.48,0.213-0.906,0.496-1.273,0.852c-0.369,0.355-0.658,0.779-0.871,1.275c-0.213,0.498-0.318,1.029-0.318,1.598v14.385
	c0,0.34-0.123,0.631-0.368,0.873c-0.245,0.24-0.541,0.359-0.888,0.359c-0.346,0-0.643-0.119-0.887-0.359
	c-0.246-0.242-0.369-0.533-0.369-0.873v-14.385c0-0.881,0.172-1.717,0.512-2.512c0.341-0.793,0.809-1.488,1.404-2.086
	c0.596-0.596,1.283-1.062,2.064-1.402c0.78-0.342,1.623-0.512,2.532-0.512H1610.483z"/>
<path display="none" fill="#68C9D5" d="M1639.454,987.623c0.91,0,1.77,0.17,2.58,0.51c0.809,0.342,1.512,0.809,2.109,1.404
	c0.598,0.598,1.064,1.299,1.407,2.107c0.34,0.809,0.511,1.668,0.511,2.576v8.936c0,0.908-0.171,1.768-0.511,2.576
	c-0.343,0.807-0.81,1.51-1.407,2.105s-1.294,1.064-2.089,1.404c-0.796,0.34-1.649,0.51-2.558,0.51h-13.258
	c-0.908,0-1.769-0.176-2.578-0.531c-0.81-0.354-1.514-0.828-2.11-1.424c-0.597-0.598-1.065-1.291-1.406-2.088
	c-0.342-0.793-0.512-1.645-0.512-2.553s0.177-1.766,0.532-2.574c0.354-0.809,0.83-1.512,1.426-2.107
	c0.596-0.594,1.298-1.064,2.105-1.404c0.81-0.34,1.668-0.51,2.575-0.51h17.279v-2.34c0-0.568-0.106-1.107-0.319-1.619
	c-0.213-0.51-0.511-0.949-0.894-1.318c-0.384-0.369-0.823-0.66-1.319-0.873c-0.497-0.213-1.029-0.318-1.596-0.318h-18.301
	c-0.368,0-0.674-0.121-0.914-0.363c-0.242-0.24-0.362-0.531-0.362-0.871s0.12-0.631,0.362-0.873c0.242-0.24,0.547-0.361,0.916-0.361
	H1639.454z M1622.143,1003.178c0,1.141,0.396,2.111,1.191,2.91s1.76,1.197,2.895,1.197h13.235c1.135,0,2.1-0.398,2.894-1.197
	c0.795-0.799,1.192-1.77,1.192-2.91v-4.15h-17.279c-0.567,0-1.106,0.109-1.616,0.322c-0.512,0.215-0.951,0.514-1.32,0.898
	c-0.368,0.385-0.659,0.826-0.872,1.326C1622.249,1002.072,1622.143,1002.607,1622.143,1003.178"/>
<path display="none" fill="#68C9D5" d="M1667.553,987.623c0.936,0,1.814,0.178,2.639,0.531c0.822,0.355,1.532,0.838,2.127,1.447
	c0.596,0.611,1.071,1.318,1.426,2.129c0.355,0.807,0.532,1.68,0.532,2.617v14.129c0,0.369-0.121,0.674-0.362,0.916
	c-0.24,0.24-0.545,0.359-0.914,0.359c-0.34,0-0.631-0.119-0.873-0.359c-0.24-0.242-0.361-0.547-0.361-0.916v-14.129
	c0-1.164-0.405-2.15-1.215-2.959c-0.811-0.809-1.813-1.211-3.008-1.211h-15.27v18.299c0,0.369-0.125,0.674-0.377,0.916
	c-0.251,0.24-0.544,0.359-0.878,0.359c-0.363,0-0.663-0.119-0.899-0.359c-0.238-0.242-0.356-0.547-0.356-0.916V988.9
	c0-0.342,0.12-0.631,0.362-0.873c0.24-0.242,0.545-0.375,0.914-0.404H1667.553z"/>
<path display="none" fill="#FFFFFF" d="M1703.301,987.621c0.937,0,1.81,0.178,2.617,0.533c0.81,0.354,1.519,0.836,2.129,1.447
	c0.609,0.609,1.092,1.318,1.446,2.127s0.532,1.682,0.532,2.617v9.949c0,0.938-0.178,1.809-0.532,2.617
	c-0.356,0.809-0.839,1.518-1.45,2.129c-0.611,0.609-1.32,1.092-2.131,1.447c-0.81,0.354-1.683,0.531-2.621,0.531h-22.078v12.398
	c0,0.369-0.125,0.674-0.377,0.914c-0.25,0.242-0.543,0.363-0.877,0.363c-0.363,0-0.664-0.121-0.9-0.363
	c-0.237-0.24-0.356-0.545-0.356-0.914v-29.072c0-0.936,0.177-1.809,0.532-2.617s0.837-1.518,1.447-2.127
	c0.609-0.611,1.318-1.094,2.127-1.447c0.81-0.355,1.682-0.533,2.617-0.533H1703.301z M1681.213,1008.465h22.082
	c1.192,0,2.194-0.402,3.004-1.213c0.811-0.809,1.215-1.793,1.215-2.957v-9.949c0-1.162-0.404-2.148-1.215-2.959
	c-0.81-0.807-1.812-1.211-3.004-1.211h-17.904c-1.166,0-2.152,0.404-2.963,1.211c-0.81,0.811-1.215,1.797-1.215,2.959V1008.465z"/>
<path display="none" fill="#68C9D5" d="M1733.986,987.623c0.907,0,1.767,0.178,2.575,0.531c0.809,0.355,1.518,0.83,2.128,1.426
	s1.092,1.299,1.447,2.107c0.354,0.809,0.532,1.68,0.532,2.617v4.895c0,0.369-0.123,0.674-0.362,0.914
	c-0.241,0.242-0.548,0.363-0.915,0.363h-22.727v2.611c0,1.172,0.404,2.162,1.213,2.977c0.81,0.814,1.795,1.221,2.957,1.221h17.748
	c0.34,0,0.639,0.119,0.894,0.355s0.383,0.523,0.383,0.857c0,0.363-0.128,0.662-0.383,0.9c-0.255,0.236-0.554,0.354-0.894,0.354
	h-17.748c-0.936,0-1.809-0.176-2.617-0.531c-0.807-0.354-1.51-0.828-2.105-1.424c-0.597-0.598-1.072-1.301-1.427-2.107
	c-0.354-0.809-0.531-1.682-0.531-2.617v-8.768c0-0.938,0.177-1.809,0.531-2.617s0.83-1.512,1.427-2.107
	c0.596-0.596,1.299-1.07,2.105-1.426c0.809-0.354,1.682-0.531,2.617-0.531H1733.986z M1716.665,998.008h21.492v-3.701
	c0-1.174-0.404-2.172-1.213-2.988c-0.809-0.818-1.795-1.227-2.958-1.227h-13.151c-1.162,0-2.147,0.408-2.957,1.227
	c-0.809,0.816-1.213,1.814-1.213,2.988V998.008z"/>
<path display="none" fill="#68C9D5" d="M1770.352,987.879c0.184,0.199,0.312,0.432,0.383,0.701s0.078,0.547,0.021,0.83
	s-0.17,0.496-0.34,0.639c-3.15,2.609-6.102,5.064-8.853,7.363c-1.164,0.992-2.349,1.984-3.554,2.979
	c-1.206,0.994-2.348,1.936-3.426,2.83c-1.08,0.893-2.059,1.709-2.938,2.447c-0.879,0.736-1.574,1.318-2.085,1.744h20.13
	c0.312,0,0.581,0.121,0.809,0.361c0.228,0.242,0.342,0.52,0.342,0.83c0,0.369-0.114,0.66-0.342,0.873s-0.496,0.32-0.809,0.32
	h-23.662c-0.312,0.055-0.611-0.043-0.894-0.299c-0.284-0.256-0.427-0.539-0.427-0.852c0-0.453,0.172-0.809,0.512-1.062
	c3.148-2.641,6.113-5.121,8.895-7.449c1.191-0.963,2.391-1.951,3.596-2.957c1.207-1.008,2.355-1.965,3.447-2.873
	s2.078-1.73,2.959-2.469c0.879-0.736,1.588-1.32,2.127-1.744h-20.173c-0.368,0-0.681-0.107-0.936-0.32s-0.384-0.516-0.384-0.914
	c0-0.342,0.121-0.631,0.363-0.873c0.239-0.24,0.545-0.361,0.914-0.361h23.62C1769.933,987.596,1770.167,987.68,1770.352,987.879"/>
<path display="none" fill="#FFFFFF" d="M1686.667,1024.539v-7.145h0.328v1.414c0.607-0.953,1.645-1.488,2.896-1.488
	c1.746,0,3.176,1.211,3.176,2.699s-1.443,2.721-3.201,2.721c-1.227,0-2.264-0.547-2.871-1.512v3.311H1686.667z M1689.866,1022.461
	c1.595,0,2.859-1.092,2.859-2.463c0-1.328-1.277-2.4-2.859-2.4c-1.58,0-2.871,1.072-2.871,2.4
	C1686.995,1021.369,1688.272,1022.461,1689.866,1022.461"/>
<path display="none" fill="#FFFFFF" d="M1695.782,1017.395v1.039c0.544-0.793,1.15-1.092,2.251-1.135v0.277
	c-1.492,0.043-2.251,0.805-2.251,2.25v2.818h-0.329v-5.25H1695.782z"/>
<path display="none" fill="#FFFFFF" d="M1702.837,1017.299c1.784,0,3.2,1.199,3.2,2.709c0,1.49-1.43,2.711-3.2,2.711
	c-1.758,0-3.201-1.211-3.201-2.689C1699.636,1018.498,1701.042,1017.299,1702.837,1017.299 M1702.837,1022.439
	c1.581,0,2.871-1.092,2.871-2.42c0-1.361-1.265-2.443-2.858-2.443c-1.607,0-2.885,1.082-2.885,2.443
	C1699.965,1021.357,1701.255,1022.439,1702.837,1022.439"/>
<path display="none" fill="#FFFFFF" d="M1714.369,1015.5v7.143h-0.315v-1.414c-0.607,0.955-1.645,1.49-2.897,1.49
	c-1.758,0-3.175-1.211-3.175-2.699c0-1.49,1.43-2.721,3.188-2.721c1.24,0,2.265,0.547,2.885,1.51v-3.309H1714.369z
	 M1711.168,1017.578c-1.594,0-2.858,1.092-2.858,2.463c0,1.328,1.278,2.398,2.858,2.398c1.582,0,2.873-1.07,2.873-2.398
	C1714.042,1018.67,1712.775,1017.578,1711.168,1017.578"/>
<path display="none" fill="#FFFFFF" d="M1721.979,1022.645v-1.008c-0.53,0.719-1.303,1.094-2.227,1.094
	c-1.707,0-2.566-0.912-2.566-2.732v-2.604h0.315v2.594c0,1.66,0.733,2.473,2.239,2.473c1.404,0,2.238-0.846,2.238-2.293v-2.773
	h0.316v5.25H1721.979z"/>
<path display="none" fill="#FFFFFF" d="M1727.908,1022.73c-1.784,0-3.201-1.211-3.201-2.732c0-1.479,1.431-2.699,3.188-2.699
	c1.215,0,2.176,0.492,2.82,1.445h-0.367c-0.683-0.793-1.455-1.166-2.453-1.166c-1.594,0-2.871,1.092-2.871,2.441
	s1.277,2.441,2.871,2.441c1.062,0,1.923-0.438,2.517-1.275h0.354C1730.209,1022.15,1729.148,1022.73,1727.908,1022.73"/>
<path display="none" fill="#FFFFFF" d="M1735.822,1022.73c-1.784,0-3.201-1.211-3.201-2.732c0-1.479,1.431-2.699,3.188-2.699
	c1.215,0,2.176,0.492,2.82,1.445h-0.367c-0.683-0.793-1.455-1.166-2.453-1.166c-1.594,0-2.871,1.092-2.871,2.441
	s1.277,2.441,2.871,2.441c1.062,0,1.923-0.438,2.517-1.275h0.354C1738.124,1022.15,1737.062,1022.73,1735.822,1022.73"/>
<path display="none" fill="#FFFFFF" d="M1741.319,1016.346h-0.328v-0.846h0.328V1016.346z M1741.319,1022.645h-0.328v-5.25h0.328
	V1022.645z"/>
<path display="none" fill="#FFFFFF" d="M1746.922,1017.299c1.783,0,3.199,1.199,3.199,2.709c0,1.49-1.429,2.711-3.199,2.711
	c-1.758,0-3.201-1.211-3.201-2.689C1743.721,1018.498,1745.125,1017.299,1746.922,1017.299 M1746.922,1022.439
	c1.58,0,2.871-1.092,2.871-2.42c0-1.361-1.266-2.443-2.858-2.443c-1.607,0-2.886,1.082-2.886,2.443
	C1744.049,1021.357,1745.34,1022.439,1746.922,1022.439"/>
<path display="none" fill="#FFFFFF" d="M1752.85,1017.395v1.008c0.531-0.719,1.29-1.094,2.213-1.094
	c1.708,0,2.581,0.922,2.581,2.732v2.604h-0.329v-2.594c0-1.648-0.746-2.475-2.238-2.475c-1.404,0-2.227,0.848-2.227,2.293v2.775
	h-0.329v-5.25H1752.85z"/>
<path display="none" fill="#FFFFFF" d="M1766.051,1021.23c-0.518,0.92-1.605,1.488-2.82,1.488c-1.81,0-3.227-1.189-3.227-2.689
	s1.443-2.721,3.215-2.721c1.771,0,3.098,1.135,3.187,2.732h-6.072c0.089,1.424,1.278,2.422,2.886,2.422
	c1.036,0,1.896-0.439,2.465-1.232H1766.051z M1763.206,1017.588c-1.48,0-2.593,0.846-2.872,2.186h5.731
	C1765.836,1018.486,1764.661,1017.588,1763.206,1017.588"/>
<path display="none" fill="#FFFFFF" d="M1768.627,1021.025c0.025,0.889,0.62,1.426,1.557,1.426c0.834,0,1.518-0.568,1.518-1.254
	c0-0.578-0.305-0.846-1.316-1.146c-1.303-0.396-1.67-0.707-1.67-1.424c0-0.729,0.684-1.297,1.544-1.297
	c0.886,0,1.53,0.547,1.543,1.328h-0.315c-0.09-0.674-0.531-1.049-1.228-1.049c-0.683,0-1.202,0.449-1.202,1.039
	c0,0.525,0.254,0.771,1.063,1.018l0.379,0.107c1.138,0.354,1.53,0.707,1.53,1.424c0,0.846-0.821,1.533-1.846,1.533
	c-1.051,0-1.886-0.707-1.886-1.598v-0.107H1768.627z"/>
<path display="none" fill="#FFFFFF" d="M1635.606,1017.395h0.328v0.943c0.545-0.707,1.228-1.039,2.101-1.039
	c1.012,0,1.834,0.48,2.251,1.338c0.418-0.857,1.24-1.338,2.265-1.338c1.53,0,2.39,0.879,2.39,2.441v2.904h-0.315v-2.914
	c0-1.361-0.771-2.154-2.101-2.154c-1.34,0-2.1,0.805-2.1,2.238v2.83h-0.316v-2.818c0-1.467-0.721-2.25-2.073-2.25
	c-1.367,0-2.101,0.793-2.101,2.25v2.818h-0.328V1017.395z"/>
<path display="none" fill="#FFFFFF" d="M1653.346,1021.23c-0.52,0.92-1.605,1.488-2.821,1.488c-1.81,0-3.226-1.189-3.226-2.689
	s1.443-2.721,3.214-2.721s3.099,1.135,3.187,2.732h-6.072c0.09,1.424,1.278,2.422,2.886,2.422c1.036,0,1.897-0.439,2.466-1.232
	H1653.346z M1650.5,1017.588c-1.48,0-2.594,0.846-2.873,2.186h5.731C1653.131,1018.486,1651.956,1017.588,1650.5,1017.588"/>
<path display="none" fill="#FFFFFF" d="M1661.944,1015.5v7.143h-0.316v-1.414c-0.607,0.955-1.645,1.49-2.897,1.49
	c-1.758,0-3.175-1.211-3.175-2.699c0-1.49,1.43-2.721,3.188-2.721c1.24,0,2.265,0.547,2.885,1.51v-3.309H1661.944z
	 M1658.743,1017.578c-1.594,0-2.858,1.092-2.858,2.463c0,1.328,1.278,2.398,2.858,2.398c1.582,0,2.873-1.07,2.873-2.398
	C1661.616,1018.67,1660.349,1017.578,1658.743,1017.578"/>
<path display="none" fill="#FFFFFF" d="M1665.126,1016.346h-0.329v-0.846h0.329V1016.346z M1665.126,1022.645h-0.329v-5.25h0.329
	V1022.645z"/>
<path display="none" fill="#FFFFFF" d="M1673.916,1022.645h-0.316v-1.414c-0.657,0.996-1.632,1.5-2.884,1.5
	c-1.784,0-3.188-1.201-3.188-2.711c0-1.488,1.43-2.711,3.174-2.711c1.228,0,2.201,0.504,2.897,1.5v-1.414h0.316V1022.645z
	 M1670.715,1022.451c1.619,0,2.884-1.061,2.884-2.41s-1.303-2.453-2.922-2.453c-1.556,0-2.834,1.104-2.834,2.441
	C1667.843,1021.379,1669.122,1022.451,1670.715,1022.451"/>
<path display="none" fill="#FFFFFF" d="M2123.441-113.638l-1.987-0.345l0.115,16.923l1.73,0.202l10.235,2.792
	c3.585,0.819,2.524-12.491,8.122-8.677c1.223-0.585,2.603-1.216,3.957-1.806C2137.462-111.136,2124.058-113.53,2123.441-113.638"/>
<path display="none" fill="#FFFFFF" d="M2154.016-97.282l-6.334-5.385c-0.093-0.097-0.192-0.189-0.288-0.285
	c-1.362,0.729-2.708,1.332-3.721,1.752c0.463,0.396,0.908,0.805,1.315,1.235l6.296,5.35c1.312,1.492,24.755,25.474,17.062,70.151
	C2176.578-72.276,2154.941-96.283,2154.016-97.282"/>
<path display="none" fill="#FFFFFF" d="M2172.722-114.063c0,0-44.552,7.538-65.331,56.079c0,0,20.012-3.132,33.491-19.779
	C2140.882-77.763,2162.811-109.386,2172.722-114.063"/>
<path display="none" fill="#FFFFFF" d="M2096.547-35.166c0,0,93.914-53.412,49.99,61.334l1.243,12.176
	c49.036-100.729-2.04-124.333-2.88-126.263C2126.422-52.539,2096.547-35.166,2096.547-35.166"/>
<path display="none" fill="#FFFFFF" d="M1999.349-7.95c34.748-21.712,46.083-18.65,71.085-26.061
	c29.239-11.647,23.412-26.061,23.412-26.061c2.629-0.329-17.925,16.334-37.08,21.928C2025.532-29.022,1999.349-7.95,1999.349-7.95"
	/>
<path display="none" fill="#FFFFFF" d="M2082.768-101.156c-10.604-3.478-23.221-29.176-23.221-29.176l7.376,40.483
	c0,0,5.326-8.211,14.297-10.741"/>
<path display="none" fill="#FFFFFF" d="M2083.994-32.156c-10.693,8.853-7.3,16.776-7.3,16.776
	c-5.536-7.826-6.419-16.73-4.937-15.777C2076.578-29.568,2083.994-32.156,2083.994-32.156"/>
<path display="none" fill="#FFFFFF" d="M2115.489-46.069c3.148,6.913,10.288,21.515,6.587,30.689c0,0-8.155-17.627-25.528-19.478
	L2115.489-46.069z"/>
<path display="none" fill="#FFFFFF" d="M2142.366,28.09c0,0-18.976-4.692-58.372,5.912c0,0,58.054-14.832,67.377,53.393
	c0,0,5.562-26.75-6.813-46.69"/>
<path display="none" fill="#FFFFFF" d="M2107.534-85.535c13.46-9.562,20.636-10.979,20.636-10.979
	c-33.116-12.93-55.394,2.435-68.317,22.435c-16.673,25.804-27.026,35.649-27.026,35.649l-33.477,30.48
	c40.056-34.007,59.978-33.326,84.645-57.526c4.395-4.311,8.482-8.027,12.257-11.236l4.555-13.137
	C2100.805-89.849,2104.903-86.1,2107.534-85.535"/>
<polygon display="none" fill="#68C9D5" points="1906.053,32.75 1906.053,-46.475 1987.458,-6.862 "/>
<circle display="none" fill="none" stroke="#68C9D5" stroke-miterlimit="10" cx="1937.75" cy="-6.863" r="56.285"/>
<rect x="1973.114" y="401.77" display="none" fill="#68C9D5" width="119.685" height="25.37"/>
<rect x="1438.295" y="-424.237" display="none" fill="none" width="1008" height="1934.313"/>
<text transform="matrix(1 0 0 1 190.063 462.8281)" display="none"><tspan x="0" y="0" display="inline" fill="#231F20" font-family="'Neogrey'" font-size="10.8674">T</tspan><tspan x="9.14" y="0" display="inline" fill="#231F20" font-family="'Neogrey'" font-size="10.8674">V aire</tspan></text>
<text transform="matrix(1 0 0 1 190.063 489.8662)" display="none"><tspan x="0" y="0" display="inline" fill="#231F20" font-family="'Neogrey'" font-size="10.8674">cab</tspan><tspan x="22.756" y="0" display="inline" fill="#231F20" font-family="'Neogrey'" font-size="10.8674">l</tspan><tspan x="26.396" y="0" display="inline" fill="#231F20" font-family="'Neogrey'" font-size="10.8674">e</tspan></text>
<text transform="matrix(1 0 0 1 190.063 516.9043)" display="none"><tspan x="0" y="0" display="inline" fill="#231F20" font-family="'Neogrey'" font-size="10.8674">f</tspan><tspan x="3.793" y="0" display="inline" fill="#231F20" font-family="'Neogrey'" font-size="10.8674">icción</tspan></text>
<text transform="matrix(1 0 0 1 190.063 543.9424)" display="none" fill="#231F20" font-family="'Neogrey'" font-size="10.8674">pubilidad</text>
<text transform="matrix(1 0 0 1 190.063 570.9805)" display="none"><tspan x="0" y="0" display="inline" fill="#231F20" font-family="'Neogrey'" font-size="10.8674">co-produccion</tspan><tspan x="89.73" y="0" display="inline" fill="#231F20" font-family="'Neogrey'" font-size="10.8674">e</tspan><tspan x="97.457" y="0" display="inline" fill="#231F20" font-family="'Neogrey'" font-size="10.8674">s</tspan></text>
<text transform="matrix(1 0 0 1 190.063 598.0186)" display="none"><tspan x="0" y="0" display="inline" fill="#231F20" font-family="'Neogrey'" font-size="10.8674">documenta</tspan><tspan x="69.268" y="0" display="inline" fill="#231F20" font-family="'Neogrey'" font-size="10.8674">l</tspan><tspan x="72.908" y="0" display="inline" fill="#231F20" font-family="'Neogrey'" font-size="10.8674">e</tspan><tspan x="80.635" y="0" display="inline" fill="#231F20" font-family="'Neogrey'" font-size="10.8674">s</tspan></text>
<text transform="matrix(1 0 0 1 190.063 625.0566)" display="none"><tspan x="0" y="0" display="inline" fill="#231F20" font-family="'Neogrey'" font-size="10.8674">archi</tspan><tspan x="31.146" y="0" display="inline" fill="#231F20" font-family="'Neogrey'" font-size="10.8674">v</tspan><tspan x="38.817" y="0" display="inline" fill="#231F20" font-family="'Neogrey'" font-size="10.8674">o</tspan></text>
<g display="none">
	<defs>
		<rect id="SVGID_23_" x="-356.14" y="-326.297" width="1008" height="1934.313"/>
	</defs>
	<clipPath id="SVGID_24_" display="inline">
		<use xlink:href="#SVGID_23_"  overflow="visible"/>
	</clipPath>
	<path display="inline" clip-path="url(#SVGID_24_)" fill="#FFFFFF" d="M456.883,1251.368l-1.643-0.284l0.096,13.984l1.43,0.166
		l8.457,2.308c2.963,0.677,2.087-10.322,6.713-7.171c1.01-0.482,2.15-1.004,3.271-1.491
		C468.469,1253.436,457.393,1251.458,456.883,1251.368"/>
	<path display="inline" clip-path="url(#SVGID_24_)" fill="#FFFFFF" d="M482.149,1264.884l-5.233-4.449
		c-0.077-0.08-0.159-0.156-0.238-0.235c-1.125,0.604-2.238,1.1-3.075,1.447c0.382,0.329,0.751,0.666,1.088,1.021l5.202,4.421
		c1.084,1.233,20.456,21.052,14.099,57.971C500.794,1285.548,482.914,1265.709,482.149,1264.884"/>
	<path display="inline" clip-path="url(#SVGID_24_)" fill="#FFFFFF" d="M497.607,1251.018c0,0-36.815,6.229-53.986,46.342
		c0,0,16.536-2.589,27.676-16.345C471.296,1281.015,489.417,1254.882,497.607,1251.018"/>
	<path display="inline" clip-path="url(#SVGID_24_)" fill="#FFFFFF" d="M434.66,1316.215c0,0,77.606-44.138,41.31,50.684
		l1.027,10.062c40.522-83.24-1.687-102.744-2.381-104.339C459.346,1301.858,434.66,1316.215,434.66,1316.215"/>
	<path display="inline" clip-path="url(#SVGID_24_)" fill="#FFFFFF" d="M354.338,1338.705
		c28.714-17.942,38.082-15.413,58.742-21.536c24.162-9.624,19.347-21.535,19.347-21.535c2.172-0.271-14.812,13.498-30.641,18.12
		C375.975,1321.291,354.338,1338.705,354.338,1338.705"/>
	<path display="inline" clip-path="url(#SVGID_24_)" fill="#FFFFFF" d="M423.273,1261.684c-8.763-2.874-19.189-24.11-19.189-24.11
		l6.097,33.453c0,0,4.399-6.785,11.812-8.875"/>
	<path display="inline" clip-path="url(#SVGID_24_)" fill="#FFFFFF" d="M424.286,1318.701c-8.836,7.316-6.033,13.863-6.033,13.863
		c-4.574-6.467-5.304-13.825-4.078-13.037C418.158,1320.841,424.286,1318.701,424.286,1318.701"/>
	<path display="inline" clip-path="url(#SVGID_24_)" fill="#FFFFFF" d="M450.312,1307.205c2.602,5.713,8.502,17.779,5.442,25.359
		c0,0-6.737-14.565-21.095-16.096L450.312,1307.205z"/>
	<path display="inline" clip-path="url(#SVGID_24_)" fill="#FFFFFF" d="M472.522,1368.487c0,0-15.681-3.877-48.236,4.885
		c0,0,47.973-12.256,55.677,44.122c0,0,4.597-22.105-5.63-38.583"/>
	<path display="inline" clip-path="url(#SVGID_24_)" fill="#FFFFFF" d="M443.738,1274.592c11.123-7.902,17.053-9.072,17.053-9.072
		c-27.366-10.686-45.775,2.012-56.455,18.539c-13.777,21.324-22.334,29.458-22.334,29.458l-27.663,25.188
		c33.101-28.103,49.562-27.54,69.947-47.538c3.631-3.562,7.009-6.633,10.128-9.283l3.765-10.857
		C438.178,1271.026,441.564,1274.124,443.738,1274.592"/>
</g>
</svg>
