<?xml version="1.0" encoding="utf-8"?>
<!-- Generator: Adobe Illustrator 16.0.0, SVG Export Plug-In . SVG Version: 6.00 Build 0)  -->
<!DOCTYPE svg PUBLIC "-//W3C//DTD SVG 1.1//EN" "http://www.w3.org/Graphics/SVG/1.1/DTD/svg11.dtd">
<svg version="1.1" id="Layer_1" xmlns="http://www.w3.org/2000/svg" xmlns:xlink="http://www.w3.org/1999/xlink" x="0px" y="0px"
	 width="173.373px" height="217.726px" viewBox="0 0 173.373 217.726" enable-background="new 0 0 173.373 217.726"
	 xml:space="preserve">
<g>
	<path id="XMLID_135_" fill="#FFFFFF" d="M124.092,16.694l-1.987-0.344l0.115,16.922l1.73,0.202l10.234,2.792
		c3.586,0.819,2.525-12.491,8.123-8.677c1.222-0.585,2.603-1.215,3.958-1.806C138.113,19.195,124.71,16.802,124.092,16.694z"/>
	<path id="XMLID_134_" fill="#FFFFFF" d="M154.667,33.05l-6.334-5.385c-0.093-0.097-0.192-0.189-0.288-0.285
		c-1.361,0.729-2.708,1.331-3.722,1.751c0.464,0.397,0.91,0.806,1.317,1.235l6.295,5.35c1.312,1.492,24.755,25.475,17.062,70.151
		l0,0C177.229,58.056,155.592,34.048,154.667,33.05z"/>
	<path id="XMLID_132_" fill="#FFFFFF" d="M173.373,16.269c0,0-44.552,7.538-65.331,56.08c0,0,20.013-3.132,33.491-19.779
		C141.533,52.569,163.463,20.946,173.373,16.269z"/>
	<path id="XMLID_131_" fill="#FFFFFF" d="M97.198,95.166c0,0,93.914-53.412,49.99,61.333l1.243,12.177
		c49.037-100.73-2.04-124.333-2.88-126.264C127.073,77.793,97.198,95.166,97.198,95.166z"/>
	<path id="XMLID_130_" fill="#FFFFFF" d="M0,122.382c34.748-21.712,46.083-18.651,71.085-26.061
		c29.238-11.647,23.412-26.061,23.412-26.061c2.629-0.33-17.926,16.334-37.08,21.927C26.184,101.309,0,122.382,0,122.382z"/>
	<path id="XMLID_129_" fill="#FFFFFF" d="M83.419,29.176C72.815,25.698,60.198,0,60.198,0l7.376,40.482
		c0,0,5.326-8.21,14.297-10.741"/>
	<path id="XMLID_128_" fill="#FFFFFF" d="M84.645,98.175c-10.692,8.853-7.301,16.776-7.301,16.776
		c-5.535-7.827-6.418-16.731-4.935-15.777C77.229,100.763,84.645,98.175,84.645,98.175z"/>
	<path id="XMLID_127_" fill="#FFFFFF" d="M116.14,84.263c3.148,6.914,10.288,21.515,6.587,30.689c0,0-8.154-17.627-25.528-19.478
		L116.14,84.263z"/>
	<path id="XMLID_126_" fill="#FFFFFF" d="M143.017,158.421c0,0-18.976-4.691-58.372,5.912c0,0,58.054-14.832,67.377,53.393
		c0,0,5.562-26.749-6.813-46.689"/>
	<g>
		<path fill="#FFFFFF" d="M108.185,44.796c13.459-9.562,20.637-10.979,20.637-10.979c-33.116-12.93-55.396,2.435-68.317,22.435
			C43.83,82.057,33.477,91.901,33.477,91.901L0,122.382c40.056-34.008,59.978-33.327,84.645-57.526
			c4.395-4.312,8.482-8.028,12.257-11.236l4.555-13.138C101.456,40.482,105.554,44.232,108.185,44.796z"/>
	</g>
</g>
</svg>
