<?xml version="1.0" encoding="utf-8"?>
<!-- Generator: Adobe Illustrator 16.0.0, SVG Export Plug-In . SVG Version: 6.00 Build 0)  -->
<!DOCTYPE svg PUBLIC "-//W3C//DTD SVG 1.1//EN" "http://www.w3.org/Graphics/SVG/1.1/DTD/svg11.dtd">
<svg version="1.1" id="Layer_1" xmlns="http://www.w3.org/2000/svg" xmlns:xlink="http://www.w3.org/1999/xlink" x="0px" y="0px"
	 width="173.373px" height="217.726px" viewBox="0 0 173.373 217.726" enable-background="new 0 0 173.373 217.726"
	 xml:space="preserve">
<g>
	<path id="XMLID_135_" fill="#0A1C28" d="M49.281,16.694l1.987-0.344l-0.115,16.922l-1.73,0.202l-10.234,2.792
		c-3.586,0.819-2.525-12.491-8.123-8.677c-1.222-0.585-2.603-1.215-3.958-1.806C35.26,19.195,48.663,16.802,49.281,16.694z"/>
	<path id="XMLID_134_" fill="#0A1C28" d="M18.706,33.05l6.334-5.385c0.093-0.097,0.192-0.189,0.288-0.285
		c1.361,0.729,2.708,1.331,3.722,1.751c-0.464,0.397-0.91,0.806-1.317,1.235l-6.295,5.35c-1.312,1.492-24.755,25.475-17.062,70.151
		l0,0C-3.856,58.056,17.781,34.048,18.706,33.05z"/>
	<path id="XMLID_132_" fill="#0A1C28" d="M0,16.269c0,0,44.552,7.538,65.331,56.08c0,0-20.013-3.132-33.491-19.779
		C31.84,52.569,9.91,20.946,0,16.269z"/>
	<path id="XMLID_131_" fill="#0A1C28" d="M76.175,95.166c0,0-93.914-53.412-49.99,61.333l-1.243,12.177
		c-49.037-100.73,2.04-124.333,2.88-126.264C46.3,77.793,76.175,95.166,76.175,95.166z"/>
	<path id="XMLID_130_" fill="#0A1C28" d="M173.373,122.382c-34.748-21.712-46.083-18.651-71.085-26.061
		C73.05,84.674,78.876,70.261,78.876,70.261c-2.629-0.33,17.926,16.334,37.08,21.927
		C147.189,101.309,173.373,122.382,173.373,122.382z"/>
	<path id="XMLID_129_" fill="#0A1C28" d="M89.954,29.176C100.558,25.698,113.175,0,113.175,0l-7.376,40.482
		c0,0-5.326-8.21-14.297-10.741"/>
	<path id="XMLID_128_" fill="#0A1C28" d="M88.729,98.175c10.692,8.853,7.301,16.776,7.301,16.776
		c5.535-7.827,6.418-16.731,4.935-15.777C96.145,100.763,88.729,98.175,88.729,98.175z"/>
	<path id="XMLID_127_" fill="#0A1C28" d="M57.233,84.263c-3.148,6.914-10.288,21.515-6.587,30.689c0,0,8.154-17.627,25.528-19.478
		L57.233,84.263z"/>
	<path id="XMLID_126_" fill="#0A1C28" d="M30.356,158.421c0,0,18.976-4.691,58.372,5.912c0,0-58.054-14.832-67.377,53.393
		c0,0-5.562-26.749,6.813-46.689"/>
	<g>
		<path fill="#0A1C28" d="M65.188,44.796c-13.459-9.562-20.637-10.979-20.637-10.979c33.116-12.93,55.396,2.435,68.317,22.435
			c16.674,25.805,27.027,35.649,27.027,35.649l33.477,30.481c-40.056-34.008-59.978-33.327-84.645-57.526
			c-4.395-4.312-8.482-8.028-12.257-11.236l-4.555-13.138C71.917,40.482,67.819,44.232,65.188,44.796z"/>
	</g>
</g>
</svg>
